<svg width="33" height="33" viewBox="0 0 33 33" fill="none" xmlns="http://www.w3.org/2000/svg">
<path d="M16.3135 0.183594C7.3397 0.183594 0.0634766 7.45982 0.0634766 16.4336C0.0634766 25.4074 7.3397 32.6836 16.3135 32.6836C25.2872 32.6836 32.5635 25.4074 32.5635 16.4336C32.5635 7.45982 25.2872 0.183594 16.3135 0.183594ZM16.5093 24.486C12.5194 24.486 10.2197 21.8309 10.2197 17.4166V15.5195C10.2197 11.0725 12.5194 8.38114 16.5057 8.38114C19.9262 8.38114 22.4072 10.5829 22.4072 13.7277C22.4072 13.822 22.3311 13.8982 22.2367 13.8982H20.1801C20.0278 13.8982 19.9044 13.7821 19.8899 13.6297C19.7448 11.8343 18.439 10.6046 16.5166 10.6046C14.148 10.6046 12.8132 12.3638 12.8132 15.5195V17.4275C12.8132 20.536 14.1516 22.2734 16.5166 22.2734C18.4318 22.2734 19.734 21.1236 19.8899 19.4515C19.9044 19.3027 20.0278 19.1867 20.1801 19.1867H22.2404C22.3347 19.1867 22.4109 19.2628 22.4109 19.3571C22.4109 22.3532 19.9189 24.486 16.5093 24.486Z" fill="black"/>
</svg>
