<svg xmlns="http://www.w3.org/2000/svg" width="56.625" height="56.625" viewBox="0 0 56.625 56.625">
  <path id="Icon_ionic-ios-close-circle" data-name="Icon ionic-ios-close-circle" d="M31.688,3.375A28.313,28.313,0,1,0,60,31.688,28.308,28.308,0,0,0,31.688,3.375Zm7.173,38.562-7.173-7.173-7.173,7.173a2.175,2.175,0,1,1-3.076-3.076l7.173-7.173-7.173-7.173a2.175,2.175,0,0,1,3.076-3.076l7.173,7.173,7.173-7.173a2.175,2.175,0,0,1,3.076,3.076l-7.173,7.173,7.173,7.173a2.185,2.185,0,0,1,0,3.076A2.161,2.161,0,0,1,38.861,41.937Z" transform="translate(-3.375 -3.375)" fill="#c9c9c9"/>
</svg>
