<svg id="_011-instagram" data-name="011-instagram" xmlns="http://www.w3.org/2000/svg" width="37.4" height="37.4" viewBox="0 0 37.4 37.4">
  <path id="Path_1332" data-name="Path 1332" d="M214.159,210.579A3.579,3.579,0,1,1,210.579,207,3.579,3.579,0,0,1,214.159,210.579Zm0,0" transform="translate(-191.879 -191.879)" fill="#d9168e"/>
  <path id="Path_1333" data-name="Path 1333" d="M152.658,137.958a3.556,3.556,0,0,0-2.038-2.038,5.941,5.941,0,0,0-1.994-.37c-1.132-.052-1.472-.063-4.339-.063s-3.207.011-4.339.062a5.945,5.945,0,0,0-1.994.37,3.557,3.557,0,0,0-2.038,2.038,5.943,5.943,0,0,0-.37,1.994c-.052,1.132-.063,1.472-.063,4.339s.011,3.207.063,4.339a5.941,5.941,0,0,0,.37,1.994,3.556,3.556,0,0,0,2.038,2.038,5.934,5.934,0,0,0,1.994.37c1.132.052,1.471.062,4.339.062s3.207-.011,4.339-.062a5.934,5.934,0,0,0,1.994-.37,3.556,3.556,0,0,0,2.038-2.038,5.947,5.947,0,0,0,.37-1.994c.052-1.133.063-1.472.063-4.339s-.011-3.207-.062-4.339A5.935,5.935,0,0,0,152.658,137.958Zm-8.371,11.847a5.514,5.514,0,1,1,5.514-5.514A5.514,5.514,0,0,1,144.288,149.805Zm5.732-9.957a1.289,1.289,0,1,1,1.289-1.289A1.289,1.289,0,0,1,150.019,139.848Zm0,0" transform="translate(-125.588 -125.591)" fill="#d9168e"/>
  <path id="Path_1334" data-name="Path 1334" d="M18.7,0A18.7,18.7,0,1,0,37.4,18.7,18.7,18.7,0,0,0,18.7,0ZM29.373,23.127a7.878,7.878,0,0,1-.5,2.607,5.49,5.49,0,0,1-3.14,3.14,7.884,7.884,0,0,1-2.606.5c-1.145.052-1.511.065-4.427.065s-3.282-.013-4.427-.065a7.884,7.884,0,0,1-2.606-.5,5.49,5.49,0,0,1-3.14-3.14,7.876,7.876,0,0,1-.5-2.606c-.053-1.145-.065-1.511-.065-4.427s.012-3.282.065-4.427a7.879,7.879,0,0,1,.5-2.607,5.494,5.494,0,0,1,3.141-3.14,7.885,7.885,0,0,1,2.607-.5c1.145-.052,1.511-.065,4.427-.065s3.282.013,4.427.065a7.887,7.887,0,0,1,2.607.5,5.492,5.492,0,0,1,3.14,3.141,7.877,7.877,0,0,1,.5,2.607c.052,1.145.064,1.511.064,4.427S29.425,21.982,29.373,23.127Zm0,0" fill="#d9168e"/>
</svg>
