<svg width="70" height="19" viewBox="0 0 70 19" fill="none" xmlns="http://www.w3.org/2000/svg">
<path d="M13.6486 10.3989C15.817 10.3989 17.957 10.3989 20.1173 10.3989C20.1173 11.1262 20.1173 11.8211 20.1173 12.5363C17.2315 12.5363 14.37 12.5363 11.4842 12.5363C11.4842 8.68408 11.4842 4.8522 11.4842 1C14.3579 1 17.2234 1 20.1132 1C20.1132 1.67048 20.1132 2.34096 20.1132 3.0602C17.9651 3.0602 15.817 3.0602 13.6486 3.0602C13.6486 3.97042 13.6486 4.83188 13.6486 5.72585C15.7237 5.72585 17.7868 5.72585 19.8782 5.72585C19.8782 6.41258 19.8782 7.07087 19.8782 7.77792C17.8111 7.77792 15.7359 7.77792 13.6486 7.77792C13.6486 8.6597 13.6486 9.50084 13.6486 10.3989Z" fill="#003C1B"/>
<path d="M13.6486 10.3989C15.817 10.3989 17.957 10.3989 20.1173 10.3989C20.1173 11.1262 20.1173 11.8211 20.1173 12.5363C17.2315 12.5363 14.37 12.5363 11.4842 12.5363C11.4842 8.68408 11.4842 4.8522 11.4842 1C14.3579 1 17.2234 1 20.1132 1C20.1132 1.67048 20.1132 2.34096 20.1132 3.0602C17.9651 3.0602 15.817 3.0602 13.6486 3.0602C13.6486 3.97042 13.6486 4.83188 13.6486 5.72585C15.7237 5.72585 17.7868 5.72585 19.8782 5.72585C19.8782 6.41258 19.8782 7.07087 19.8782 7.77792C17.8111 7.77792 15.7359 7.77792 13.6486 7.77792C13.6486 8.6597 13.6486 9.50084 13.6486 10.3989Z" fill="url(#paint0_linear_705_490)"/>
<path d="M31.0444 14.0357C31.7253 14.0357 32.3698 14.0357 33.0102 14.0357C33.3952 15.5839 35.0691 16.2706 36.4431 15.4539C36.9984 15.1247 37.2659 14.6249 37.2537 13.987C37.2416 13.3327 36.9133 12.8532 36.3175 12.6216C35.9446 12.4753 35.5312 12.4306 35.134 12.3656C34.7084 12.2965 34.2666 12.3006 33.8491 12.1949C32.2806 11.7927 31.243 10.6021 31.1052 8.98478C31.0525 8.34681 31.0647 7.6682 31.2106 7.04649C31.5956 5.4089 33.0021 4.28331 34.7043 4.13296C35.6568 4.05169 36.2121 4.14515 37.0714 4.5515C37.3267 4.23048 37.5861 3.9054 37.8698 3.54782C38.3683 3.92166 38.8507 4.28737 39.3573 4.66934C39.0493 5.06756 38.7534 5.44547 38.4656 5.82338C39.8153 7.40408 39.5518 10.3014 37.6672 11.2969C37.6753 11.3172 37.6834 11.3497 37.6955 11.3579C40.0058 12.4266 39.6653 15.9577 37.578 17.059C35.9446 17.9204 34.2828 17.9123 32.6819 16.9858C31.5956 16.356 31.0849 15.3401 31.0444 14.0357ZM37.3024 8.26554C37.2943 7.1562 36.7106 6.30287 35.7784 6.03874C34.2788 5.61614 32.9899 6.72954 33.0588 8.38338C33.1155 9.69996 33.9951 10.5574 35.2556 10.5248C36.4553 10.4923 37.3105 9.54961 37.3024 8.26554Z" fill="#003C1B"/>
<path d="M31.0444 14.0357C31.7253 14.0357 32.3698 14.0357 33.0102 14.0357C33.3952 15.5839 35.0691 16.2706 36.4431 15.4539C36.9984 15.1247 37.2659 14.6249 37.2537 13.987C37.2416 13.3327 36.9133 12.8532 36.3175 12.6216C35.9446 12.4753 35.5312 12.4306 35.134 12.3656C34.7084 12.2965 34.2666 12.3006 33.8491 12.1949C32.2806 11.7927 31.243 10.6021 31.1052 8.98478C31.0525 8.34681 31.0647 7.6682 31.2106 7.04649C31.5956 5.4089 33.0021 4.28331 34.7043 4.13296C35.6568 4.05169 36.2121 4.14515 37.0714 4.5515C37.3267 4.23048 37.5861 3.9054 37.8698 3.54782C38.3683 3.92166 38.8507 4.28737 39.3573 4.66934C39.0493 5.06756 38.7534 5.44547 38.4656 5.82338C39.8153 7.40408 39.5518 10.3014 37.6672 11.2969C37.6753 11.3172 37.6834 11.3497 37.6955 11.3579C40.0058 12.4266 39.6653 15.9577 37.578 17.059C35.9446 17.9204 34.2828 17.9123 32.6819 16.9858C31.5956 16.356 31.0849 15.3401 31.0444 14.0357ZM37.3024 8.26554C37.2943 7.1562 36.7106 6.30287 35.7784 6.03874C34.2788 5.61614 32.9899 6.72954 33.0588 8.38338C33.1155 9.69996 33.9951 10.5574 35.2556 10.5248C36.4553 10.4923 37.3105 9.54961 37.3024 8.26554Z" fill="url(#paint1_linear_705_490)"/>
<path d="M50.3087 14.0316C51.0018 14.0316 51.6341 14.0316 52.2664 14.0316C52.5136 15.718 54.3213 16.039 55.4561 15.5798C56.1492 15.2995 56.5343 14.7224 56.5221 14.0073C56.51 13.3205 56.1411 12.7923 55.4237 12.5566C55.0549 12.4347 54.6536 12.39 54.2605 12.3737C52.7163 12.3006 51.4355 11.7561 50.7384 10.2892C49.8913 8.50529 50.1385 5.70553 52.4933 4.56775C53.7417 3.96636 55.0225 3.92572 56.3357 4.54744C56.591 4.23455 56.8585 3.9054 57.1463 3.55594C57.6408 3.92978 58.115 4.28737 58.6257 4.6734C58.3176 5.06756 58.0258 5.44953 57.734 5.82338C59.1323 7.48941 58.7554 10.3623 56.9234 11.2969C56.9436 11.3254 56.9558 11.3579 56.9842 11.3741C58.4757 12.3128 58.954 13.8041 58.2771 15.4417C57.8556 16.4535 57.0895 17.0874 56.0641 17.4084C54.6172 17.8595 53.2107 17.766 51.9056 16.9533C50.8437 16.2991 50.3574 15.3035 50.3087 14.0316ZM54.455 10.5248C55.6831 10.5208 56.5789 9.58211 56.5789 8.29398C56.5829 6.92458 55.6872 5.95341 54.4307 5.95747C53.1986 5.96153 52.3028 6.92865 52.311 8.23709C52.3191 9.60649 53.1824 10.5289 54.455 10.5248Z" fill="#003C1B"/>
<path d="M50.3087 14.0316C51.0018 14.0316 51.6341 14.0316 52.2664 14.0316C52.5136 15.718 54.3213 16.039 55.4561 15.5798C56.1492 15.2995 56.5343 14.7224 56.5221 14.0073C56.51 13.3205 56.1411 12.7923 55.4237 12.5566C55.0549 12.4347 54.6536 12.39 54.2605 12.3737C52.7163 12.3006 51.4355 11.7561 50.7384 10.2892C49.8913 8.50529 50.1385 5.70553 52.4933 4.56775C53.7417 3.96636 55.0225 3.92572 56.3357 4.54744C56.591 4.23455 56.8585 3.9054 57.1463 3.55594C57.6408 3.92978 58.115 4.28737 58.6257 4.6734C58.3176 5.06756 58.0258 5.44953 57.734 5.82338C59.1323 7.48941 58.7554 10.3623 56.9234 11.2969C56.9436 11.3254 56.9558 11.3579 56.9842 11.3741C58.4757 12.3128 58.954 13.8041 58.2771 15.4417C57.8556 16.4535 57.0895 17.0874 56.0641 17.4084C54.6172 17.8595 53.2107 17.766 51.9056 16.9533C50.8437 16.2991 50.3574 15.3035 50.3087 14.0316ZM54.455 10.5248C55.6831 10.5208 56.5789 9.58211 56.5789 8.29398C56.5829 6.92458 55.6872 5.95341 54.4307 5.95747C53.1986 5.96153 52.3028 6.92865 52.311 8.23709C52.3191 9.60649 53.1824 10.5289 54.455 10.5248Z" fill="url(#paint2_linear_705_490)"/>
<path d="M47.0055 5.46985C47.0379 5.0635 47.0622 4.75061 47.0906 4.40521C47.7229 4.40521 48.3389 4.40521 48.9874 4.40521C48.9874 7.10744 48.9874 9.80967 48.9874 12.5363C48.3754 12.5363 47.7715 12.5363 47.1271 12.5363C47.0906 12.1868 47.0541 11.8374 47.0136 11.4391C46.2516 12.4672 45.2383 12.8451 44.0508 12.7923C42.8956 12.7435 41.8702 12.3615 41.1123 11.4473C40.2409 10.3908 40.0747 9.14326 40.1922 7.83074C40.4314 5.21385 42.9808 3.53969 45.4815 4.35239C46.0814 4.54337 46.5799 4.88064 47.0055 5.46985ZM42.1823 8.46059C42.1985 9.95189 43.1793 10.9596 44.602 10.9515C45.9922 10.9434 46.9852 9.895 46.9771 8.4484C46.969 6.99366 45.9679 5.96966 44.5696 5.98592C43.1469 5.99811 42.1661 7.01398 42.1823 8.46059Z" fill="#003C1B"/>
<path d="M47.0055 5.46985C47.0379 5.0635 47.0622 4.75061 47.0906 4.40521C47.7229 4.40521 48.3389 4.40521 48.9874 4.40521C48.9874 7.10744 48.9874 9.80967 48.9874 12.5363C48.3754 12.5363 47.7715 12.5363 47.1271 12.5363C47.0906 12.1868 47.0541 11.8374 47.0136 11.4391C46.2516 12.4672 45.2383 12.8451 44.0508 12.7923C42.8956 12.7435 41.8702 12.3615 41.1123 11.4473C40.2409 10.3908 40.0747 9.14326 40.1922 7.83074C40.4314 5.21385 42.9808 3.53969 45.4815 4.35239C46.0814 4.54337 46.5799 4.88064 47.0055 5.46985ZM42.1823 8.46059C42.1985 9.95189 43.1793 10.9596 44.602 10.9515C45.9922 10.9434 46.9852 9.895 46.9771 8.4484C46.969 6.99366 45.9679 5.96966 44.5696 5.98592C43.1469 5.99811 42.1661 7.01398 42.1823 8.46059Z" fill="url(#paint3_linear_705_490)"/>
<path d="M61.6209 9.17576C61.7384 10.0901 62.4234 10.7199 63.4083 10.8743C64.4175 11.0328 65.2606 10.8337 66.2414 10.1916C66.6467 10.6061 67.052 11.0247 67.5343 11.5245C67.0561 11.8048 66.6143 12.1299 66.1198 12.3372C64.8917 12.8573 63.615 12.9061 62.3342 12.5241C60.6198 12.008 59.5822 10.5736 59.5092 8.6597C59.3957 5.75023 61.5317 3.79975 64.4378 4.15328C66.6872 4.42959 67.9518 5.83557 67.9964 8.11113C68.0045 8.45246 67.9964 8.79379 67.9964 9.17576C65.8483 9.17576 63.7488 9.17576 61.6209 9.17576ZM66.0185 7.49754C65.9455 6.88801 65.6659 6.44103 65.1471 6.19722C64.2473 5.77461 63.3394 5.79493 62.4801 6.31912C62.0465 6.58325 61.7749 6.98147 61.6412 7.49754C63.1165 7.49754 64.5432 7.49754 66.0185 7.49754Z" fill="#003C1B"/>
<path d="M61.6209 9.17576C61.7384 10.0901 62.4234 10.7199 63.4083 10.8743C64.4175 11.0328 65.2606 10.8337 66.2414 10.1916C66.6467 10.6061 67.052 11.0247 67.5343 11.5245C67.0561 11.8048 66.6143 12.1299 66.1198 12.3372C64.8917 12.8573 63.615 12.9061 62.3342 12.5241C60.6198 12.008 59.5822 10.5736 59.5092 8.6597C59.3957 5.75023 61.5317 3.79975 64.4378 4.15328C66.6872 4.42959 67.9518 5.83557 67.9964 8.11113C68.0045 8.45246 67.9964 8.79379 67.9964 9.17576C65.8483 9.17576 63.7488 9.17576 61.6209 9.17576ZM66.0185 7.49754C65.9455 6.88801 65.6659 6.44103 65.1471 6.19722C64.2473 5.77461 63.3394 5.79493 62.4801 6.31912C62.0465 6.58325 61.7749 6.98147 61.6412 7.49754C63.1165 7.49754 64.5432 7.49754 66.0185 7.49754Z" fill="url(#paint4_linear_705_490)"/>
<path d="M29.715 12.5363C29.03 12.5363 28.3896 12.5363 27.7006 12.5363C27.7006 12.3128 27.7006 12.1137 27.7006 11.9146C27.7006 10.789 27.7006 9.66338 27.7006 8.53779C27.7006 8.37119 27.7006 8.20459 27.6804 8.04205C27.5425 6.74985 26.8008 6.04687 25.6295 6.09969C24.5271 6.14846 23.6678 7.05055 23.6475 8.23303C23.6273 9.46021 23.6435 10.6874 23.6435 11.9146C23.6435 12.1055 23.6435 12.2965 23.6435 12.5241C22.9869 12.5241 22.3465 12.5241 21.6696 12.5241C21.6696 9.82999 21.6696 7.11963 21.6696 4.3849C22.2452 4.3849 22.8126 4.3849 23.4246 4.3849C23.4773 4.7181 23.53 5.05944 23.5867 5.44547C23.7205 5.33169 23.8137 5.25042 23.911 5.16509C24.9567 4.27112 26.1442 3.9948 27.4412 4.45398C28.7504 4.91721 29.4353 5.94934 29.6137 7.27405C29.7353 8.18021 29.6988 9.11075 29.715 10.0291C29.7272 10.8581 29.715 11.687 29.715 12.5363Z" fill="#003C1B"/>
<path d="M29.715 12.5363C29.03 12.5363 28.3896 12.5363 27.7006 12.5363C27.7006 12.3128 27.7006 12.1137 27.7006 11.9146C27.7006 10.789 27.7006 9.66338 27.7006 8.53779C27.7006 8.37119 27.7006 8.20459 27.6804 8.04205C27.5425 6.74985 26.8008 6.04687 25.6295 6.09969C24.5271 6.14846 23.6678 7.05055 23.6475 8.23303C23.6273 9.46021 23.6435 10.6874 23.6435 11.9146C23.6435 12.1055 23.6435 12.2965 23.6435 12.5241C22.9869 12.5241 22.3465 12.5241 21.6696 12.5241C21.6696 9.82999 21.6696 7.11963 21.6696 4.3849C22.2452 4.3849 22.8126 4.3849 23.4246 4.3849C23.4773 4.7181 23.53 5.05944 23.5867 5.44547C23.7205 5.33169 23.8137 5.25042 23.911 5.16509C24.9567 4.27112 26.1442 3.9948 27.4412 4.45398C28.7504 4.91721 29.4353 5.94934 29.6137 7.27405C29.7353 8.18021 29.6988 9.11075 29.715 10.0291C29.7272 10.8581 29.715 11.687 29.715 12.5363Z" fill="url(#paint5_linear_705_490)"/>
<path d="M9.47794 10.8824C9.47794 11.4676 9.47794 12.0446 9.47794 12.6297C9.45362 12.6297 9.42931 12.6297 9.40904 12.6297C8.07152 12.6297 6.734 12.6338 5.39649 12.6297C5.0925 12.6297 4.78852 12.585 4.4967 12.4956C4.2981 12.4347 4.1076 12.3656 3.92116 12.2722C3.61313 12.1177 3.32941 11.9227 3.07407 11.6829C2.89573 11.5123 2.73361 11.3294 2.5958 11.1222C2.42963 10.8784 2.29993 10.6142 2.1986 10.3339C2.05674 9.93157 2 9.52116 2 9.09449C2 7.55849 2 6.02249 2 4.49055C2 4.4621 2 4.43366 2 4.40115C2.02432 4.40115 2.04458 4.39709 2.06485 4.39709C2.64039 4.39709 3.21593 4.39709 3.79146 4.39709C3.84821 4.39709 3.86037 4.41334 3.86037 4.46617C3.86037 5.89652 3.86037 7.32687 3.86037 8.76129C3.86037 8.98884 3.88063 9.2164 3.95359 9.43583C4.02249 9.64713 4.11976 9.84218 4.24946 10.021C4.3589 10.1713 4.48454 10.3054 4.6264 10.4233C4.7642 10.533 4.91417 10.6264 5.07629 10.6996C5.26679 10.7849 5.46134 10.8377 5.66399 10.8662C5.76937 10.8824 5.8788 10.8865 5.98418 10.8865C7.11905 10.8865 8.24986 10.8865 9.38472 10.8865C9.4212 10.8824 9.44552 10.8824 9.47794 10.8824Z" fill="#003C1B"/>
<path d="M9.47794 10.8824C9.47794 11.4676 9.47794 12.0446 9.47794 12.6297C9.45362 12.6297 9.42931 12.6297 9.40904 12.6297C8.07152 12.6297 6.734 12.6338 5.39649 12.6297C5.0925 12.6297 4.78852 12.585 4.4967 12.4956C4.2981 12.4347 4.1076 12.3656 3.92116 12.2722C3.61313 12.1177 3.32941 11.9227 3.07407 11.6829C2.89573 11.5123 2.73361 11.3294 2.5958 11.1222C2.42963 10.8784 2.29993 10.6142 2.1986 10.3339C2.05674 9.93157 2 9.52116 2 9.09449C2 7.55849 2 6.02249 2 4.49055C2 4.4621 2 4.43366 2 4.40115C2.02432 4.40115 2.04458 4.39709 2.06485 4.39709C2.64039 4.39709 3.21593 4.39709 3.79146 4.39709C3.84821 4.39709 3.86037 4.41334 3.86037 4.46617C3.86037 5.89652 3.86037 7.32687 3.86037 8.76129C3.86037 8.98884 3.88063 9.2164 3.95359 9.43583C4.02249 9.64713 4.11976 9.84218 4.24946 10.021C4.3589 10.1713 4.48454 10.3054 4.6264 10.4233C4.7642 10.533 4.91417 10.6264 5.07629 10.6996C5.26679 10.7849 5.46134 10.8377 5.66399 10.8662C5.76937 10.8824 5.8788 10.8865 5.98418 10.8865C7.11905 10.8865 8.24986 10.8865 9.38472 10.8865C9.4212 10.8824 9.44552 10.8824 9.47794 10.8824Z" fill="url(#paint6_linear_705_490)"/>
<path d="M7.86076 5.95747C7.86076 5.43328 7.86076 4.91721 7.86076 4.39302C7.88508 4.39302 7.90535 4.39302 7.92561 4.39302C8.44035 4.39302 8.9551 4.39302 9.46984 4.39302C9.53063 4.39302 9.54279 4.41334 9.54279 4.46617C9.54279 4.9416 9.53874 5.41296 9.54279 5.88839C9.54279 5.94528 9.52658 5.96153 9.46984 5.96153C8.95915 5.95747 8.44441 5.96153 7.93372 5.96153C7.9094 5.95747 7.88913 5.95747 7.86076 5.95747Z" fill="#003C1B"/>
<path d="M7.86076 5.95747C7.86076 5.43328 7.86076 4.91721 7.86076 4.39302C7.88508 4.39302 7.90535 4.39302 7.92561 4.39302C8.44035 4.39302 8.9551 4.39302 9.46984 4.39302C9.53063 4.39302 9.54279 4.41334 9.54279 4.46617C9.54279 4.9416 9.53874 5.41296 9.54279 5.88839C9.54279 5.94528 9.52658 5.96153 9.46984 5.96153C8.95915 5.95747 8.44441 5.96153 7.93372 5.96153C7.9094 5.95747 7.88913 5.95747 7.86076 5.95747Z" fill="url(#paint7_linear_705_490)"/>
<path d="M8.69975 7.80636C8.95915 7.80636 9.21449 7.80636 9.47389 7.80636C9.52658 7.80636 9.53874 7.82262 9.53874 7.87544C9.53874 8.32649 9.53874 8.77754 9.53874 9.22859C9.53874 9.27735 9.52658 9.2936 9.47389 9.2936C8.95509 9.2936 8.4363 9.2936 7.91345 9.2936C7.86481 9.2936 7.85266 9.27735 7.85266 9.23265C7.85266 8.77754 7.85266 8.32649 7.85266 7.87544C7.85266 7.82668 7.86481 7.81043 7.91751 7.81043C8.1769 7.80636 8.44035 7.80636 8.69975 7.80636Z" fill="#003C1B"/>
<path d="M8.69975 7.80636C8.95915 7.80636 9.21449 7.80636 9.47389 7.80636C9.52658 7.80636 9.53874 7.82262 9.53874 7.87544C9.53874 8.32649 9.53874 8.77754 9.53874 9.22859C9.53874 9.27735 9.52658 9.2936 9.47389 9.2936C8.95509 9.2936 8.4363 9.2936 7.91345 9.2936C7.86481 9.2936 7.85266 9.27735 7.85266 9.23265C7.85266 8.77754 7.85266 8.32649 7.85266 7.87544C7.85266 7.82668 7.86481 7.81043 7.91751 7.81043C8.1769 7.80636 8.44035 7.80636 8.69975 7.80636Z" fill="url(#paint8_linear_705_490)"/>
<defs>
<linearGradient id="paint0_linear_705_490" x1="4.76382" y1="1.62914" x2="13.0357" y2="33.5824" gradientUnits="userSpaceOnUse">
<stop stop-color="#00A86B"/>
<stop offset="1" stop-color="#003C1B"/>
</linearGradient>
<linearGradient id="paint1_linear_705_490" x1="4.76382" y1="1.62914" x2="13.0357" y2="33.5824" gradientUnits="userSpaceOnUse">
<stop stop-color="#00A86B"/>
<stop offset="1" stop-color="#003C1B"/>
</linearGradient>
<linearGradient id="paint2_linear_705_490" x1="4.76382" y1="1.62914" x2="13.0357" y2="33.5824" gradientUnits="userSpaceOnUse">
<stop stop-color="#00A86B"/>
<stop offset="1" stop-color="#003C1B"/>
</linearGradient>
<linearGradient id="paint3_linear_705_490" x1="4.76382" y1="1.62914" x2="13.0357" y2="33.5824" gradientUnits="userSpaceOnUse">
<stop stop-color="#00A86B"/>
<stop offset="1" stop-color="#003C1B"/>
</linearGradient>
<linearGradient id="paint4_linear_705_490" x1="4.76382" y1="1.62914" x2="13.0357" y2="33.5824" gradientUnits="userSpaceOnUse">
<stop stop-color="#00A86B"/>
<stop offset="1" stop-color="#003C1B"/>
</linearGradient>
<linearGradient id="paint5_linear_705_490" x1="4.76382" y1="1.62914" x2="13.0357" y2="33.5824" gradientUnits="userSpaceOnUse">
<stop stop-color="#00A86B"/>
<stop offset="1" stop-color="#003C1B"/>
</linearGradient>
<linearGradient id="paint6_linear_705_490" x1="4.76382" y1="1.62914" x2="13.0357" y2="33.5824" gradientUnits="userSpaceOnUse">
<stop stop-color="#00A86B"/>
<stop offset="1" stop-color="#003C1B"/>
</linearGradient>
<linearGradient id="paint7_linear_705_490" x1="4.76382" y1="1.62914" x2="13.0357" y2="33.5824" gradientUnits="userSpaceOnUse">
<stop stop-color="#00A86B"/>
<stop offset="1" stop-color="#003C1B"/>
</linearGradient>
<linearGradient id="paint8_linear_705_490" x1="4.76382" y1="1.62914" x2="13.0357" y2="33.5824" gradientUnits="userSpaceOnUse">
<stop stop-color="#00A86B"/>
<stop offset="1" stop-color="#003C1B"/>
</linearGradient>
</defs>
</svg>
