<svg width="77" height="72" viewBox="0 0 77 72" fill="none" xmlns="http://www.w3.org/2000/svg">
<path d="M75.672 9.70817V57.1862C75.672 59.1122 74.112 60.6722 72.186 60.6722H4.60801C2.68201 60.6722 1.12201 59.1122 1.12201 57.1862V9.70817C1.12201 7.78217 2.68201 6.22217 4.60801 6.22217H72.186C74.112 6.22217 75.672 7.78217 75.672 9.70817Z" fill="#F8A052"/>
<path d="M75.672 4.60807V52.0861C75.672 54.0121 74.112 55.5721 72.186 55.5721H4.60801C2.68201 55.5721 1.12201 54.0121 1.12201 52.0861V4.60807C1.12201 2.68207 2.68201 1.12207 4.60801 1.12207H72.186C74.112 1.12207 75.672 2.68207 75.672 4.60807Z" fill="#FCC58B"/>
<path d="M26.454 52.0921V4.60807C26.454 2.68207 28.014 1.12207 29.94 1.12207H4.60801C2.68201 1.12207 1.12201 2.68207 1.12201 4.60807V52.0861C1.12201 54.0121 2.68201 55.5721 4.60801 55.5721H29.94C28.014 55.5721 26.454 54.0121 26.454 52.0921Z" fill="#F9AA5C"/>
<path d="M48.6 18.4202C48.6 23.3582 43.944 27.6662 40.95 29.9282V69.5402C40.95 69.8762 40.68 70.1402 40.35 70.1402H36.612C36.282 70.1402 36.012 69.8702 36.012 69.5402V29.9282C33.018 27.6662 28.362 23.3642 28.362 18.4202C28.362 11.1362 32.892 5.23218 38.484 5.23218C44.076 5.23218 48.6 11.1362 48.6 18.4202Z" fill="#D67728"/>
<path d="M38.688 26.9342C38.562 27.0302 38.388 27.0302 38.262 26.9342C34.404 24.0242 32.1 20.8442 32.1 18.4202C32.1 13.3022 35.016 8.98218 38.472 8.98218C41.928 8.98218 44.844 13.3022 44.844 18.4202C44.85 20.8442 42.546 24.0242 38.688 26.9342Z" fill="#9CB43B"/>
<path d="M38.472 8.98218C36.672 8.98218 35.022 10.1582 33.846 12.0002C34.542 11.6042 35.292 11.3822 36.066 11.3822C39.522 11.3822 42.438 15.7022 42.438 20.8202C42.438 22.2722 41.61 24.0002 40.116 25.7762C43.104 23.2022 44.844 20.5202 44.844 18.4202C44.85 13.3022 41.928 8.98218 38.472 8.98218Z" fill="#C9BF3F"/>
<path d="M66.15 38.0701C66.15 43.0081 61.494 47.3161 58.5 49.5781V69.5221C58.5 69.8581 58.23 70.1221 57.9 70.1221H54.162C53.832 70.1221 53.562 69.8521 53.562 69.5221V49.5781C50.556 47.3161 45.9 43.0141 45.9 38.0701C45.9 30.7861 50.43 24.8821 56.022 24.8821C61.614 24.8821 66.15 30.7861 66.15 38.0701Z" fill="#D67728"/>
<path d="M56.238 46.5841C56.112 46.6801 55.938 46.6801 55.812 46.5841C51.954 43.6741 49.65 40.4941 49.65 38.0701C49.65 32.9521 52.566 28.6321 56.022 28.6321C59.478 28.6321 62.394 32.9521 62.394 38.0701C62.4 40.4941 60.096 43.6741 56.238 46.5841Z" fill="#FAD2D9"/>
<path d="M56.022 28.6321C54.228 28.6321 52.584 29.7961 51.408 31.6321C52.11 31.2301 52.866 31.0021 53.646 31.0021C57.102 31.0021 60.018 35.3221 60.018 40.4401C60.018 41.8981 59.184 43.6261 57.678 45.4081C60.654 42.8401 62.388 40.1641 62.388 38.0641C62.4 32.9521 59.478 28.6321 56.022 28.6321Z" fill="#F7B8C5"/>
<path d="M31.05 38.0701C31.05 43.0081 26.394 47.3161 23.4 49.5781V69.5221C23.4 69.8581 23.13 70.1221 22.8 70.1221H19.062C18.732 70.1221 18.462 69.8521 18.462 69.5221V49.5781C15.456 47.3161 10.8 43.0141 10.8 38.0701C10.8 30.7861 15.33 24.8821 20.922 24.8821C26.514 24.8821 31.05 30.7861 31.05 38.0701Z" fill="#D67728"/>
<path d="M39.228 69.54V31.434C39.228 30.504 38.808 29.622 38.094 29.034C35.184 26.634 31.578 22.776 31.578 18.426C31.578 11.856 35.262 6.40804 40.092 5.40604C39.564 5.29804 39.03 5.23804 38.478 5.23804C32.886 5.23804 28.356 11.142 28.356 18.426C28.356 23.364 33.012 27.672 36.006 29.934V69.546C36.006 69.882 36.276 70.146 36.606 70.146H39.828C39.498 70.14 39.228 69.87 39.228 69.54Z" fill="#C65A2E"/>
<path d="M56.778 69.5221V49.5781C53.784 47.3161 49.128 43.0141 49.128 38.0701C49.128 31.5001 52.812 26.0521 57.642 25.0501C57.114 24.9421 56.58 24.8821 56.028 24.8821C50.436 24.8821 45.906 30.7861 45.906 38.0701C45.906 43.0081 50.562 47.3161 53.556 49.5781V69.5221C53.556 69.8581 53.826 70.1221 54.156 70.1221H57.378C57.048 70.1221 56.778 69.8521 56.778 69.5221Z" fill="#C65A2E"/>
<path d="M21.678 69.5221V51.6301C21.678 50.3761 21.132 49.1881 20.184 48.3781C17.346 45.9601 14.028 42.2401 14.028 38.0701C14.028 31.5001 17.712 26.0521 22.542 25.0501C22.014 24.9421 21.48 24.8821 20.928 24.8821C15.33 24.8821 10.8 30.7861 10.8 38.0701C10.8 43.0081 15.456 47.3161 18.45 49.5781V69.5221C18.45 69.8581 18.72 70.1221 19.05 70.1221H22.272C21.948 70.1221 21.678 69.8521 21.678 69.5221Z" fill="#C65A2E"/>
<path d="M27.3 38.0701C27.3 40.4881 24.996 43.6741 21.138 46.5841L20.928 46.7461L20.718 46.5841C16.854 43.6741 14.55 40.4941 14.55 38.0701C14.55 32.9521 17.466 28.6321 20.922 28.6321C24.378 28.6321 27.3 32.9521 27.3 38.0701Z" fill="#801518"/>
<path d="M51.972 34.4221C52.884 34.4221 53.622 35.1601 53.622 36.0721C53.622 36.9841 52.884 37.7221 51.972 37.7221C51.06 37.7221 50.322 36.9841 50.322 36.0721C50.322 35.1601 51.06 34.4221 51.972 34.4221Z" fill="#EF555E"/>
<path d="M55.872 29.322C56.784 29.322 57.522 30.06 57.522 30.972C57.522 31.884 56.784 32.622 55.872 32.622C54.96 32.622 54.222 31.884 54.222 30.972C54.222 30.06 54.96 29.322 55.872 29.322Z" fill="#EF555E"/>
<path d="M65.022 20.322C65.934 20.322 66.672 21.06 66.672 21.972C66.672 22.884 65.934 23.622 65.022 23.622C64.11 23.622 63.372 22.884 63.372 21.972C63.372 21.06 64.11 20.322 65.022 20.322Z" fill="#EF555E"/>
<path d="M70.722 12.822C71.634 12.822 72.372 13.56 72.372 14.472C72.372 15.384 71.634 16.122 70.722 16.122C69.81 16.122 69.072 15.384 69.072 14.472C69.072 13.56 69.81 12.822 70.722 12.822Z" fill="#EF555E"/>
<path d="M71.322 29.322C72.234 29.322 72.972 30.06 72.972 30.972C72.972 31.884 72.234 32.622 71.322 32.622C70.41 32.622 69.672 31.884 69.672 30.972C69.672 30.06 70.41 29.322 71.322 29.322Z" fill="#EF555E"/>
<path d="M70.272 42.3721C71.184 42.3721 71.922 43.1101 71.922 44.0221C71.922 44.9341 71.184 45.6721 70.272 45.6721C69.36 45.6721 68.622 44.9341 68.622 44.0221C68.622 43.1101 69.36 42.3721 70.272 42.3721Z" fill="#EF555E"/>
<path d="M58.572 34.4221C59.484 34.4221 60.222 35.1601 60.222 36.0721C60.222 36.9841 59.484 37.7221 58.572 37.7221C57.66 37.7221 56.922 36.9841 56.922 36.0721C56.922 35.1601 57.66 34.4221 58.572 34.4221Z" fill="#EF555E"/>
<path d="M56.022 39.3721C56.934 39.3721 57.672 40.1101 57.672 41.0221C57.672 41.9341 56.934 42.6721 56.022 42.6721C55.11 42.6721 54.372 41.9341 54.372 41.0221C54.372 40.1101 55.11 39.3721 56.022 39.3721Z" fill="#EF555E"/>
<path d="M26.994 35.2501C27.192 36.1441 27.3 37.0921 27.3 38.0701C27.3 40.4881 24.996 43.6741 21.138 46.5841C21.012 46.6801 20.838 46.6801 20.712 46.5841C16.854 43.6741 14.55 40.4941 14.55 38.0701C14.55 36.7861 14.736 35.5501 15.066 34.4221L16.962 36.4981C17.568 37.1641 18.612 37.1881 19.248 36.5521C19.956 35.8441 21.144 35.9641 21.69 36.8101L21.912 37.1521C22.428 37.9381 23.508 38.1061 24.24 37.5121L26.994 35.2501Z" fill="#FCB630"/>
<path d="M45.972 18.4201C45.972 15.7261 45.234 13.1401 43.89 11.1541C42.474 9.06011 40.5 7.86011 38.472 7.86011C36.444 7.86011 34.47 9.06011 33.054 11.1541C31.71 13.1461 30.972 15.7261 30.972 18.4201C30.972 21.2341 33.378 24.6661 37.578 27.8281L37.8 27.9901C37.998 28.1401 38.238 28.2181 38.478 28.2181C38.718 28.2181 38.952 28.1401 39.156 27.9901L39.366 27.8341C43.566 24.6661 45.972 21.2341 45.972 18.4201ZM38.472 25.6801C35.22 23.1241 33.222 20.3701 33.222 18.4261C33.222 13.9981 35.676 10.1101 38.472 10.1101C41.268 10.1101 43.722 13.9981 43.722 18.4261C43.722 20.3701 41.724 23.1181 38.472 25.6801Z" fill="black"/>
<path d="M63.522 38.07C63.522 35.376 62.784 32.79 61.44 30.804C60.024 28.71 58.05 27.51 56.022 27.51C53.994 27.51 52.02 28.71 50.604 30.804C49.26 32.796 48.522 35.376 48.522 38.07C48.522 40.884 50.928 44.316 55.128 47.478L55.344 47.64C55.542 47.79 55.782 47.868 56.022 47.868C56.262 47.868 56.496 47.79 56.7 47.64L56.916 47.478C61.116 44.316 63.522 40.884 63.522 38.07ZM55.872 30.45C56.16 30.45 56.4 30.684 56.4 30.978C56.4 31.266 56.166 31.5 55.872 31.5C55.578 31.5 55.344 31.266 55.344 30.978C55.35 30.684 55.584 30.45 55.872 30.45ZM51.972 35.55C52.26 35.55 52.5 35.784 52.5 36.072C52.5 36.36 52.266 36.6 51.972 36.6C51.678 36.6 51.45 36.366 51.45 36.072C51.45 35.778 51.684 35.55 51.972 35.55ZM56.022 45.33C53.052 42.99 51.126 40.494 50.82 38.598C51.174 38.76 51.564 38.85 51.972 38.85C53.502 38.85 54.744 37.608 54.744 36.078C54.744 34.548 53.502 33.306 51.972 33.306C51.906 33.306 51.846 33.312 51.78 33.318C52.146 32.52 52.596 31.818 53.112 31.254C53.25 32.658 54.432 33.762 55.872 33.762C57.402 33.762 58.644 32.52 58.644 30.99C58.644 30.984 58.644 30.972 58.644 30.966C59.472 31.758 60.162 32.898 60.63 34.236C60.12 33.672 59.388 33.312 58.572 33.312C57.042 33.312 55.8 34.554 55.8 36.084C55.8 37.614 57.042 38.856 58.572 38.856C59.808 38.856 60.858 38.04 61.218 36.924C61.254 37.302 61.272 37.686 61.272 38.076C61.272 40.02 59.274 42.768 56.022 45.33ZM59.1 36.072C59.1 36.36 58.866 36.6 58.578 36.6C58.29 36.6 58.05 36.366 58.05 36.072C58.05 35.778 58.284 35.55 58.578 35.55C58.866 35.55 59.1 35.784 59.1 36.072Z" fill="black"/>
<path d="M28.422 38.07C28.422 35.376 27.684 32.79 26.34 30.804C24.924 28.71 22.95 27.51 20.922 27.51C18.894 27.51 16.92 28.71 15.504 30.804C14.16 32.796 13.422 35.376 13.422 38.07C13.422 40.884 15.828 44.316 20.028 47.478L20.244 47.64C20.442 47.79 20.682 47.868 20.922 47.868C21.162 47.868 21.396 47.79 21.6 47.64L21.816 47.478C26.016 44.316 28.422 40.884 28.422 38.07ZM20.922 29.754C23.004 29.754 24.894 31.908 25.722 34.83L23.52 36.63C23.382 36.744 23.238 36.738 23.16 36.726C23.082 36.714 22.944 36.672 22.848 36.522L22.626 36.18C22.176 35.496 21.456 35.052 20.64 34.968C19.824 34.884 19.026 35.166 18.444 35.748C18.324 35.868 18.186 35.886 18.108 35.88C18.036 35.88 17.898 35.856 17.778 35.73L16.326 34.14C17.256 31.578 19.008 29.754 20.922 29.754ZM20.922 45.33C17.67 42.774 15.672 40.02 15.672 38.076C15.672 37.656 15.696 37.242 15.738 36.84L16.128 37.266C16.626 37.812 17.328 38.13 18.066 38.148C18.804 38.166 19.524 37.878 20.04 37.356C20.172 37.224 20.328 37.218 20.412 37.224C20.49 37.23 20.646 37.272 20.748 37.428L20.97 37.77C21.39 38.412 22.068 38.85 22.824 38.964C22.962 38.988 23.1 38.994 23.238 38.994C23.862 38.994 24.468 38.778 24.954 38.382L26.154 37.398C26.166 37.62 26.172 37.848 26.172 38.076C26.172 40.02 24.174 42.768 20.922 45.33Z" fill="black"/>
<path d="M72.192 0H4.608C2.07 0 0 2.07 0 4.608V57.192C0 59.736 2.07 61.8 4.608 61.8H17.328V70.122C17.328 70.746 17.832 71.244 18.45 71.244H23.394C24.018 71.244 24.516 70.74 24.516 70.122V61.8H34.872V70.146C34.872 70.77 35.376 71.268 35.994 71.268H40.938C41.562 71.268 42.06 70.764 42.06 70.146V61.8H52.416V70.122C52.416 70.746 52.92 71.244 53.544 71.244H58.488C59.112 71.244 59.61 70.74 59.61 70.122V61.8H72.18C74.724 61.8 76.788 59.73 76.788 57.192V4.608C76.8 2.07 74.73 0 72.192 0ZM4.608 59.55C3.306 59.55 2.25 58.494 2.25 57.192V56.052C2.262 56.058 2.274 56.064 2.286 56.076C2.346 56.112 2.412 56.148 2.472 56.178C2.496 56.19 2.52 56.202 2.544 56.214C2.61 56.244 2.676 56.28 2.742 56.304C2.76 56.31 2.778 56.322 2.796 56.328C2.88 56.364 2.964 56.394 3.048 56.43C3.072 56.436 3.09 56.448 3.114 56.454C3.18 56.478 3.246 56.496 3.312 56.52C3.342 56.526 3.366 56.538 3.39 56.544C3.468 56.568 3.546 56.586 3.624 56.604C3.636 56.604 3.648 56.61 3.66 56.61C3.75 56.628 3.84 56.646 3.936 56.658C3.96 56.664 3.99 56.664 4.014 56.67C4.086 56.676 4.158 56.688 4.23 56.694C4.26 56.694 4.284 56.7 4.314 56.7C4.41 56.706 4.506 56.712 4.602 56.712H17.322V59.562L4.608 59.55ZM22.272 69H19.578V49.578C19.578 49.224 19.41 48.894 19.128 48.678C16.434 46.65 11.922 42.57 11.922 38.07C11.922 31.416 15.96 26.004 20.922 26.004C25.884 26.004 29.922 31.416 29.922 38.07C29.922 42.57 25.41 46.65 22.716 48.678C22.434 48.888 22.266 49.224 22.266 49.578L22.272 69ZM24.522 59.55V56.7H34.878V59.55H24.522ZM39.822 69.018H37.128V47.25C37.128 46.626 36.624 46.128 36.006 46.128C35.388 46.128 34.884 46.632 34.884 47.25V54.45H24.522V50.13C27.576 47.748 32.178 43.284 32.178 38.07C32.178 30.174 27.132 23.754 20.928 23.754C14.724 23.754 9.678 30.174 9.678 38.07C9.678 43.284 14.28 47.748 17.334 50.13V54.45H4.608C3.306 54.45 2.25 53.394 2.25 52.092V4.608C2.25 3.306 3.306 2.25 4.608 2.25H72.192C73.494 2.25 74.55 3.306 74.55 4.608V52.092C74.55 53.394 73.494 54.45 72.192 54.45H59.622V50.13C62.676 47.748 67.278 43.284 67.278 38.07C67.278 30.174 62.232 23.754 56.028 23.754C49.824 23.754 44.778 30.174 44.778 38.07C44.778 43.284 49.38 47.748 52.434 50.13V54.45H42.072V30.48C45.126 28.098 49.728 23.634 49.728 18.42C49.728 10.524 44.682 4.104 38.478 4.104C32.274 4.104 27.228 10.524 27.228 18.42C27.228 23.634 31.83 28.098 34.884 30.48V42.75C34.884 43.374 35.388 43.878 36.006 43.878C36.624 43.878 37.128 43.374 37.128 42.75V29.928C37.128 29.574 36.96 29.244 36.678 29.028C33.984 27 29.472 22.92 29.472 18.42C29.472 11.766 33.51 6.354 38.472 6.354C43.434 6.354 47.472 11.766 47.472 18.42C47.472 22.92 42.96 27 40.266 29.028C39.984 29.238 39.816 29.574 39.816 29.928L39.822 69.018ZM42.072 59.55V56.7H52.428V59.55H42.072ZM57.372 69H54.678V49.578C54.678 49.224 54.51 48.894 54.228 48.678C51.534 46.65 47.022 42.57 47.022 38.07C47.022 31.416 51.06 26.004 56.022 26.004C60.984 26.004 65.022 31.416 65.022 38.07C65.022 42.57 60.51 46.65 57.816 48.678C57.534 48.888 57.366 49.224 57.366 49.578L57.372 69ZM74.55 57.192C74.55 58.494 73.494 59.55 72.192 59.55H59.622V56.7H72.192C72.288 56.7 72.384 56.694 72.48 56.688C72.51 56.688 72.534 56.682 72.564 56.682C72.636 56.676 72.708 56.67 72.78 56.658C72.804 56.652 72.834 56.652 72.858 56.646C72.948 56.634 73.044 56.616 73.134 56.598C73.146 56.598 73.158 56.592 73.17 56.592C73.248 56.574 73.326 56.556 73.404 56.532C73.434 56.526 73.458 56.514 73.488 56.508C73.554 56.49 73.62 56.466 73.686 56.442C73.71 56.436 73.728 56.43 73.752 56.418C73.836 56.388 73.92 56.352 74.004 56.316C74.022 56.31 74.04 56.298 74.058 56.292C74.124 56.262 74.19 56.232 74.256 56.202C74.28 56.19 74.304 56.178 74.328 56.166C74.394 56.13 74.454 56.1 74.514 56.064C74.526 56.058 74.538 56.052 74.55 56.04V57.192Z" fill="black"/>
<path d="M65.022 24.7501C66.552 24.7501 67.794 23.5081 67.794 21.9781C67.794 20.4481 66.552 19.2061 65.022 19.2061C63.492 19.2061 62.25 20.4481 62.25 21.9781C62.25 23.5081 63.492 24.7501 65.022 24.7501ZM65.022 21.4501C65.31 21.4501 65.55 21.6841 65.55 21.9781C65.55 22.2721 65.316 22.5061 65.022 22.5061C64.728 22.5061 64.494 22.2721 64.494 21.9781C64.494 21.6841 64.734 21.4501 65.022 21.4501Z" fill="black"/>
<path d="M70.722 17.2501C72.252 17.2501 73.494 16.0081 73.494 14.4781C73.494 12.9481 72.252 11.7061 70.722 11.7061C69.192 11.7061 67.95 12.9481 67.95 14.4781C67.95 16.0081 69.192 17.2501 70.722 17.2501ZM70.722 13.9501C71.01 13.9501 71.244 14.1841 71.244 14.4781C71.244 14.7661 71.01 15.0001 70.722 15.0001C70.434 15.0001 70.194 14.7661 70.194 14.4781C70.2 14.1841 70.434 13.9501 70.722 13.9501Z" fill="black"/>
<path d="M71.322 28.2002C69.792 28.2002 68.55 29.4422 68.55 30.9722C68.55 32.5022 69.792 33.7442 71.322 33.7442C72.852 33.7442 74.094 32.5022 74.094 30.9722C74.1 29.4422 72.858 28.2002 71.322 28.2002ZM71.322 31.5002C71.034 31.5002 70.8 31.2662 70.8 30.9782C70.8 30.6902 71.034 30.4502 71.322 30.4502C71.61 30.4502 71.85 30.6842 71.85 30.9782C71.85 31.2662 71.616 31.5002 71.322 31.5002Z" fill="black"/>
<path d="M70.272 41.25C68.742 41.25 67.5 42.492 67.5 44.022C67.5 45.552 68.742 46.794 70.272 46.794C71.802 46.794 73.044 45.552 73.044 44.022C73.05 42.492 71.808 41.25 70.272 41.25ZM70.272 44.55C69.984 44.55 69.744 44.316 69.744 44.022C69.744 43.728 69.978 43.494 70.272 43.494C70.566 43.494 70.8 43.734 70.8 44.022C70.8 44.31 70.566 44.55 70.272 44.55Z" fill="black"/>
<path d="M56.022 38.25C54.492 38.25 53.25 39.492 53.25 41.022C53.25 42.552 54.492 43.794 56.022 43.794C57.552 43.794 58.794 42.552 58.794 41.022C58.794 39.492 57.558 38.25 56.022 38.25ZM56.022 41.55C55.734 41.55 55.494 41.316 55.494 41.022C55.494 40.728 55.728 40.494 56.022 40.494C56.316 40.494 56.544 40.728 56.544 41.022C56.544 41.316 56.316 41.55 56.022 41.55Z" fill="black"/>
<path d="M36.432 13.71L37.782 14.76C37.986 14.922 38.232 15 38.472 15C38.808 15 39.138 14.85 39.36 14.568C39.744 14.076 39.654 13.368 39.162 12.99L37.812 11.94C37.32 11.556 36.618 11.646 36.234 12.138C35.856 12.624 35.946 13.332 36.432 13.71Z" fill="black"/>
<path d="M38.478 18.9001C38.61 18.9001 38.742 18.8761 38.874 18.8281L40.074 18.3781C40.656 18.1621 40.95 17.5141 40.734 16.9321C40.518 16.3501 39.87 16.0561 39.288 16.2721L38.088 16.7221C37.506 16.9381 37.212 17.5861 37.428 18.1681C37.59 18.6241 38.022 18.9001 38.478 18.9001Z" fill="black"/>
<path d="M36.438 16.716C36.348 16.098 35.778 15.672 35.166 15.762C34.548 15.852 34.122 16.422 34.212 17.034L34.512 19.134C34.59 19.698 35.076 20.1 35.622 20.1C35.676 20.1 35.73 20.094 35.784 20.088C36.402 19.998 36.828 19.428 36.738 18.816L36.438 16.716Z" fill="black"/>
<path d="M39.144 19.5662L37.644 21.2162C37.224 21.6782 37.26 22.3862 37.722 22.8062C37.938 23.0042 38.208 23.1002 38.478 23.1002C38.784 23.1002 39.09 22.9742 39.312 22.7342L40.812 21.0842C41.232 20.6222 41.196 19.9142 40.734 19.4942C40.272 19.0742 39.558 19.1102 39.144 19.5662Z" fill="black"/>
<path d="M42.78 14.6461L42.03 14.0461C41.544 13.6561 40.836 13.7341 40.446 14.2201C40.056 14.7061 40.134 15.4141 40.62 15.8041L41.37 16.4041C41.58 16.5721 41.826 16.6501 42.072 16.6501C42.402 16.6501 42.732 16.5061 42.954 16.2301C43.344 15.7441 43.26 15.0361 42.78 14.6461Z" fill="black"/>
<path d="M48.288 7.73417L49.938 8.33417C50.064 8.38217 50.196 8.40017 50.322 8.40017C50.784 8.40017 51.216 8.11817 51.378 7.66217C51.588 7.08017 51.288 6.43217 50.706 6.22217L49.056 5.62217C48.474 5.41217 47.826 5.71217 47.616 6.29417C47.406 6.87617 47.706 7.51817 48.288 7.73417Z" fill="black"/>
<path d="M50.436 10.746C50.652 11.07 51.012 11.25 51.372 11.25C51.588 11.25 51.804 11.19 51.996 11.058L53.796 9.85799C54.312 9.51599 54.45 8.81399 54.108 8.29799C53.766 7.78199 53.064 7.64399 52.548 7.98599L50.748 9.18599C50.232 9.53399 50.094 10.23 50.436 10.746Z" fill="black"/>
<path d="M53.274 15.8941L51.924 15.1441C51.378 14.8441 50.694 15.0361 50.394 15.5821C50.094 16.1281 50.286 16.8121 50.832 17.1121L52.182 17.8621C52.356 17.9581 52.542 18.0061 52.728 18.0061C53.124 18.0061 53.508 17.7961 53.712 17.4301C54.012 16.8781 53.814 16.1941 53.274 15.8941Z" fill="black"/>
<path d="M28.428 7.80021C28.656 7.80021 28.884 7.73421 29.082 7.59021C29.586 7.23021 29.706 6.52821 29.346 6.01821L28.596 4.96821C28.236 4.46421 27.534 4.34421 27.024 4.70421C26.52 5.06421 26.4 5.76621 26.76 6.27621L27.51 7.32621C27.732 7.63821 28.074 7.80021 28.428 7.80021Z" fill="black"/>
<path d="M25.476 9.21004C24.972 8.85004 24.27 8.96404 23.904 9.47404L23.154 10.524C22.794 11.028 22.908 11.73 23.418 12.096C23.616 12.24 23.844 12.306 24.072 12.306C24.426 12.306 24.768 12.144 24.99 11.832L25.74 10.782C26.1 10.272 25.986 9.57004 25.476 9.21004Z" fill="black"/>
<path d="M22.812 16.122C22.398 15.66 21.684 15.624 21.222 16.038C20.76 16.452 20.724 17.166 21.138 17.628L22.488 19.128C22.71 19.374 23.016 19.5 23.322 19.5C23.592 19.5 23.862 19.404 24.072 19.212C24.534 18.798 24.57 18.084 24.156 17.622L22.812 16.122Z" fill="black"/>
<path d="M21.618 13.7102C22.11 13.3262 22.194 12.6242 21.816 12.1322L20.766 10.7822C20.382 10.2902 19.68 10.2062 19.188 10.5842C18.696 10.9682 18.612 11.6702 18.99 12.1622L20.04 13.5122C20.262 13.8002 20.592 13.9442 20.928 13.9442C21.168 13.9502 21.408 13.8722 21.618 13.7102Z" fill="black"/>
</svg>
