<svg width="77" height="78" viewBox="0 0 77 78" fill="none" xmlns="http://www.w3.org/2000/svg">
<path d="M65.652 37.3788C65.652 28.4868 58.44 21.2748 49.548 21.2748C49.476 21.2748 49.41 21.2868 49.338 21.2868C49.464 20.4708 49.548 19.6488 49.548 18.7968C49.548 9.90479 42.336 2.69279 33.444 2.69279C30.942 2.69279 28.584 3.28079 26.472 4.30079C23.874 2.51279 20.736 1.45679 17.34 1.45679C8.44802 1.45679 1.23602 8.66879 1.23602 17.5608C1.23602 22.5408 3.49802 26.9928 7.05002 29.9448C3.50402 32.9028 1.24202 37.3488 1.24202 42.3348C1.24202 45.5328 2.18402 48.5028 3.79202 51.0048C2.18402 53.5068 1.24202 56.4828 1.24202 59.6748C1.24202 68.5668 8.45402 75.7788 17.346 75.7788C20.544 75.7788 23.514 74.8368 26.016 73.2288C28.518 74.8368 31.494 75.7788 34.686 75.7788C41.406 75.7788 47.16 71.6568 49.572 65.8068C57.876 65.1588 64.41 58.2348 64.41 49.7688C64.41 48.1308 64.164 46.5468 63.708 45.0588C64.95 42.7728 65.652 40.1568 65.652 37.3788Z" fill="#FADFB2"/>
<path d="M51.432 10.847L18.06 44.2189C17.1 45.1789 17.1 46.7329 18.06 47.6929L29.328 58.955C30.288 59.915 31.842 59.915 32.802 58.955L66.174 25.583C67.134 24.623 67.134 23.069 66.174 22.109L54.906 10.847C53.946 9.88695 52.392 9.88695 51.432 10.847Z" fill="#C18E59"/>
<path d="M55.584 11.5248L57.708 9.40077C58.674 8.43477 60.246 8.43477 61.212 9.40077L67.62 15.8088C68.586 16.7748 68.586 18.3468 67.62 19.3128L65.496 21.4308" fill="#976947"/>
<path d="M61.938 10.1268L69.732 2.33279C70.296 1.76879 71.052 1.45679 71.844 1.45679C72.636 1.45679 73.398 1.76879 73.956 2.33279L74.682 3.05879C75.246 3.62279 75.558 4.37879 75.558 5.17079C75.558 5.96279 75.246 6.72479 74.682 7.28279L66.888 15.0768" fill="#FADFB2"/>
<path d="M18.738 48.3708L16.614 50.4949C15.648 51.4609 15.648 53.0328 16.614 53.9988L23.022 60.4068C23.988 61.3728 25.56 61.3728 26.526 60.4068L28.644 58.2828" fill="#976947"/>
<path d="M17.34 54.7188L9.54601 62.5128C8.98201 63.0768 8.67001 63.8328 8.67001 64.6248C8.67001 65.4168 8.98201 66.1788 9.54601 66.7368L10.272 67.4628C10.836 68.0268 11.592 68.3388 12.384 68.3388C13.176 68.3388 13.938 68.0268 14.496 67.4628L22.296 59.6748" fill="#C18E59"/>
<path d="M59.46 75.7789C68.354 75.7789 75.564 70.7878 75.564 64.6309C75.564 58.474 68.354 53.4829 59.46 53.4829C50.566 53.4829 43.356 58.474 43.356 64.6309C43.356 70.7878 50.566 75.7789 59.46 75.7789Z" fill="#F5CF88"/>
<path d="M65.652 70.8229C64.284 70.8229 63.174 69.7129 63.174 68.3449C63.174 66.9769 64.284 65.8669 65.652 65.8669C67.02 65.8669 68.13 66.9769 68.13 68.3449C68.13 69.7129 67.014 70.8229 65.652 70.8229Z" fill="#FADFB2"/>
<path d="M58.218 73.2949C56.85 73.2949 55.74 72.1849 55.74 70.8169C55.74 69.4489 56.85 68.3389 58.218 68.3389C59.586 68.3389 60.696 69.4489 60.696 70.8169C60.696 72.1849 59.586 73.2949 58.218 73.2949Z" fill="#FADFB2"/>
<path d="M33.798 48.8749L56.094 26.5789L57.846 28.3309L35.55 50.6269L33.798 48.8749Z" fill="#976947"/>
<path d="M65.346 52.9908C65.544 51.9288 65.652 50.8488 65.652 49.7628C65.652 48.2148 65.448 46.6788 65.034 45.1848C66.246 42.7788 66.888 40.0908 66.888 37.3728C66.888 34.3728 66.108 31.4508 64.644 28.8588L67.044 26.4588C68.418 25.0848 68.466 22.9008 67.224 21.4488L68.49 20.1828C69.888 18.7848 69.924 16.5468 68.628 15.0888L75.564 8.15284C76.362 7.35484 76.8 6.29284 76.8 5.15884C76.8 4.02484 76.362 2.96884 75.564 2.16484L74.838 1.43884C73.242 -0.157156 70.458 -0.163156 68.856 1.43884L61.92 8.38684C60.462 7.09084 58.23 7.12684 56.832 8.52484L55.566 9.79084C54.144 8.59084 51.888 8.63884 50.556 9.97084L49.122 11.4048C46.284 5.38684 40.2 1.45084 33.444 1.45084C31.074 1.45084 28.77 1.93684 26.58 2.88484C23.808 1.13884 20.628 0.214844 17.34 0.214844C7.782 0.214844 0 7.99684 0 17.5548C0 22.2468 1.884 26.6868 5.208 29.9448C1.884 33.1968 0 37.6368 0 42.3288C0 45.3768 0.804 48.3588 2.334 50.9988C0.804 53.6448 0 56.6208 0 59.6748C0 69.2328 7.782 77.0148 17.34 77.0148C20.388 77.0148 23.37 76.2108 26.01 74.6808C28.65 76.2108 31.632 77.0148 34.68 77.0148C38.982 77.0148 43.026 75.4428 46.206 72.5988C49.392 75.2928 54.144 77.0088 59.454 77.0088C69.018 77.0088 76.794 71.4528 76.794 64.6248C76.8 59.2728 72.012 54.7188 65.346 52.9908ZM70.608 3.20884C71.274 2.54284 72.42 2.54284 73.086 3.20884L73.812 3.93484C74.142 4.26484 74.322 4.70284 74.322 5.17684C74.322 5.64484 74.142 6.08284 73.812 6.41284L66.894 13.3308L63.69 10.1268L70.608 3.20884ZM58.578 10.2768C59.046 9.80884 59.862 9.80884 60.33 10.2768L66.738 16.6848C67.224 17.1708 67.224 17.9508 66.738 18.4368L65.49 19.6848L57.33 11.5248L58.578 10.2768ZM52.308 11.7228C52.536 11.4888 52.842 11.3688 53.166 11.3688C53.49 11.3688 53.796 11.4948 54.024 11.7228L65.286 22.9848C65.514 23.2128 65.64 23.5188 65.64 23.8428C65.64 24.1668 65.514 24.4728 65.286 24.7008L31.926 58.0788C31.452 58.5528 30.678 58.5528 30.204 58.0788L18.936 46.8108C18.462 46.3368 18.462 45.5628 18.936 45.0888L52.308 11.7228ZM17.49 53.1168C17.256 52.8828 17.13 52.5708 17.13 52.2408C17.13 51.9108 17.256 51.5988 17.49 51.3648L18.738 50.1168L26.892 58.2708L25.644 59.5128C25.164 59.9988 24.378 59.9988 23.892 59.5128L17.49 53.1168ZM20.544 59.6748L13.626 66.5928C12.966 67.2588 11.814 67.2588 11.148 66.5928L10.422 65.8668C10.086 65.5368 9.906 65.0988 9.906 64.6248C9.906 64.1628 10.092 63.7128 10.422 63.3888L17.34 56.4708L20.544 59.6748ZM34.686 74.5368C31.848 74.5368 29.082 73.7208 26.682 72.1848C26.274 71.9208 25.752 71.9208 25.344 72.1848C22.944 73.7208 20.178 74.5368 17.34 74.5368C9.144 74.5368 2.478 67.8648 2.478 59.6748C2.478 56.8368 3.294 54.0708 4.83 51.6708C5.094 51.2628 5.088 50.7408 4.83 50.3328C3.288 47.9328 2.478 45.1668 2.478 42.3288C2.478 37.9008 4.434 33.7308 7.848 30.8928C8.13 30.6588 8.298 30.3108 8.292 29.9388C8.292 29.5728 8.13 29.2248 7.848 28.9848C4.434 26.1528 2.478 21.9888 2.478 17.5548C2.478 9.35884 9.144 2.69284 17.34 2.69284C20.364 2.69284 23.274 3.59884 25.764 5.32084C26.13 5.57284 26.604 5.61484 27.006 5.41684C29.046 4.43284 31.212 3.93484 33.444 3.93484C39.54 3.93484 44.994 7.66684 47.238 13.2888L17.184 43.3368C15.81 44.7108 15.762 46.8948 17.004 48.3468L15.738 49.6128C14.34 51.0108 14.304 53.2488 15.6 54.7068L8.664 61.6368C7.866 62.4348 7.428 63.4968 7.428 64.6308C7.428 65.7648 7.866 66.8208 8.664 67.6248L9.39 68.3508C10.188 69.1488 11.25 69.5868 12.384 69.5868C13.512 69.5868 14.574 69.1488 15.372 68.3508L22.302 61.4148C22.986 62.0208 23.844 62.3688 24.762 62.3688C25.752 62.3688 26.688 61.9848 27.39 61.2828L28.656 60.0168C29.322 60.5928 30.162 60.9228 31.05 60.9228C32.04 60.9228 32.964 60.5388 33.66 59.8428L62.802 30.7008C63.846 32.7648 64.398 35.0508 64.398 37.3848C64.398 39.8568 63.78 42.3108 62.604 44.4708C62.448 44.7648 62.412 45.1068 62.508 45.4248C62.94 46.8348 63.162 48.2988 63.162 49.7748C63.162 50.6928 63.048 51.5988 62.88 52.4988C61.77 52.3368 60.618 52.2528 59.448 52.2528C49.884 52.2528 42.108 57.8088 42.108 64.6368C42.108 66.8988 42.978 69.0168 44.466 70.8468C41.766 73.2228 38.334 74.5368 34.686 74.5368ZM59.46 74.5368C51.264 74.5368 44.598 70.0909 44.598 64.6308C44.598 59.1648 51.264 54.7188 59.46 54.7188C67.656 54.7188 74.322 59.1648 74.322 64.6308C74.322 70.0909 67.656 74.5368 59.46 74.5368Z" fill="black"/>
<path d="M65.652 65.8669C64.284 65.8669 63.174 66.9769 63.174 68.3449C63.174 69.7129 64.284 70.8229 65.652 70.8229C67.02 70.8229 68.13 69.7129 68.13 68.3449C68.13 66.9769 67.014 65.8669 65.652 65.8669Z" fill="black"/>
<path d="M58.218 68.3447C56.85 68.3447 55.74 69.4547 55.74 70.8227C55.74 72.1907 56.85 73.3007 58.218 73.3007C59.586 73.3007 60.696 72.1907 60.696 70.8227C60.696 69.4547 59.586 68.3447 58.218 68.3447Z" fill="black"/>
<path d="M33.798 48.8749L56.094 26.5789L57.846 28.3309L35.55 50.6269L33.798 48.8749Z" fill="black"/>
</svg>
