<svg width="62" height="79" viewBox="0 0 62 79" fill="none" xmlns="http://www.w3.org/2000/svg">
<path d="M52.1685 71.968L44.4465 69.79C43.8585 69.628 43.2405 69.886 42.9465 70.414L39.0825 77.446C38.9265 77.728 38.5185 77.704 38.3925 77.41L34.9185 69.106L26.5545 49.12L32.7465 34.324L38.0085 36.526L43.2765 49.12L52.6185 71.452C52.7505 71.746 52.4805 72.058 52.1685 71.968Z" fill="#FF4A4A"/>
<path d="M43.2823 49.12L34.9183 69.106L26.5543 49.12L32.7463 34.324L38.0083 36.526L43.2823 49.12Z" fill="#EF3535"/>
<path d="M23.3148 77.4461L19.4509 70.4141C19.1569 69.8801 18.5389 69.6221 17.9509 69.7841L10.2288 71.9621C9.91685 72.0521 9.64685 71.7401 9.77285 71.4461L26.0448 32.5601L40.2768 38.5181L24.0049 77.4041C23.8789 77.7041 23.4708 77.7281 23.3148 77.4461Z" fill="#FF4A4A"/>
<path d="M34.6685 3.2465L39.4205 7.1645C40.2605 7.8545 41.2865 8.2805 42.3725 8.3885L48.4985 8.97649C51.1025 9.22849 53.1605 11.2865 53.4125 13.8905L54.0005 20.0165C54.1025 21.1025 54.5285 22.1285 55.2245 22.9685L59.1425 27.7205C60.8045 29.7365 60.8045 32.6465 59.1425 34.6685L55.2245 39.4205C54.5345 40.2605 54.1085 41.2865 54.0005 42.3725L53.4125 48.4985C53.1605 51.1025 51.1025 53.1605 48.4985 53.4125L42.3725 54.0005C41.2925 54.1025 40.2605 54.5285 39.4205 55.2245L34.6685 59.1425C32.6525 60.8045 29.7425 60.8045 27.7205 59.1425L22.9685 55.2245C22.1285 54.5345 21.1025 54.1085 20.0165 54.0005L13.8905 53.4125C11.2865 53.1605 9.22849 51.1025 8.97649 48.4985L8.38849 42.3725C8.2865 41.2925 7.8605 40.2605 7.1645 39.4205L3.2465 34.6685C1.5845 32.6525 1.5845 29.7425 3.2465 27.7205L7.1645 22.9685C7.8545 22.1285 8.2805 21.1025 8.38849 20.0165L8.97649 13.8905C9.22849 11.2865 11.2865 9.22849 13.8905 8.97649L20.0165 8.3885C21.0965 8.2865 22.1285 7.8605 22.9685 7.1645L27.7205 3.2465C29.7425 1.5845 32.6525 1.5845 34.6685 3.2465Z" fill="#FFD782"/>
<path d="M49.2806 31.1866C49.2806 41.1706 41.1866 49.2646 31.2026 49.2646C21.2186 49.2646 13.1246 41.1706 13.1246 31.1866C13.1246 21.2026 21.2186 13.1086 31.2026 13.1086C41.1866 13.1026 49.2806 21.1966 49.2806 31.1866Z" fill="#FF8000"/>
<path d="M31.1984 13.1062C29.6324 13.1062 28.1084 13.3042 26.6564 13.6822C34.4444 15.6982 40.1984 22.7722 40.1984 31.1902C40.1984 39.6082 34.4444 46.6822 26.6564 48.6982C28.1084 49.0762 29.6264 49.2742 31.1984 49.2742C41.1824 49.2742 49.2764 41.1802 49.2764 31.1962C49.2764 21.2002 41.1824 13.1062 31.1984 13.1062Z" fill="#FF5F06"/>
<path d="M26.9914 40.371C26.3194 40.371 25.6714 40.101 25.1914 39.627L19.7914 34.227C18.7954 33.231 18.7954 31.623 19.7914 30.627C20.7874 29.631 22.3954 29.631 23.3914 30.627L26.9914 34.227L36.9814 24.237C37.9774 23.241 39.5854 23.241 40.5814 24.237C41.5774 25.233 41.5774 26.841 40.5814 27.837L28.7914 39.627C28.3174 40.101 27.6694 40.371 26.9914 40.371Z" fill="white"/>
<path d="M43.0845 48.6399L52.6305 71.4519C52.7565 71.7459 52.4805 72.0579 52.1745 71.9679L44.4465 69.7899C43.8585 69.6279 43.2405 69.8859 42.9465 70.4139L39.0825 77.4459C38.9265 77.7279 38.5185 77.7039 38.3925 77.4099L33.7185 66.2319" stroke="black" stroke-width="2.47302" stroke-miterlimit="13.3333" stroke-linecap="round" stroke-linejoin="round"/>
<path d="M19.3124 48.6399L9.76637 71.4519C9.64037 71.7459 9.91637 72.0579 10.2224 71.9679L17.9444 69.7899C18.5324 69.6279 19.1504 69.8859 19.4444 70.4139L23.3084 77.4459C23.4644 77.7279 23.8724 77.7039 23.9984 77.4099L31.1924 60.2199L33.5624 54.5499" stroke="black" stroke-width="2.47302" stroke-miterlimit="13.3333" stroke-linecap="round" stroke-linejoin="round"/>
<path d="M34.6685 3.2465L39.4205 7.1645C40.2605 7.8545 41.2865 8.2805 42.3725 8.3885L48.4985 8.97649C51.1025 9.22849 53.1605 11.2865 53.4125 13.8905L54.0005 20.0165C54.1025 21.1025 54.5285 22.1285 55.2245 22.9685L59.1425 27.7205C60.8045 29.7365 60.8045 32.6465 59.1425 34.6685L55.2245 39.4205C54.5345 40.2605 54.1085 41.2865 54.0005 42.3725L53.4125 48.4985C53.1605 51.1025 51.1025 53.1605 48.4985 53.4125L42.3725 54.0005C41.2925 54.1025 40.2605 54.5285 39.4205 55.2245L34.6685 59.1425C32.6525 60.8045 29.7425 60.8045 27.7205 59.1425L22.9685 55.2245C22.1285 54.5345 21.1025 54.1085 20.0165 54.0005L13.8905 53.4125C11.2865 53.1605 9.22849 51.1025 8.97649 48.4985L8.3885 42.3725C8.2865 41.2925 7.8605 40.2605 7.1645 39.4205L3.2465 34.6685C1.5845 32.6525 1.5845 29.7425 3.2465 27.7205L7.1645 22.9685C7.8545 22.1285 8.2805 21.1025 8.3885 20.0165L8.97649 13.8905C9.22849 11.2865 11.2865 9.22849 13.8905 8.97649L20.0165 8.3885C21.0965 8.2865 22.1285 7.8605 22.9685 7.1645L27.7205 3.2465C29.7425 1.5845 32.6525 1.5845 34.6685 3.2465Z" stroke="black" stroke-width="2.47302" stroke-miterlimit="13.3333" stroke-linecap="round" stroke-linejoin="round"/>
<path d="M28.8853 13.2504C29.6413 13.1544 30.4153 13.1064 31.2013 13.1064C41.1853 13.1064 49.2793 21.2004 49.2793 31.1844C49.2793 41.1684 41.1853 49.2624 31.2013 49.2624C21.2173 49.2624 13.1233 41.1684 13.1233 31.1844C13.1233 23.8344 17.5093 17.5104 23.8033 14.6844" stroke="black" stroke-width="2.47302" stroke-miterlimit="13.3333" stroke-linecap="round" stroke-linejoin="round"/>
<path d="M26.9914 40.371C26.3194 40.371 25.6714 40.101 25.1914 39.627L19.7914 34.227C18.7954 33.231 18.7954 31.623 19.7914 30.627C20.7874 29.631 22.3954 29.631 23.3914 30.627L26.9914 34.227L36.9814 24.237C37.9774 23.241 39.5854 23.241 40.5814 24.237C41.5774 25.233 41.5774 26.841 40.5814 27.837L28.7914 39.627C28.3174 40.101 27.6694 40.371 26.9914 40.371Z" stroke="black" stroke-width="2.47302" stroke-miterlimit="13.3333" stroke-linecap="round" stroke-linejoin="round"/>
</svg>
