<svg width="247" height="232" viewBox="0 0 247 232" fill="none" xmlns="http://www.w3.org/2000/svg">
<g clip-path="url(#clip0_368_71)">
<path d="M193.814 514.489H59.9926C42.3157 514.489 28 498.292 28 478.291V79.2358C28 59.2355 42.3157 43.0381 59.9926 43.0381H193.814C211.491 43.0381 225.806 59.2355 225.806 79.2358V478.291C225.806 498.186 211.397 514.489 193.814 514.489Z" fill="#010101"/>
<path d="M192.569 507.27H61.2063C46.2993 507.27 34.1931 493.573 34.1931 476.706V79.4115C34.1931 62.545 46.2681 48.8477 61.2063 48.8477H192.6C207.507 48.8477 219.613 62.545 219.613 79.4115V476.671C219.582 493.502 207.445 507.27 192.569 507.27Z" fill="white"/>
<rect x="99.4133" y="54.5908" width="54.4438" height="18.4" rx="9.2" fill="#010101"/>
</g>
<path d="M34.4843 13.1924C33.4878 13.1924 32.6393 12.9655 31.9387 12.5116C31.2481 12.0577 30.7646 11.4361 30.4883 10.6468L31.9535 9.7884C32.3679 10.9527 33.2263 11.5348 34.5287 11.5348C35.1701 11.5348 35.6486 11.4115 35.9643 11.1648C36.2899 10.9083 36.4527 10.5777 36.4527 10.1732C36.4527 9.74893 36.2801 9.42827 35.9347 9.2112C35.5894 8.98427 34.9777 8.7376 34.0995 8.4712C33.6062 8.3232 33.2066 8.18507 32.9007 8.0568C32.5949 7.92853 32.2693 7.75093 31.9239 7.524C31.5885 7.2872 31.3369 6.99613 31.1691 6.6508C31.0014 6.30547 30.9175 5.90093 30.9175 5.4372C30.9175 4.5196 31.2431 3.7944 31.8943 3.2616C32.5455 2.71893 33.3299 2.4476 34.2475 2.4476C35.0763 2.4476 35.8015 2.64987 36.4231 3.0544C37.0447 3.45893 37.5233 4.0164 37.8587 4.7268L36.4231 5.5556C35.989 4.58867 35.2638 4.1052 34.2475 4.1052C33.7542 4.1052 33.3595 4.2236 33.0635 4.4604C32.7675 4.68733 32.6195 4.99813 32.6195 5.3928C32.6195 5.7776 32.7675 6.08347 33.0635 6.3104C33.3694 6.52747 33.917 6.75933 34.7063 7.006C35.101 7.13427 35.3871 7.23293 35.5647 7.302C35.7522 7.3612 36.0087 7.45987 36.3343 7.598C36.6698 7.73613 36.9214 7.87427 37.0891 8.0124C37.2569 8.15053 37.4345 8.3232 37.6219 8.5304C37.8193 8.7376 37.9574 8.9744 38.0363 9.2408C38.1153 9.5072 38.1547 9.80813 38.1547 10.1436C38.1547 11.0809 37.8143 11.8259 37.1335 12.3784C36.4626 12.9211 35.5795 13.1924 34.4843 13.1924ZM43.2126 13.1924C42.0977 13.1924 41.1653 12.8175 40.4154 12.0676C39.6754 11.3177 39.3054 10.3952 39.3054 9.3C39.3054 8.19493 39.6754 7.2724 40.4154 6.5324C41.1653 5.78253 42.0977 5.4076 43.2126 5.4076C43.9329 5.4076 44.589 5.58027 45.181 5.9256C45.773 6.27093 46.217 6.73467 46.513 7.3168L45.1366 8.116C44.9689 7.7608 44.7124 7.48453 44.367 7.2872C44.0316 7.08 43.6418 6.9764 43.1978 6.9764C42.5466 6.9764 41.999 7.1984 41.555 7.6424C41.1209 8.0864 40.9038 8.63893 40.9038 9.3C40.9038 9.96107 41.1209 10.5136 41.555 10.9576C41.999 11.4016 42.5466 11.6236 43.1978 11.6236C43.632 11.6236 44.0217 11.52 44.367 11.3128C44.7222 11.1056 44.9886 10.8293 45.1662 10.484L46.5426 11.2684C46.2269 11.8604 45.773 12.3291 45.181 12.6744C44.589 13.0197 43.9329 13.1924 43.2126 13.1924ZM53.4431 5.6H55.0415V13H53.4431V11.9344C52.8413 12.7731 51.9779 13.1924 50.8531 13.1924C49.8369 13.1924 48.9686 12.8175 48.2483 12.0676C47.5281 11.3079 47.1679 10.3853 47.1679 9.3C47.1679 8.2048 47.5281 7.28227 48.2483 6.5324C48.9686 5.78253 49.8369 5.4076 50.8531 5.4076C51.9779 5.4076 52.8413 5.822 53.4431 6.6508V5.6ZM49.4323 11.002C49.8763 11.446 50.4338 11.668 51.1047 11.668C51.7757 11.668 52.3331 11.446 52.7771 11.002C53.2211 10.5481 53.4431 9.9808 53.4431 9.3C53.4431 8.6192 53.2211 8.0568 52.7771 7.6128C52.3331 7.15893 51.7757 6.932 51.1047 6.932C50.4338 6.932 49.8763 7.15893 49.4323 7.6128C48.9883 8.0568 48.7663 8.6192 48.7663 9.3C48.7663 9.9808 48.9883 10.5481 49.4323 11.002ZM60.797 5.4076C61.6455 5.4076 62.3313 5.67893 62.8542 6.2216C63.3771 6.76427 63.6386 7.5092 63.6386 8.4564V13H62.0402V8.6192C62.0402 8.06667 61.8922 7.6424 61.5962 7.3464C61.3002 7.0504 60.8957 6.9024 60.3826 6.9024C59.8202 6.9024 59.3663 7.08 59.021 7.4352C58.6757 7.78053 58.503 8.31333 58.503 9.0336V13H56.9046V5.6H58.503V6.5472C58.9865 5.78747 59.7511 5.4076 60.797 5.4076ZM79.3901 7.82C79.3901 9.20133 78.9362 10.3952 78.0285 11.4016L79.1237 12.5264L77.9249 13.6068L76.7853 12.4376C75.917 12.9408 74.9945 13.1924 74.0177 13.1924C72.5278 13.1924 71.26 12.6744 70.2141 11.6384C69.1682 10.5925 68.6453 9.31973 68.6453 7.82C68.6453 6.32027 69.1682 5.0524 70.2141 4.0164C71.26 2.97053 72.5278 2.4476 74.0177 2.4476C75.5076 2.4476 76.7754 2.97053 77.8213 4.0164C78.8672 5.0524 79.3901 6.32027 79.3901 7.82ZM74.0177 11.5348C74.5702 11.5348 75.0882 11.4213 75.5717 11.1944L73.6773 9.2556L74.8761 8.1752L76.8593 10.2028C77.4118 9.522 77.6881 8.72773 77.6881 7.82C77.6881 6.76427 77.3329 5.8812 76.6225 5.1708C75.9121 4.4604 75.0438 4.1052 74.0177 4.1052C72.9916 4.1052 72.1233 4.4604 71.4129 5.1708C70.7025 5.8812 70.3473 6.76427 70.3473 7.82C70.3473 8.87573 70.7025 9.7588 71.4129 10.4692C72.1233 11.1796 72.9916 11.5348 74.0177 11.5348ZM86.92 13L84.7296 9.226H82.7168V13H81.0148V2.64H85.1588C86.0863 2.64 86.8707 2.9656 87.512 3.6168C88.1632 4.25813 88.4888 5.04253 88.4888 5.97C88.4888 6.63107 88.2964 7.23787 87.9116 7.7904C87.5367 8.33307 87.0434 8.72773 86.4316 8.9744L88.7848 13H86.92ZM82.7168 4.2384V7.7016H85.1588C85.6127 7.7016 85.9975 7.53387 86.3132 7.1984C86.629 6.86293 86.7868 6.45347 86.7868 5.97C86.7868 5.48653 86.629 5.07707 86.3132 4.7416C85.9975 4.40613 85.6127 4.2384 85.1588 4.2384H82.7168ZM98.6902 13.1924C97.1313 13.1924 95.8387 12.6793 94.8126 11.6532C93.7865 10.6172 93.2734 9.33947 93.2734 7.82C93.2734 6.30053 93.7865 5.02773 94.8126 4.0016C95.8387 2.9656 97.1313 2.4476 98.6902 2.4476C99.6275 2.4476 100.491 2.6696 101.28 3.1136C102.079 3.5576 102.701 4.15947 103.145 4.9192L101.665 5.7776C101.389 5.26453 100.984 4.86 100.451 4.564C99.9285 4.25813 99.3414 4.1052 98.6902 4.1052C97.5851 4.1052 96.6873 4.45547 95.9966 5.156C95.3158 5.85653 94.9754 6.74453 94.9754 7.82C94.9754 8.89547 95.3158 9.78347 95.9966 10.484C96.6873 11.1845 97.5851 11.5348 98.6902 11.5348C99.3414 11.5348 99.9334 11.3868 100.466 11.0908C100.999 10.7849 101.399 10.3755 101.665 9.8624L103.145 10.706C102.711 11.4657 102.094 12.0725 101.295 12.5264C100.506 12.9704 99.6374 13.1924 98.6902 13.1924ZM107.934 13.1924C106.848 13.1924 105.926 12.8175 105.166 12.0676C104.406 11.3177 104.027 10.3952 104.027 9.3C104.027 8.2048 104.406 7.28227 105.166 6.5324C105.926 5.78253 106.848 5.4076 107.934 5.4076C109.029 5.4076 109.951 5.78253 110.701 6.5324C111.461 7.28227 111.841 8.2048 111.841 9.3C111.841 10.3952 111.461 11.3177 110.701 12.0676C109.951 12.8175 109.029 13.1924 107.934 13.1924ZM106.291 10.9724C106.735 11.4164 107.283 11.6384 107.934 11.6384C108.585 11.6384 109.133 11.4164 109.577 10.9724C110.021 10.5284 110.243 9.97093 110.243 9.3C110.243 8.62907 110.021 8.0716 109.577 7.6276C109.133 7.1836 108.585 6.9616 107.934 6.9616C107.283 6.9616 106.735 7.1836 106.291 7.6276C105.847 8.0716 105.625 8.62907 105.625 9.3C105.625 9.97093 105.847 10.5284 106.291 10.9724ZM119.147 2.64H120.745V13H119.147V11.9344C118.545 12.7731 117.682 13.1924 116.557 13.1924C115.541 13.1924 114.673 12.8175 113.952 12.0676C113.232 11.3079 112.872 10.3853 112.872 9.3C112.872 8.2048 113.232 7.28227 113.952 6.5324C114.673 5.78253 115.541 5.4076 116.557 5.4076C117.682 5.4076 118.545 5.822 119.147 6.6508V2.64ZM115.136 11.002C115.58 11.446 116.138 11.668 116.809 11.668C117.48 11.668 118.037 11.446 118.481 11.002C118.925 10.5481 119.147 9.9808 119.147 9.3C119.147 8.6192 118.925 8.0568 118.481 7.6128C118.037 7.15893 117.48 6.932 116.809 6.932C116.138 6.932 115.58 7.15893 115.136 7.6128C114.692 8.0568 114.47 8.6192 114.47 9.3C114.47 9.9808 114.692 10.5481 115.136 11.002ZM123.867 9.9808C123.985 10.5432 124.256 10.9773 124.681 11.2832C125.105 11.5792 125.623 11.7272 126.235 11.7272C127.083 11.7272 127.719 11.4213 128.144 10.8096L129.461 11.5792C128.731 12.6547 127.65 13.1924 126.22 13.1924C125.016 13.1924 124.044 12.8273 123.304 12.0972C122.564 11.3572 122.194 10.4248 122.194 9.3C122.194 8.19493 122.559 7.2724 123.289 6.5324C124.019 5.78253 124.957 5.4076 126.101 5.4076C127.187 5.4076 128.075 5.78747 128.765 6.5472C129.466 7.30693 129.816 8.22947 129.816 9.3148C129.816 9.48253 129.796 9.70453 129.757 9.9808H123.867ZM123.852 8.6784H128.203C128.094 8.07653 127.843 7.62267 127.448 7.3168C127.063 7.01093 126.609 6.858 126.087 6.858C125.495 6.858 125.001 7.0208 124.607 7.3464C124.212 7.672 123.96 8.116 123.852 8.6784ZM139.052 7.1392H137.217V10.6912C137.217 10.9971 137.286 11.2191 137.424 11.3572C137.562 11.4855 137.764 11.5595 138.031 11.5792C138.307 11.5891 138.647 11.5841 139.052 11.5644V13C137.828 13.148 136.95 13.0444 136.417 12.6892C135.885 12.3241 135.618 11.6581 135.618 10.6912V7.1392H134.257V5.6H135.618V4.0016L137.217 3.528V5.6H139.052V7.1392ZM143.691 13.1924C142.605 13.1924 141.683 12.8175 140.923 12.0676C140.163 11.3177 139.784 10.3952 139.784 9.3C139.784 8.2048 140.163 7.28227 140.923 6.5324C141.683 5.78253 142.605 5.4076 143.691 5.4076C144.786 5.4076 145.708 5.78253 146.458 6.5324C147.218 7.28227 147.598 8.2048 147.598 9.3C147.598 10.3952 147.218 11.3177 146.458 12.0676C145.708 12.8175 144.786 13.1924 143.691 13.1924ZM142.048 10.9724C142.492 11.4164 143.04 11.6384 143.691 11.6384C144.342 11.6384 144.89 11.4164 145.334 10.9724C145.778 10.5284 146 9.97093 146 9.3C146 8.62907 145.778 8.0716 145.334 7.6276C144.89 7.1836 144.342 6.9616 143.691 6.9616C143.04 6.9616 142.492 7.1836 142.048 7.6276C141.604 8.0716 141.382 8.62907 141.382 9.3C141.382 9.97093 141.604 10.5284 142.048 10.9724ZM35.1059 17.64C36.5267 17.64 37.7058 18.1383 38.6431 19.1348C39.5903 20.1313 40.0639 21.3597 40.0639 22.82C40.0639 24.2704 39.5903 25.4988 38.6431 26.5052C37.7058 27.5017 36.5267 28 35.1059 28H31.0359V17.64H35.1059ZM35.1059 26.372C36.0827 26.372 36.877 26.0365 37.4887 25.3656C38.1103 24.6947 38.4211 23.8461 38.4211 22.82C38.4211 21.784 38.1103 20.9355 37.4887 20.2744C36.877 19.6035 36.0827 19.268 35.1059 19.268H32.7379V26.372H35.1059ZM45.0048 28.1924C43.9195 28.1924 42.997 27.8175 42.2372 27.0676C41.4775 26.3177 41.0976 25.3952 41.0976 24.3C41.0976 23.2048 41.4775 22.2823 42.2372 21.5324C42.997 20.7825 43.9195 20.4076 45.0048 20.4076C46.1 20.4076 47.0226 20.7825 47.7724 21.5324C48.5322 22.2823 48.912 23.2048 48.912 24.3C48.912 25.3952 48.5322 26.3177 47.7724 27.0676C47.0226 27.8175 46.1 28.1924 45.0048 28.1924ZM43.362 25.9724C43.806 26.4164 44.3536 26.6384 45.0048 26.6384C45.656 26.6384 46.2036 26.4164 46.6476 25.9724C47.0916 25.5284 47.3136 24.9709 47.3136 24.3C47.3136 23.6291 47.0916 23.0716 46.6476 22.6276C46.2036 22.1836 45.656 21.9616 45.0048 21.9616C44.3536 21.9616 43.806 22.1836 43.362 22.6276C42.918 23.0716 42.696 23.6291 42.696 24.3C42.696 24.9709 42.918 25.5284 43.362 25.9724ZM58.5931 20.6H60.2803L57.9567 28H56.3879L54.8487 23.0124L53.2947 28H51.7259L49.4023 20.6H51.0895L52.5251 25.706L54.0791 20.6H55.6035L57.1427 25.706L58.5931 20.6ZM65.3497 20.4076C66.1983 20.4076 66.884 20.6789 67.4069 21.2216C67.9299 21.7643 68.1913 22.5092 68.1913 23.4564V28H66.5929V23.6192C66.5929 23.0667 66.4449 22.6424 66.1489 22.3464C65.8529 22.0504 65.4484 21.9024 64.9353 21.9024C64.3729 21.9024 63.9191 22.08 63.5737 22.4352C63.2284 22.7805 63.0557 23.3133 63.0557 24.0336V28H61.4573V20.6H63.0557V21.5472C63.5392 20.7875 64.3039 20.4076 65.3497 20.4076ZM69.9124 28V17.196H71.5108V28H69.9124ZM76.8595 28.1924C75.7742 28.1924 74.8516 27.8175 74.0919 27.0676C73.3322 26.3177 72.9523 25.3952 72.9523 24.3C72.9523 23.2048 73.3322 22.2823 74.0919 21.5324C74.8516 20.7825 75.7742 20.4076 76.8595 20.4076C77.9547 20.4076 78.8772 20.7825 79.6271 21.5324C80.3868 22.2823 80.7667 23.2048 80.7667 24.3C80.7667 25.3952 80.3868 26.3177 79.6271 27.0676C78.8772 27.8175 77.9547 28.1924 76.8595 28.1924ZM75.2167 25.9724C75.6607 26.4164 76.2083 26.6384 76.8595 26.6384C77.5107 26.6384 78.0583 26.4164 78.5023 25.9724C78.9463 25.5284 79.1683 24.9709 79.1683 24.3C79.1683 23.6291 78.9463 23.0716 78.5023 22.6276C78.0583 22.1836 77.5107 21.9616 76.8595 21.9616C76.2083 21.9616 75.6607 22.1836 75.2167 22.6276C74.7727 23.0716 74.5507 23.6291 74.5507 24.3C74.5507 24.9709 74.7727 25.5284 75.2167 25.9724ZM88.0728 20.6H89.6712V28H88.0728V26.9344C87.471 27.7731 86.6076 28.1924 85.4828 28.1924C84.4666 28.1924 83.5983 27.8175 82.878 27.0676C82.1578 26.3079 81.7976 25.3853 81.7976 24.3C81.7976 23.2048 82.1578 22.2823 82.878 21.5324C83.5983 20.7825 84.4666 20.4076 85.4828 20.4076C86.6076 20.4076 87.471 20.822 88.0728 21.6508V20.6ZM84.062 26.002C84.506 26.446 85.0635 26.668 85.7344 26.668C86.4054 26.668 86.9628 26.446 87.4068 26.002C87.8508 25.5481 88.0728 24.9808 88.0728 24.3C88.0728 23.6192 87.8508 23.0568 87.4068 22.6128C86.9628 22.1589 86.4054 21.932 85.7344 21.932C85.0635 21.932 84.506 22.1589 84.062 22.6128C83.618 23.0568 83.396 23.6192 83.396 24.3C83.396 24.9808 83.618 25.5481 84.062 26.002ZM97.3951 17.64H98.9935V28H97.3951V26.9344C96.7932 27.7731 95.9299 28.1924 94.8051 28.1924C93.7888 28.1924 92.9206 27.8175 92.2003 27.0676C91.48 26.3079 91.1199 25.3853 91.1199 24.3C91.1199 23.2048 91.48 22.2823 92.2003 21.5324C92.9206 20.7825 93.7888 20.4076 94.8051 20.4076C95.9299 20.4076 96.7932 20.822 97.3951 21.6508V17.64ZM93.3843 26.002C93.8283 26.446 94.3858 26.668 95.0567 26.668C95.7276 26.668 96.2851 26.446 96.7291 26.002C97.1731 25.5481 97.3951 24.9808 97.3951 24.3C97.3951 23.6192 97.1731 23.0568 96.7291 22.6128C96.2851 22.1589 95.7276 21.932 95.0567 21.932C94.3858 21.932 93.8283 22.1589 93.3843 22.6128C92.9403 23.0568 92.7183 23.6192 92.7183 24.3C92.7183 24.9808 92.9403 25.5481 93.3843 26.002ZM111.409 28L110.684 25.9132H106.273L105.548 28H103.698L107.457 17.64H109.5L113.244 28H111.409ZM106.836 24.3148H110.121L108.479 19.638L106.836 24.3148ZM118.443 20.4076C119.459 20.4076 120.328 20.7875 121.048 21.5472C121.768 22.2971 122.128 23.2147 122.128 24.3C122.128 25.3952 121.768 26.3177 121.048 27.0676C120.328 27.8175 119.459 28.1924 118.443 28.1924C117.318 28.1924 116.455 27.778 115.853 26.9492V30.96H114.255V20.6H115.853V21.6656C116.455 20.8269 117.318 20.4076 118.443 20.4076ZM116.519 26.002C116.963 26.446 117.52 26.668 118.191 26.668C118.862 26.668 119.42 26.446 119.864 26.002C120.308 25.5481 120.53 24.9808 120.53 24.3C120.53 23.6192 120.308 23.0568 119.864 22.6128C119.42 22.1589 118.862 21.932 118.191 21.932C117.52 21.932 116.963 22.1589 116.519 22.6128C116.075 23.0568 115.853 23.6192 115.853 24.3C115.853 24.9808 116.075 25.5481 116.519 26.002ZM127.765 20.4076C128.782 20.4076 129.65 20.7875 130.37 21.5472C131.09 22.2971 131.45 23.2147 131.45 24.3C131.45 25.3952 131.09 26.3177 130.37 27.0676C129.65 27.8175 128.782 28.1924 127.765 28.1924C126.64 28.1924 125.777 27.778 125.175 26.9492V30.96H123.577V20.6H125.175V21.6656C125.777 20.8269 126.64 20.4076 127.765 20.4076ZM125.841 26.002C126.285 26.446 126.843 26.668 127.514 26.668C128.185 26.668 128.742 26.446 129.186 26.002C129.63 25.5481 129.852 24.9808 129.852 24.3C129.852 23.6192 129.63 23.0568 129.186 22.6128C128.742 22.1589 128.185 21.932 127.514 21.932C126.843 21.932 126.285 22.1589 125.841 22.6128C125.397 23.0568 125.175 23.6192 125.175 24.3C125.175 24.9808 125.397 25.5481 125.841 26.002Z" fill="#10100E"/>
<path d="M22.7039 18.479C23.2446 18.3663 23.5916 17.8367 23.479 17.296C23.3663 16.7554 22.8367 16.4084 22.296 16.521L22.7039 18.479ZM22.6155 66.4933C23.1641 66.4295 23.5571 65.9331 23.4933 65.3845L22.4538 56.4447C22.39 55.8961 21.8936 55.5031 21.345 55.5669C20.7964 55.6307 20.4034 56.1271 20.4672 56.6757L21.3912 64.6222L13.4447 65.5462C12.8961 65.61 12.5031 66.1064 12.5669 66.655C12.6307 67.2036 13.1271 67.5966 13.6757 67.5328L22.6155 66.4933ZM22.296 16.521C18.2129 17.3717 13.6997 18.923 9.83027 21.2769C5.96631 23.6275 2.66339 26.8297 1.15902 31.0115C-0.35748 35.227 0.0163812 40.2617 3.16951 46.1178C6.30972 51.95 12.2251 58.6412 21.8793 66.284L23.1207 64.716C13.5748 57.1588 7.89026 50.6667 4.93047 45.1697C1.98359 39.6966 1.75746 35.2563 3.04095 31.6885C4.33659 28.0869 7.23367 25.1975 10.8697 22.9856C14.5003 20.777 18.7871 19.295 22.7039 18.479L22.296 16.521Z" fill="black"/>
<defs>
<clipPath id="clip0_368_71">
<rect width="247" height="194" fill="white" transform="translate(0 38)"/>
</clipPath>
</defs>
</svg>
