<svg width="244" height="316" viewBox="0 0 244 316" fill="none" xmlns="http://www.w3.org/2000/svg">
<path fill-rule="evenodd" clip-rule="evenodd" d="M211.5 0H0V315.8H211.5V182.4L232.9 166.3C238 162.4 240.6 160.5 240.6 157.9C240.6 155.3 238 153.3 232.9 149.5L211.5 133.4V0Z" fill="url(#paint0_linear_1137_3277)"/>
<path d="M88.4023 66V63.6L94.1024 57.8C95.4024 56.5 96.0023 55.4 96.0023 54.5C96.0023 53.9 95.8023 53.3 95.4023 52.9C95.0023 52.5 94.5023 52.3 93.9023 52.3C92.7023 52.3 91.7024 52.9 91.1024 54.2L88.4023 52.6C88.9023 51.5 89.7024 50.6 90.6024 50C91.6024 49.4 92.7023 49.1 93.8023 49.1C95.3023 49.1 96.6023 49.6 97.7023 50.5C98.8023 51.4 99.3023 52.7 99.3023 54.3C99.3023 56 98.4024 57.8 96.6024 59.6L93.4023 62.8H99.6024V66H88.4023ZM107.602 66.3C105.502 66.3 103.902 65.5 102.702 64C101.502 62.4 100.902 60.3 100.902 57.7C100.902 55.1 101.502 53 102.702 51.4C103.902 49.8 105.502 49 107.602 49C109.702 49 111.302 49.8 112.502 51.4C113.702 53 114.302 55 114.302 57.7C114.302 60.3 113.702 62.4 112.502 64C111.302 65.5 109.702 66.3 107.602 66.3ZM105.102 61.7C105.702 62.6 106.502 63.1 107.602 63.1C108.702 63.1 109.502 62.6 110.102 61.7C110.702 60.8 111.002 59.4 111.002 57.7C111.002 55.9 110.702 54.6 110.102 53.7C109.502 52.8 108.702 52.3 107.602 52.3C106.502 52.3 105.702 52.7 105.102 53.7C104.502 54.6 104.202 56 104.202 57.7C104.202 59.4 104.502 60.8 105.102 61.7ZM119.202 49.4H122.002V66H118.702V52.9L115.702 53.7L114.902 50.9L119.202 49.4ZM136.302 54.8C136.302 56.1 136.002 57.2 135.302 58.2L130.102 66H126.402L130.102 60.6C128.402 60.6 127.002 60 125.902 59C124.802 57.9 124.302 56.6 124.302 54.9C124.302 53.2 124.902 51.8 126.002 50.8C127.102 49.7 128.602 49.2 130.302 49.2C132.102 49.2 133.502 49.7 134.602 50.8C135.802 51.7 136.302 53.1 136.302 54.8ZM127.602 54.8C127.602 55.6 127.902 56.3 128.402 56.8C128.902 57.3 129.602 57.5 130.402 57.5C131.202 57.5 131.902 57.3 132.402 56.8C132.902 56.3 133.202 55.7 133.202 54.8C133.202 54 132.902 53.3 132.402 52.9C131.902 52.4 131.202 52.2 130.402 52.2C129.602 52.2 129.002 52.4 128.402 52.9C127.802 53.4 127.602 54 127.602 54.8Z" fill="black"/>
<path d="M35.3 93.3016C33.5 93.3016 32 92.7016 30.8 91.5016C29.6 90.3016 29 88.8016 29 87.1016C29 85.4016 29.6 83.9016 30.8 82.7016C32 81.5016 33.5 80.9016 35.3 80.9016C36.4 80.9016 37.4 81.2016 38.3 81.7016C39.2 82.2016 39.9 82.9016 40.4 83.8016L39.3 84.4016C38.9 83.7016 38.4 83.1016 37.6 82.7016C36.8 82.3016 36 82.1016 35.2 82.1016C33.7 82.1016 32.5 82.6016 31.6 83.5016C30.7 84.5016 30.2 85.7016 30.2 87.1016C30.2 88.5016 30.7 89.7016 31.6 90.7016C32.5 91.7016 33.8 92.1016 35.2 92.1016C36.1 92.1016 36.9 91.9016 37.6 91.5016C38.3 91.1016 38.9 90.5016 39.3 89.8016L40.4 90.4016C39.9 91.3016 39.2 92.0016 38.3 92.5016C37.5 93.0016 36.5 93.3016 35.3 93.3016ZM43.4 86.0016C43.9 85.0016 44.8 84.4016 46.1 84.4016V85.5016C45.3 85.5016 44.7 85.7016 44.2 86.2016C43.7 86.7016 43.4 87.4016 43.4 88.3016V93.0016H42.3V84.5016H43.4V86.0016ZM54.3 92.0016C53.4 92.9016 52.4 93.3016 51.1 93.3016C49.9 93.3016 48.8 92.9016 47.9 92.0016C47 91.1016 46.6 90.1016 46.6 88.8016C46.6 87.5016 47 86.5016 47.9 85.6016C48.8 84.7016 49.8 84.3016 51.1 84.3016C52.4 84.3016 53.4 84.7016 54.3 85.6016C55.2 86.5016 55.6 87.5016 55.6 88.8016C55.6 90.1016 55.2 91.2016 54.3 92.0016ZM48.7 91.2016C49.3 91.8016 50.1 92.2016 51.1 92.2016C52 92.2016 52.8 91.9016 53.5 91.2016C54.1 90.5016 54.5 89.7016 54.5 88.8016C54.5 87.9016 54.2 87.1016 53.5 86.4016C52.9 85.7016 52.1 85.4016 51.1 85.4016C50.2 85.4016 49.4 85.7016 48.7 86.4016C48.1 87.0016 47.7 87.8016 47.7 88.8016C47.8 89.8016 48.1 90.6016 48.7 91.2016ZM58.2 86.8016C58.2 87.2016 58.4 87.5016 58.7 87.7016C59 87.9016 59.5 88.1016 59.9 88.2016C60.4 88.3016 60.9 88.5016 61.4 88.6016C61.9 88.7016 62.3 89.0016 62.6 89.4016C62.9 89.8016 63.1 90.2016 63.1 90.8016C63.1 91.5016 62.8 92.1016 62.2 92.6016C61.6 93.1016 60.9 93.3016 60 93.3016C59.2 93.3016 58.5 93.1016 57.9 92.8016C57.3 92.4016 56.9 92.0016 56.7 91.4016L57.7 90.8016C57.9 91.2016 58.1 91.6016 58.6 91.9016C59 92.2016 59.5 92.3016 60.1 92.3016C60.7 92.3016 61.1 92.2016 61.5 92.0016C61.9 91.8016 62.1 91.4016 62.1 91.0016C62.1 90.6016 61.9 90.3016 61.6 90.1016C61.3 89.9016 60.8 89.7016 60.4 89.6016C59.9 89.5016 59.4 89.3016 58.9 89.2016C58.4 89.0016 58 88.8016 57.7 88.4016C57.4 88.0016 57.2 87.6016 57.2 87.0016C57.2 86.3016 57.5 85.7016 58 85.3016C58.6 84.8016 59.3 84.6016 60.1 84.6016C60.8 84.6016 61.4 84.8016 61.9 85.1016C62.4 85.4016 62.8 85.8016 63.1 86.4016L62.2 86.9016C61.9 86.1016 61.2 85.7016 60.2 85.7016C59.7 85.7016 59.3 85.8016 58.9 86.1016C58.4 86.0016 58.2 86.4016 58.2 86.8016ZM65.4 86.8016C65.4 87.2016 65.6 87.5016 65.9 87.7016C66.2 87.9016 66.7 88.1016 67.1 88.2016C67.6 88.3016 68.1 88.5016 68.6 88.6016C69.1 88.7016 69.5 89.0016 69.8 89.4016C70.1 89.8016 70.3 90.2016 70.3 90.8016C70.3 91.5016 70 92.1016 69.4 92.6016C68.8 93.1016 68.1 93.3016 67.2 93.3016C66.4 93.3016 65.7 93.1016 65.1 92.8016C64.5 92.4016 64.1 92.0016 63.9 91.4016L64.9 90.8016C65.1 91.2016 65.3 91.6016 65.8 91.9016C66.2 92.2016 66.7 92.3016 67.3 92.3016C67.9 92.3016 68.3 92.2016 68.7 92.0016C69.1 91.8016 69.3 91.4016 69.3 91.0016C69.3 90.6016 69.1 90.3016 68.8 90.1016C68.5 89.9016 68 89.7016 67.6 89.6016C67.1 89.5016 66.6 89.3016 66.1 89.2016C65.6 89.0016 65.2 88.8016 64.9 88.4016C64.6 88.0016 64.4 87.6016 64.4 87.0016C64.4 86.3016 64.7 85.7016 65.2 85.3016C65.8 84.8016 66.5 84.6016 67.3 84.6016C68 84.6016 68.6 84.8016 69.1 85.1016C69.6 85.4016 70 85.8016 70.3 86.4016L69.4 86.9016C69.1 86.1016 68.4 85.7016 67.4 85.7016C66.9 85.7016 66.5 85.8016 66.1 86.1016C65.6 86.0016 65.4 86.4016 65.4 86.8016ZM76 84.4016C77.3 84.4016 78.3 84.8016 79.1 85.7016C79.9 86.6016 80.3 87.6016 80.3 88.9016C80.3 89.0016 80.3 89.2016 80.3 89.4016H72.7C72.8 90.3016 73.2 91.0016 73.8 91.5016C74.4 92.0016 75.2 92.3016 76.1 92.3016C76.7 92.3016 77.3 92.2016 77.8 91.9016C78.3 91.6016 78.6 91.3016 78.9 90.8016L79.9 91.4016C79.5 92.0016 79 92.5016 78.4 92.8016C77.8 93.2016 77 93.3016 76.2 93.3016C74.9 93.3016 73.8 92.9016 72.9 92.0016C72.1 91.2016 71.6 90.1016 71.6 88.8016C71.6 87.5016 72 86.5016 72.8 85.6016C73.6 84.8016 74.7 84.4016 76 84.4016ZM76 85.5016C75.1 85.5016 74.4 85.8016 73.8 86.3016C73.2 86.8016 72.9 87.5016 72.7 88.3016H79.1C79 87.4016 78.6 86.7016 78.1 86.2016C77.4 85.7016 76.8 85.5016 76 85.5016ZM89.3 81.2016H90.4V93.1016H89.3V91.4016C88.5 92.7016 87.4 93.3016 85.9 93.3016C84.7 93.3016 83.6 92.9016 82.8 92.0016C81.9 91.1016 81.5 90.1016 81.5 88.8016C81.5 87.5016 81.9 86.5016 82.8 85.6016C83.7 84.7016 84.7 84.3016 85.9 84.3016C87.4 84.3016 88.6 84.9016 89.3 86.2016V81.2016ZM83.6 91.2016C84.2 91.8016 85 92.2016 86 92.2016C86.9 92.2016 87.7 91.9016 88.4 91.2016C89 90.5016 89.4 89.7016 89.4 88.8016C89.4 87.9016 89.1 87.1016 88.4 86.4016C87.8 85.7016 87 85.4016 86 85.4016C85.1 85.4016 84.3 85.7016 83.6 86.4016C83 87.0016 82.6 87.8016 82.6 88.8016C82.6 89.8016 82.9 90.6016 83.6 91.2016ZM96.6 93.1016V92.0016L100.9 87.7016C102.1 86.5016 102.7 85.4016 102.7 84.5016C102.7 83.7016 102.5 83.1016 102 82.7016C101.5 82.3016 101 82.1016 100.3 82.1016C99.1 82.1016 98.2 82.7016 97.6 83.8016L96.6 83.2016C97 82.5016 97.5 81.9016 98.1 81.5016C98.7 81.1016 99.5 80.9016 100.2 80.9016C101.2 80.9016 102 81.2016 102.7 81.9016C103.4 82.5016 103.8 83.4016 103.8 84.5016C103.8 85.2016 103.6 85.9016 103.2 86.5016C102.8 87.1016 102.3 87.8016 101.6 88.5016L98.2 91.9016H104.1V93.1016H96.6ZM113.4 91.6016C112.6 92.7016 111.5 93.3016 110.1 93.3016C108.7 93.3016 107.6 92.7016 106.8 91.6016C106 90.5016 105.6 89.0016 105.6 87.1016C105.6 85.2016 106 83.7016 106.8 82.6016C107.6 81.5016 108.7 80.9016 110.1 80.9016C111.5 80.9016 112.6 81.5016 113.4 82.6016C114.2 83.7016 114.6 85.2016 114.6 87.1016C114.6 89.0016 114.2 90.5016 113.4 91.6016ZM107.6 90.8016C108.2 91.7016 109 92.1016 110.1 92.1016C111.1 92.1016 112 91.7016 112.5 90.8016C113.1 89.9016 113.4 88.7016 113.4 87.1016C113.4 85.5016 113.1 84.3016 112.5 83.4016C111.9 82.5016 111.1 82.1016 110.1 82.1016C109.1 82.1016 108.2 82.5016 107.6 83.4016C107 84.3016 106.7 85.5016 106.7 87.1016C106.7 88.7016 107 90.0016 107.6 90.8016ZM124.1 91.6016C123.3 92.7016 122.2 93.3016 120.8 93.3016C119.4 93.3016 118.3 92.7016 117.5 91.6016C116.7 90.5016 116.3 89.0016 116.3 87.1016C116.3 85.2016 116.7 83.7016 117.5 82.6016C118.3 81.5016 119.4 80.9016 120.8 80.9016C122.2 80.9016 123.3 81.5016 124.1 82.6016C124.9 83.7016 125.3 85.2016 125.3 87.1016C125.3 89.0016 124.9 90.5016 124.1 91.6016ZM118.4 90.8016C119 91.7016 119.8 92.1016 120.9 92.1016C121.9 92.1016 122.8 91.7016 123.3 90.8016C123.9 89.9016 124.2 88.7016 124.2 87.1016C124.2 85.5016 123.9 84.3016 123.3 83.4016C122.7 82.5016 121.9 82.1016 120.9 82.1016C119.9 82.1016 119 82.5016 118.4 83.4016C117.8 84.3016 117.5 85.5016 117.5 87.1016C117.5 88.7016 117.8 90.0016 118.4 90.8016ZM141.7 91.5016C140.5 92.7016 139 93.3016 137.3 93.3016C135.6 93.3016 134.1 92.7016 132.9 91.5016C131.7 90.3016 131.1 88.8016 131.1 87.1016C131.1 85.4016 131.7 83.9016 132.9 82.7016C134.1 81.5016 135.6 80.9016 137.3 80.9016C139 80.9016 140.5 81.5016 141.7 82.7016C142.9 83.9016 143.5 85.3016 143.5 87.1016C143.5 88.9016 142.9 90.3016 141.7 91.5016ZM133.8 90.7016C134.8 91.7016 135.9 92.1016 137.3 92.1016C138.7 92.1016 139.9 91.6016 140.8 90.7016C141.8 89.7016 142.2 88.5016 142.2 87.1016C142.2 85.7016 141.7 84.5016 140.8 83.6016C139.8 82.6016 138.7 82.1016 137.3 82.1016C135.9 82.1016 134.7 82.6016 133.8 83.6016C132.8 84.6016 132.4 85.7016 132.4 87.1016C132.4 88.5016 132.8 89.7016 133.8 90.7016ZM151.4 84.6016H152.5V93.1016H151.4V91.8016C150.8 92.8016 149.8 93.3016 148.5 93.3016C147.5 93.3016 146.6 93.0016 146 92.4016C145.4 91.8016 145.1 90.9016 145.1 89.8016V84.6016H146.2V89.8016C146.2 90.6016 146.4 91.2016 146.8 91.6016C147.2 92.0016 147.8 92.2016 148.5 92.2016C149.3 92.2016 150 91.9016 150.5 91.4016C151 90.9016 151.3 90.1016 151.3 89.0016V84.6016H151.4ZM159.5 85.7016H157V90.9016C157 91.4016 157.1 91.7016 157.3 91.9016C157.5 92.1016 157.8 92.2016 158.1 92.2016C158.5 92.2016 158.9 92.2016 159.5 92.2016V93.2016C158.3 93.4016 157.4 93.3016 156.8 92.9016C156.2 92.5016 155.9 91.9016 155.9 90.9016V85.7016H154.1V84.6016H155.9V82.6016L157 82.3016V84.7016H159.5V85.7016ZM161.3 93.1016V80.6016H162.4V93.0016H161.3V93.1016ZM168.8 84.4016C170.1 84.4016 171.1 84.8016 171.9 85.7016C172.7 86.6016 173.1 87.6016 173.1 88.9016C173.1 89.0016 173.1 89.2016 173.1 89.4016H165.6C165.7 90.3016 166.1 91.0016 166.7 91.5016C167.3 92.0016 168.1 92.3016 169 92.3016C169.6 92.3016 170.2 92.2016 170.7 91.9016C171.2 91.6016 171.5 91.3016 171.8 90.8016L172.8 91.4016C172.4 92.0016 171.9 92.5016 171.3 92.8016C170.7 93.2016 169.9 93.3016 169.1 93.3016C167.8 93.3016 166.7 92.9016 165.8 92.0016C165 91.2016 164.5 90.1016 164.5 88.8016C164.5 87.5016 164.9 86.5016 165.7 85.6016C166.4 84.8016 167.5 84.4016 168.8 84.4016ZM168.8 85.5016C167.9 85.5016 167.2 85.8016 166.6 86.3016C166 86.8016 165.7 87.5016 165.5 88.3016H171.9C171.8 87.4016 171.4 86.7016 170.9 86.2016C170.2 85.7016 169.6 85.5016 168.8 85.5016ZM179.1 85.7016H176.6V90.9016C176.6 91.4016 176.7 91.7016 176.9 91.9016C177.1 92.1016 177.4 92.2016 177.7 92.2016C178.1 92.2016 178.5 92.2016 179.1 92.2016V93.2016C177.9 93.4016 177 93.3016 176.4 92.9016C175.8 92.5016 175.5 91.9016 175.5 90.9016V85.7016H173.7V84.6016H175.5V82.6016L176.6 82.3016V84.7016H179.1V85.7016ZM181.3 86.8016C181.3 87.2016 181.5 87.5016 181.8 87.7016C182.1 87.9016 182.6 88.1016 183 88.2016C183.5 88.3016 184 88.5016 184.5 88.6016C185 88.7016 185.4 89.0016 185.7 89.4016C186 89.8016 186.2 90.2016 186.2 90.8016C186.2 91.5016 185.9 92.1016 185.3 92.6016C184.7 93.1016 184 93.3016 183.1 93.3016C182.3 93.3016 181.6 93.1016 181 92.8016C180.4 92.4016 180 92.0016 179.8 91.4016L180.8 90.8016C181 91.2016 181.2 91.6016 181.7 91.9016C182.1 92.2016 182.6 92.3016 183.2 92.3016C183.8 92.3016 184.2 92.2016 184.6 92.0016C185 91.8016 185.2 91.4016 185.2 91.0016C185.2 90.6016 185 90.3016 184.7 90.1016C184.4 89.9016 183.9 89.7016 183.5 89.6016C183 89.5016 182.5 89.3016 182 89.2016C181.5 89.0016 181.1 88.8016 180.8 88.4016C180.5 88.0016 180.3 87.6016 180.3 87.0016C180.3 86.3016 180.6 85.7016 181.1 85.3016C181.7 84.8016 182.4 84.6016 183.2 84.6016C183.9 84.6016 184.5 84.8016 185 85.1016C185.5 85.4016 185.9 85.8016 186.2 86.4016L185.3 86.9016C185 86.1016 184.3 85.7016 183.3 85.7016C182.8 85.7016 182.4 85.8016 182 86.1016C181.5 86.0016 181.3 86.4016 181.3 86.8016ZM65.9 113.102L64.8 110.202H59.1L58 113.102H56.7L61.3 101.202H62.5L67.1 113.102H65.9ZM59.5 109.002H64.3L61.9 102.602L59.5 109.002ZM68.5 113.102V100.602H69.6V113.002H68.5V113.102ZM72 113.102V100.602H73.1V113.002H72V113.102ZM89.8 111.502C88.6 112.702 87.1 113.302 85.4 113.302C83.7 113.302 82.2 112.702 81 111.502C79.8 110.302 79.2 108.802 79.2 107.102C79.2 105.402 79.8 103.902 81 102.702C82.2 101.502 83.7 100.902 85.4 100.902C87.1 100.902 88.6 101.502 89.8 102.702C91 103.902 91.6 105.302 91.6 107.102C91.6 108.902 91 110.302 89.8 111.502ZM81.9 110.702C82.9 111.702 84 112.202 85.4 112.202C86.8 112.202 88 111.702 88.9 110.702C89.9 109.702 90.3 108.502 90.3 107.102C90.3 105.702 89.8 104.502 88.9 103.602C87.9 102.602 86.8 102.102 85.4 102.102C84 102.102 82.8 102.602 81.9 103.602C80.9 104.602 80.5 105.702 80.5 107.102C80.5 108.502 80.9 109.702 81.9 110.702ZM99.6 104.602H100.8L97.3 113.102H95.9L92.4 104.602H93.6L96.6 111.902L99.6 104.602ZM105.8 104.402C107.1 104.402 108.1 104.802 108.9 105.702C109.7 106.602 110.1 107.602 110.1 108.902C110.1 109.002 110.1 109.202 110.1 109.402H102.6C102.7 110.302 103.1 111.002 103.7 111.502C104.3 112.002 105.1 112.302 106 112.302C106.6 112.302 107.2 112.202 107.7 111.902C108.2 111.602 108.5 111.302 108.8 110.802L109.8 111.402C109.4 112.002 108.9 112.502 108.3 112.802C107.7 113.202 106.9 113.302 106.1 113.302C104.8 113.302 103.7 112.902 102.8 112.002C102 111.202 101.5 110.102 101.5 108.802C101.5 107.502 101.9 106.502 102.7 105.602C103.4 104.802 104.5 104.402 105.8 104.402ZM105.8 105.502C104.9 105.502 104.2 105.802 103.6 106.302C103 106.802 102.7 107.502 102.5 108.302H108.9C108.8 107.402 108.4 106.702 107.9 106.202C107.2 105.702 106.5 105.502 105.8 105.502ZM112.9 106.002C113.4 105.002 114.3 104.402 115.6 104.402V105.502C114.8 105.502 114.2 105.702 113.7 106.202C113.2 106.702 112.9 107.402 112.9 108.302V113.002H111.8V104.502H112.9V106.002ZM121.6 101.202H122.8V113.102H121.6V101.202ZM129.3 104.402C130.3 104.402 131.1 104.702 131.7 105.402C132.3 106.002 132.6 106.902 132.6 107.902V113.102H131.5V107.902C131.5 107.102 131.3 106.502 130.9 106.102C130.5 105.702 129.9 105.502 129.2 105.502C128.4 105.502 127.7 105.802 127.2 106.302C126.7 106.802 126.4 107.602 126.4 108.702V113.202H125.3V104.702H126.4V106.002C127.1 104.902 128.1 104.402 129.3 104.402ZM142.2 101.202H143.3V113.102H142.2V111.402C141.4 112.602 140.3 113.302 138.8 113.302C137.6 113.302 136.5 112.902 135.7 112.002C134.8 111.102 134.4 110.102 134.4 108.802C134.4 107.502 134.8 106.502 135.7 105.602C136.6 104.702 137.6 104.302 138.8 104.302C140.3 104.302 141.5 104.902 142.2 106.202V101.202ZM136.4 111.202C137 111.802 137.8 112.202 138.8 112.202C139.7 112.202 140.5 111.902 141.2 111.202C141.8 110.502 142.2 109.702 142.2 108.802C142.2 107.902 141.9 107.102 141.2 106.402C140.6 105.702 139.8 105.402 138.8 105.402C137.9 105.402 137.1 105.702 136.4 106.402C135.8 107.002 135.4 107.802 135.4 108.802C135.5 109.802 135.8 110.602 136.4 111.202ZM146.8 102.502C146.6 102.702 146.4 102.702 146.2 102.702C146 102.702 145.8 102.602 145.6 102.502C145.4 102.302 145.4 102.102 145.4 101.902C145.4 101.702 145.5 101.502 145.6 101.302C145.8 101.102 146 101.102 146.2 101.102C146.4 101.102 146.6 101.202 146.8 101.302C147 101.502 147 101.702 147 101.902C147 102.102 147 102.402 146.8 102.502ZM145.7 113.102V104.602H146.8V113.102H145.7ZM156.5 104.602H157.6V113.102H156.5V111.402C155.7 112.602 154.6 113.302 153.1 113.302C151.9 113.302 150.8 112.902 150 112.002C149.1 111.102 148.7 110.102 148.7 108.802C148.7 107.502 149.1 106.502 150 105.602C150.9 104.702 151.9 104.302 153.1 104.302C154.6 104.302 155.8 104.902 156.5 106.202V104.602ZM150.8 111.202C151.4 111.802 152.2 112.202 153.2 112.202C154.1 112.202 154.9 111.902 155.6 111.202C156.2 110.502 156.6 109.702 156.6 108.802C156.6 107.902 156.3 107.102 155.6 106.402C155 105.702 154.2 105.402 153.2 105.402C152.3 105.402 151.5 105.702 150.8 106.402C150.2 107.002 149.8 107.802 149.8 108.802C149.8 109.802 150.1 110.602 150.8 111.202Z" fill="black"/>
<mask id="mask0_1137_3277" style="mask-type:luminance" maskUnits="userSpaceOnUse" x="52" y="149" width="122" height="122">
<path d="M173.3 149.5H52V270.8H173.3V149.5Z" fill="white"/>
</mask>
<g mask="url(#mask0_1137_3277)">
<path d="M172.798 210.098C172.798 243.298 145.898 270.298 112.598 270.298C79.3984 270.298 52.3984 243.398 52.3984 210.098C52.3984 176.898 79.2985 149.898 112.598 149.898C145.898 149.998 172.798 176.898 172.798 210.098Z" fill="white"/>
<path d="M172.798 210.098C172.798 243.298 145.898 270.298 112.598 270.298C79.3984 270.298 52.3984 243.398 52.3984 210.098C52.3984 176.898 79.2985 149.898 112.598 149.898C145.898 149.998 172.798 176.898 172.798 210.098Z" fill="url(#paint1_linear_1137_3277)"/>
<path d="M172.798 210.098C172.798 243.298 145.898 270.298 112.598 270.298C79.3984 270.298 52.3984 243.398 52.3984 210.098C52.3984 176.898 79.2985 149.898 112.598 149.898C145.898 149.998 172.798 176.898 172.798 210.098Z" stroke="#85FFBE" stroke-width="0.9474"/>
<path d="M96.4992 227.1C96.8992 227.1 97.1992 227 97.3992 226.7C97.6992 226.5 97.7992 226.1 97.7992 225.8V223.9C97.7992 223.7 97.7992 223.5 97.6992 223.4C97.5992 223.3 97.4992 223.1 97.3992 222.9C97.2992 222.8 97.0992 222.7 96.9992 222.6C96.7992 222.5 96.5992 222.5 96.4992 222.5C96.3992 222.5 96.0992 222.5 95.9992 222.6C95.8992 222.7 95.6992 222.8 95.5992 222.9C95.4992 223 95.3992 223.2 95.2992 223.4C95.1992 223.6 95.1992 223.8 95.1992 223.9V225.8C95.1992 226.2 95.2992 226.5 95.5992 226.7C95.8992 227 96.1992 227.1 96.4992 227.1Z" fill="white"/>
<path d="M145.997 237.099H144.297V207.199C145.697 206.899 146.997 206.199 147.897 205.099C148.797 203.999 149.297 202.599 149.297 201.099V196.799V196.699V196.599V196.499L144.597 186.999V186.199H80.7969V186.999L76.0969 196.499V196.599V196.699V196.799V201.099C76.0969 202.499 76.5969 203.899 77.4969 205.099C78.3969 206.299 79.6969 206.999 81.0969 207.199V237.099H79.1969C78.2969 237.099 77.3969 237.499 76.7969 238.099C76.1969 238.699 75.7969 239.599 75.7969 240.499V243.899C75.7969 244.399 75.9969 244.799 76.2969 245.099C76.5969 245.399 77.0969 245.599 77.4969 245.599H147.697C148.197 245.599 148.597 245.399 148.897 245.099C149.197 244.799 149.397 244.299 149.397 243.899V240.499C149.397 240.099 149.297 239.599 149.097 239.199C148.897 238.799 148.697 238.399 148.297 238.099C147.997 237.799 147.597 237.499 147.197 237.399C146.897 237.199 146.397 237.099 145.997 237.099ZM147.197 201.099C147.197 202.199 146.797 203.199 145.997 203.899C145.197 204.699 144.197 205.099 143.197 205.099C142.197 205.099 141.097 204.699 140.397 203.899C139.597 203.099 139.197 202.099 139.197 201.099V197.999H147.197V201.099ZM142.697 188.399L146.497 195.999H138.797L136.097 188.399H142.697ZM133.897 188.399L136.597 195.999H128.797L127.197 188.399H133.897ZM136.997 197.999V201.099C136.997 201.599 136.897 202.099 136.697 202.599C136.497 203.099 136.197 203.499 135.797 203.899C135.397 204.299 134.997 204.599 134.497 204.799C133.997 204.999 133.497 205.099 132.997 205.099C132.497 205.099 131.997 204.999 131.497 204.799C130.997 204.599 130.597 204.299 130.197 203.899C129.797 203.499 129.497 203.099 129.297 202.599C129.097 202.099 128.997 201.599 128.997 201.099V197.999H136.997ZM124.997 188.399L126.597 195.999H118.697L118.197 188.399H124.997ZM126.897 197.999V201.099C126.897 202.199 126.497 203.199 125.697 203.899C124.897 204.699 123.897 205.099 122.897 205.099C121.897 205.099 120.797 204.699 120.097 203.899C119.297 203.099 118.897 202.099 118.897 201.099V197.999H126.897ZM109.297 188.399H116.097L116.597 195.999H108.697L109.297 188.399ZM108.597 197.999H116.597V201.099C116.597 202.199 116.197 203.199 115.397 203.899C114.597 204.699 113.597 205.099 112.597 205.099C111.497 205.099 110.497 204.699 109.797 203.899C109.097 203.099 108.597 202.099 108.597 201.099V197.999ZM100.297 188.399H107.097L106.597 195.999H98.6969L100.297 188.399ZM98.3969 198.099H106.397V201.199C106.397 202.299 105.997 203.299 105.197 203.999C104.397 204.799 103.397 205.199 102.397 205.199C101.297 205.199 100.297 204.799 99.5969 203.999C98.7969 203.199 98.3969 202.199 98.3969 201.199V198.099ZM102.497 207.299C103.497 207.299 104.497 207.099 105.397 206.599C106.297 206.099 106.997 205.499 107.597 204.599C108.197 205.399 108.897 206.099 109.797 206.599C110.697 207.099 111.697 207.299 112.697 207.299C113.697 207.299 114.697 207.099 115.597 206.599C116.497 206.099 117.197 205.499 117.797 204.599C118.397 205.399 119.097 206.099 119.997 206.599C120.897 207.099 121.897 207.299 122.897 207.299C123.897 207.299 124.897 207.099 125.797 206.599C126.697 206.099 127.397 205.499 127.997 204.599C128.597 205.399 129.297 206.099 130.197 206.599C131.097 207.099 132.097 207.299 133.097 207.299C134.097 207.299 135.097 207.099 135.997 206.599C136.897 206.099 137.597 205.499 138.197 204.599C138.697 205.299 139.297 205.899 139.897 206.299C140.597 206.699 141.397 207.099 142.197 207.199V237.099H101.697V213.199C101.697 212.699 101.497 212.199 101.097 211.799C100.697 211.399 100.197 211.199 99.6969 211.199H87.2969C86.7969 211.199 86.2969 211.399 85.8969 211.799C85.4969 212.199 85.2969 212.699 85.2969 213.199V237.099H83.3969V207.199C84.1969 207.099 84.9969 206.699 85.6969 206.299C86.3969 205.899 86.9969 205.299 87.3969 204.599C87.9969 205.399 88.6969 206.099 89.5969 206.599C90.4969 207.099 91.4969 207.299 92.4969 207.299C93.4969 207.299 94.4969 207.099 95.3969 206.599C96.2969 206.099 96.9969 205.499 97.5969 204.599C98.1969 205.399 98.8969 206.099 99.7969 206.599C100.497 206.999 101.497 207.299 102.497 207.299ZM99.3969 213.299V237.099H87.2969V213.299H99.3969ZM88.2969 201.099V197.999H96.2969V201.099C96.2969 202.199 95.8969 203.199 95.0969 203.899C94.2969 204.699 93.2969 205.099 92.2969 205.099C91.1969 205.099 90.1969 204.699 89.4969 203.899C88.6969 203.199 88.2969 202.199 88.2969 201.099ZM98.0969 188.399L96.4969 195.999H88.6969L91.3969 188.399H98.0969ZM82.5969 188.399H89.1969L86.4969 195.999H78.7969L82.5969 188.399ZM78.0969 201.099V197.999H86.0969V201.099C86.0969 202.199 85.6969 203.199 84.8969 203.899C84.0969 204.699 83.0969 205.099 82.0969 205.099C81.0969 205.099 79.9969 204.699 79.2969 203.899C78.4969 203.199 78.0969 202.199 78.0969 201.099ZM147.297 243.499H78.0969V240.499C78.0969 240.199 78.1969 239.899 78.3969 239.699C78.5969 239.499 78.8969 239.299 79.1969 239.299H145.897C146.197 239.299 146.497 239.399 146.797 239.699C146.997 239.899 147.197 240.199 147.197 240.599L147.297 243.499Z" fill="white"/>
<path d="M105.8 232.698H137.1C137.7 232.698 138.3 232.498 138.7 231.998C139.1 231.598 139.4 230.998 139.4 230.398V213.198C139.4 212.598 139.2 211.998 138.7 211.598C138.3 211.198 137.7 210.898 137.1 210.898H124C123.8 210.898 123.6 210.898 123.5 210.998C123.3 211.098 123.2 211.198 123 211.298C122.8 211.398 122.8 211.598 122.7 211.698C122.6 211.898 122.6 212.098 122.6 212.198C122.6 212.298 122.6 212.598 122.7 212.698C122.8 212.898 122.9 212.998 123 213.098C123.1 213.198 123.3 213.298 123.5 213.398C123.7 213.498 123.9 213.498 124 213.498H136.7V229.998H106.2V213.498H118.9C119.1 213.498 119.3 213.498 119.4 213.398C119.5 213.298 119.7 213.198 119.9 213.098C120.1 212.998 120.1 212.798 120.2 212.698C120.3 212.498 120.3 212.298 120.3 212.198C120.3 212.098 120.3 211.798 120.2 211.698C120.1 211.498 120 211.398 119.9 211.298C119.8 211.198 119.6 211.098 119.4 210.998C119.2 210.898 119 210.898 118.9 210.898H105.8C105.2 210.898 104.6 211.098 104.2 211.598C103.8 211.998 103.5 212.598 103.5 213.198V230.398C103.5 230.998 103.7 231.598 104.2 231.998C104.7 232.398 105.2 232.698 105.8 232.698Z" fill="white"/>
<path d="M112.4 169C108.6 169 106.5 172.4 106.5 177.4C106.5 178.5 106.6 179.7 106.9 180.8C107.1 181.6 107.4 182.3 107.7 183C108.1 183.8 108.8 184.6 109.6 185C110.4 185.5 111.3 185.7 112.3 185.7C113.3 185.7 114.2 185.5 115 185C115.8 184.5 116.5 183.8 116.9 182.9C117.3 182.2 117.6 181.5 117.7 180.7C118 179.5 118.1 178.3 118.1 177.2C118.1 172.5 116.3 169 112.4 169ZM114.7 180.8C114.6 181.6 114.1 182.4 113.5 183C113.2 183.3 112.7 183.4 112.3 183.4C111.9 183.4 111.4 183.2 111.1 183C110.5 182.4 110 181.7 109.9 180.8C109.6 179.7 109.5 178.6 109.5 177.4C109.5 173.3 110.6 171.3 112.3 171.3C114.1 171.3 115 173.5 115 177.3C115.1 178.5 114.9 179.6 114.7 180.8Z" fill="white"/>
<path d="M126.9 169C123.1 169 121 172.4 121 177.4C121 178.5 121.1 179.7 121.4 180.8C121.6 181.6 121.9 182.3 122.2 183C122.6 183.8 123.3 184.6 124.1 185C124.9 185.5 125.8 185.7 126.8 185.7C127.8 185.7 128.7 185.5 129.6 185C130.4 184.5 131.1 183.8 131.6 182.9C132 182.2 132.2 181.5 132.4 180.7C132.7 179.5 132.8 178.3 132.8 177.2C132.6 172.5 130.8 169 126.9 169ZM129.2 180.8C129.1 181.6 128.6 182.4 128 183C127.7 183.3 127.2 183.4 126.8 183.4C126.4 183.4 125.9 183.2 125.6 183C125 182.4 124.5 181.7 124.4 180.8C124.1 179.7 124 178.5 124.1 177.4C124.1 173.3 125.2 171.3 126.9 171.3C128.7 171.3 129.6 173.5 129.6 177.3C129.6 178.5 129.5 179.6 129.2 180.8Z" fill="white"/>
<path d="M92.5977 185.4V183.6L94.4976 181.9C98.2976 178.4 99.9976 176.5 99.9976 174.4C99.9976 173 99.1976 171.7 97.1976 171.7C95.9976 171.8 94.7976 172.2 93.7976 173L92.8976 170.9C94.2976 169.8 95.9976 169.2 97.7976 169.3C101.298 169.3 102.998 171.5 102.998 174.1C102.998 176.9 100.998 179.1 98.2976 181.7L96.8976 182.9H103.398V185.4H92.5977Z" fill="white"/>
</g>
<path d="M212.498 182.4L211.198 180.7L210.398 181.3V182.4H212.498ZM233.898 149.5L232.398 151L232.498 151.1L232.698 151.2L233.898 149.5ZM233.898 149.5L235.398 148L235.298 147.9L235.237 147.87L233.898 149.5ZM212.498 133.4H210.398V134.5L211.198 135.1L212.498 133.4ZM210.398 182.4V315.816H214.598V182.4H210.398ZM232.698 164.7L211.298 180.8L213.798 184.2L235.198 168.1L232.698 164.7ZM239.498 157.9C239.498 158.4 239.298 159 238.198 160.2C236.998 161.4 235.298 162.7 232.598 164.7L235.098 168.1C237.598 166.2 239.698 164.7 241.098 163.2C242.598 161.7 243.5 160.1 243.5 158H239.498V157.9ZM232.698 151.2C235.298 153.2 237.098 154.5 238.298 155.7C239.398 156.8 239.5 157.5 239.5 158H243.5C243.5 155.9 242.698 154.2 241.298 152.8C239.898 151.4 237.798 149.8 235.298 147.9L232.698 151.2ZM211.198 135.1L232.698 151.2L234.137 149.62L235.237 147.87L213.698 131.7L211.198 135.1ZM210.398 0V133.4H214.598V0H212.498H210.398Z" fill="#65FFAE"/>
<defs>
<linearGradient id="paint0_linear_1137_3277" x1="-16.959" y1="157.926" x2="240.589" y2="157.926" gradientUnits="userSpaceOnUse">
<stop stop-color="white"/>
<stop offset="1" stop-color="#C6FFE1"/>
</linearGradient>
<linearGradient id="paint1_linear_1137_3277" x1="112.646" y1="149.514" x2="112.646" y2="270.777" gradientUnits="userSpaceOnUse">
<stop stop-color="#006630"/>
<stop offset="1" stop-color="#138F4C"/>
</linearGradient>
</defs>
</svg>
