<svg width="262" height="316" viewBox="0 0 262 316" fill="none" xmlns="http://www.w3.org/2000/svg">
<path fill-rule="evenodd" clip-rule="evenodd" d="M228.4 0.0078125H0V315.808H228.4V182.408L249.8 166.308C254.9 162.408 257.5 160.508 257.5 157.908C257.5 155.308 254.9 153.308 249.8 149.508L228.4 133.408V0.0078125Z" fill="url(#paint0_linear_1137_3043)"/>
<path d="M94 66.207V63.807L99.7 57.907C101 56.607 101.6 55.507 101.6 54.607C101.6 54.007 101.4 53.407 101 53.007C100.6 52.607 100.1 52.407 99.5 52.407C98.3 52.407 97.3 53.007 96.7 54.307L94 52.707C94.5 51.607 95.3 50.707 96.2 50.107C97.2 49.507 98.3 49.207 99.4 49.207C100.9 49.207 102.2 49.707 103.3 50.607C104.4 51.507 104.9 52.807 104.9 54.407C104.9 56.107 104 57.907 102.2 59.707L99 62.907H105.2V66.107H94V66.207ZM113.2 66.507C111.1 66.507 109.5 65.707 108.3 64.207C107.1 62.607 106.5 60.507 106.5 57.907C106.5 55.307 107.1 53.207 108.3 51.607C109.5 50.007 111.1 49.207 113.2 49.207C115.3 49.207 116.9 50.007 118.1 51.607C119.3 53.207 119.9 55.207 119.9 57.907C119.9 60.507 119.3 62.607 118.1 64.207C116.9 65.707 115.3 66.507 113.2 66.507ZM110.7 61.907C111.3 62.807 112.1 63.307 113.2 63.307C114.3 63.307 115.1 62.807 115.7 61.907C116.3 61.007 116.6 59.607 116.6 57.907C116.6 56.107 116.3 54.807 115.7 53.907C115.1 53.007 114.3 52.507 113.2 52.507C112.1 52.507 111.3 53.007 110.7 53.907C110.1 54.807 109.8 56.207 109.8 57.907C109.8 59.607 110.1 61.007 110.7 61.907ZM124.8 49.607H127.6V66.207H124.3V53.107L121.2 54.007L120.4 51.207L124.8 49.607ZM134 49.607H136.8V66.207H133.5V53.107L130.4 54.007L129.6 51.207L134 49.607Z" fill="black"/>
<path d="M51.1 92.2063H56.6V93.3063H49.9V81.4062H51.1V92.2063ZM65 84.8063H66.1V93.3063H65V91.6062C64.2 92.9062 63.1 93.5062 61.6 93.5062C60.4 93.5062 59.3 93.1063 58.5 92.2063C57.6 91.3063 57.2 90.3062 57.2 89.0062C57.2 87.7062 57.6 86.7063 58.5 85.8063C59.4 84.9063 60.4 84.5062 61.6 84.5062C63.1 84.5062 64.3 85.1063 65 86.4062V84.8063ZM59.3 91.4062C59.9 92.0063 60.7 92.4062 61.7 92.4062C62.6 92.4062 63.4 92.1062 64.1 91.4062C64.7 90.7063 65.1 89.9062 65.1 89.0062C65.1 88.1062 64.8 87.3062 64.1 86.6062C63.5 85.9062 62.7 85.6062 61.7 85.6062C60.8 85.6062 60 85.9062 59.3 86.6062C58.7 87.2062 58.3 88.0062 58.3 89.0062C58.3 90.0062 58.6 90.8062 59.3 91.4062ZM74.5 84.8063H75.6V93.3063H74.5V92.0062C73.9 93.0062 72.9 93.5062 71.6 93.5062C70.6 93.5062 69.7 93.2062 69.1 92.6062C68.6 91.9062 68.3 91.1062 68.3 90.0062V84.8063H69.4V90.0062C69.4 90.8062 69.6 91.4063 70 91.8063C70.4 92.2063 71 92.4062 71.7 92.4062C72.5 92.4062 73.2 92.1062 73.7 91.6062C74.2 91.1062 74.5 90.3063 74.5 89.2063V84.8063ZM82 84.6062C83 84.6062 83.8 84.9062 84.4 85.6062C85 86.2062 85.3 87.1062 85.3 88.1062V93.3063H84.2V88.1062C84.2 87.3062 84 86.7063 83.6 86.3063C83.2 85.9063 82.6 85.7063 81.9 85.7063C81.1 85.7063 80.4 86.0062 79.9 86.5062C79.4 87.0062 79.1 87.8062 79.1 88.9062V93.4062H78V84.9062H79.1V86.2063C79.8 85.1063 80.8 84.6062 82 84.6062ZM91.5 93.5062C90.2 93.5062 89.1 93.1063 88.3 92.2063C87.4 91.3063 87 90.3062 87 89.0062C87 87.7062 87.4 86.7063 88.3 85.8063C89.2 84.9063 90.2 84.5062 91.5 84.5062C92.3 84.5062 93.1 84.7062 93.8 85.1062C94.5 85.5062 95 86.0063 95.3 86.7063L94.3 87.3063C94.1 86.8063 93.7 86.4062 93.2 86.1062C92.7 85.8062 92.1 85.6062 91.5 85.6062C90.6 85.6062 89.8 85.9062 89.1 86.6062C88.5 87.2062 88.1 88.0062 88.1 89.0062C88.1 89.9062 88.4 90.7063 89.1 91.4062C89.7 92.0063 90.5 92.4062 91.5 92.4062C92.1 92.4062 92.7 92.3062 93.2 92.0062C93.7 91.7062 94.1 91.3063 94.4 90.8063L95.3 91.3063C94.9 92.0063 94.4 92.5062 93.7 92.9062C93.1 93.3063 92.4 93.5062 91.5 93.5062ZM100.9 84.6062C101.9 84.6062 102.7 84.9062 103.3 85.6062C103.9 86.2062 104.2 87.1062 104.2 88.1062V93.3063H103.1V88.1062C103.1 87.3062 102.9 86.7063 102.5 86.3063C102.1 85.9063 101.5 85.7063 100.8 85.7063C100 85.7063 99.3 86.0062 98.8 86.5062C98.3 87.0062 98 87.8062 98 88.9062V93.4062H96.9V81.4062H98V86.1062C98.7 85.1062 99.7 84.6062 100.9 84.6062ZM110.4 84.6062C111.7 84.6062 112.7 85.0063 113.5 85.9062C114.3 86.8062 114.7 87.8062 114.7 89.1062C114.7 89.2062 114.7 89.4062 114.7 89.6062H107.2C107.3 90.5062 107.7 91.2063 108.3 91.7063C108.9 92.2063 109.7 92.5062 110.6 92.5062C111.2 92.5062 111.8 92.4062 112.3 92.1062C112.8 91.8062 113.1 91.5062 113.4 91.0062L114.4 91.6062C114 92.2062 113.5 92.7062 112.9 93.0062C112.3 93.4062 111.5 93.5062 110.7 93.5062C109.4 93.5062 108.3 93.1063 107.4 92.2063C106.6 91.4063 106.1 90.3062 106.1 89.0062C106.1 87.7062 106.5 86.7063 107.3 85.8063C108 85.0063 109.1 84.6062 110.4 84.6062ZM110.4 85.7063C109.5 85.7063 108.8 86.0062 108.2 86.5062C107.6 87.0062 107.3 87.7062 107.1 88.5062H113.5C113.4 87.6062 113 86.9062 112.5 86.4062C111.9 85.9062 111.2 85.7063 110.4 85.7063ZM123.8 81.4062H124.9V93.3063H123.8V91.6062C123 92.9062 121.9 93.5062 120.4 93.5062C119.2 93.5062 118.1 93.1063 117.3 92.2063C116.4 91.3063 116 90.3062 116 89.0062C116 87.7062 116.4 86.7063 117.3 85.8063C118.2 84.9063 119.2 84.5062 120.4 84.5062C121.9 84.5062 123.1 85.1063 123.8 86.4062V81.4062ZM118 91.4062C118.6 92.0063 119.4 92.4062 120.4 92.4062C121.3 92.4062 122.1 92.1062 122.8 91.4062C123.4 90.7063 123.8 89.9062 123.8 89.0062C123.8 88.1062 123.5 87.3062 122.8 86.6062C122.2 85.9062 121.4 85.6062 120.4 85.6062C119.5 85.6062 118.7 85.9062 118 86.6062C117.4 87.2062 117 88.0062 117 89.0062C117 90.0062 117.4 90.8062 118 91.4062ZM139.2 81.4062V82.5062H135.5V93.3063H134.3V82.5062H130.6V81.4062H139.2ZM144.7 84.6062C145.7 84.6062 146.5 84.9062 147.1 85.6062C147.7 86.2062 148 87.1062 148 88.1062V93.3063H146.9V88.1062C146.9 87.3062 146.7 86.7063 146.3 86.3063C145.9 85.9063 145.3 85.7063 144.6 85.7063C143.8 85.7063 143.1 86.0062 142.6 86.5062C142.1 87.0062 141.8 87.8062 141.8 88.9062V93.4062H140.7V81.4062H141.8V86.1062C142.5 85.1062 143.5 84.6062 144.7 84.6062ZM154.2 84.6062C155.5 84.6062 156.5 85.0063 157.3 85.9062C158.1 86.8062 158.5 87.8062 158.5 89.1062C158.5 89.2062 158.5 89.4062 158.5 89.6062H151C151.1 90.5062 151.5 91.2063 152.1 91.7063C152.7 92.2063 153.5 92.5062 154.4 92.5062C155 92.5062 155.6 92.4062 156.1 92.1062C156.6 91.8062 156.9 91.5062 157.2 91.0062L158.2 91.6062C157.8 92.2062 157.3 92.7062 156.7 93.0062C156.1 93.4062 155.3 93.5062 154.5 93.5062C153.2 93.5062 152.1 93.1063 151.2 92.2063C150.4 91.4063 149.9 90.3062 149.9 89.0062C149.9 87.7062 150.3 86.7063 151.1 85.8063C151.9 84.9063 152.9 84.6062 154.2 84.6062ZM154.2 85.7063C153.3 85.7063 152.6 86.0062 152 86.5062C151.4 87.0062 151.1 87.7062 150.9 88.5062H157.3C157.2 87.6062 156.8 86.9062 156.3 86.4062C155.6 85.9062 155 85.7063 154.2 85.7063ZM166.7 81.4062H167.7V93.3063H166.5V82.7063L163.8 83.5062L163.5 82.5062L166.7 81.4062ZM171.1 87.0062C171.1 87.4062 171.3 87.7062 171.6 87.9062C171.9 88.1063 172.4 88.3062 172.8 88.4062C173.3 88.5063 173.8 88.7063 174.3 88.8063C174.8 88.9063 175.2 89.2062 175.5 89.6062C175.8 90.0062 176 90.4062 176 91.0062C176 91.7062 175.7 92.3063 175.1 92.8063C174.5 93.3063 173.8 93.5062 172.9 93.5062C172.1 93.5062 171.4 93.3062 170.8 93.0062C170.2 92.6062 169.8 92.2062 169.6 91.6062L170.6 91.0062C170.8 91.4062 171 91.8062 171.5 92.1062C171.9 92.4062 172.4 92.5062 173 92.5062C173.6 92.5062 174 92.4063 174.4 92.2063C174.8 92.0063 175 91.6063 175 91.2063C175 90.8063 174.8 90.5063 174.5 90.3063C174.2 90.1063 173.7 89.9063 173.3 89.8063C172.8 89.7063 172.3 89.5063 171.8 89.4062C171.3 89.2062 170.9 89.0062 170.6 88.6062C170.3 88.2062 170.1 87.8063 170.1 87.2063C170.1 86.5063 170.4 85.9062 170.9 85.5062C171.5 85.0062 172.2 84.8063 173 84.8063C173.7 84.8063 174.3 85.0063 174.8 85.3063C175.3 85.6063 175.7 86.0062 176 86.6062L175.1 87.1062C174.8 86.3062 174.1 85.9062 173.1 85.9062C172.6 85.9062 172.2 86.0063 171.8 86.3063C171.3 86.2063 171.1 86.6062 171.1 87.0062ZM182.2 85.9062H179.7V91.1062C179.7 91.6062 179.8 91.9062 180 92.1062C180.2 92.3062 180.5 92.4062 180.8 92.4062C181.2 92.4062 181.6 92.4062 182.2 92.4062V93.4062C181 93.6063 180.1 93.5062 179.5 93.1062C178.9 92.7062 178.6 92.1062 178.6 91.1062V85.9062H176.8V84.8063H178.6V82.8063L179.7 82.5062V84.9062H182.2V85.9062ZM44.6 111.706C43.4 112.906 41.9 113.506 40.2 113.506C38.5 113.506 37 112.906 35.8 111.706C34.6 110.506 34 109.006 34 107.306C34 105.606 34.6 104.106 35.8 102.906C37 101.706 38.5 101.106 40.2 101.106C41.9 101.106 43.4 101.706 44.6 102.906C45.8 104.106 46.4 105.506 46.4 107.306C46.4 109.106 45.8 110.506 44.6 111.706ZM36.7 110.906C37.7 111.906 38.8 112.406 40.2 112.406C41.6 112.406 42.8 111.906 43.7 110.906C44.7 109.906 45.1 108.706 45.1 107.306C45.1 105.906 44.6 104.706 43.7 103.806C42.7 102.806 41.6 102.306 40.2 102.306C38.8 102.306 37.6 102.806 36.7 103.806C35.7 104.806 35.3 105.906 35.3 107.306C35.3 108.706 35.7 109.906 36.7 110.906ZM54.3 104.806H55.4V113.306H54.3V112.006C53.7 113.006 52.7 113.506 51.4 113.506C50.4 113.506 49.5 113.206 48.9 112.606C48.3 112.006 48 111.106 48 110.006V104.806H49.3V110.006C49.3 110.806 49.5 111.406 49.9 111.806C50.3 112.206 50.9 112.406 51.6 112.406C52.4 112.406 53.1 112.106 53.6 111.606C54.1 111.106 54.4 110.306 54.4 109.206V104.806H54.3ZM62.4 105.906H59.9V111.106C59.9 111.606 60 111.906 60.2 112.106C60.4 112.306 60.7 112.406 61 112.406C61.4 112.406 61.8 112.406 62.4 112.406V113.406C61.2 113.606 60.3 113.506 59.7 113.106C59.1 112.706 58.8 112.106 58.8 111.106V105.906H57V104.806H58.8V102.806L59.9 102.506V104.906H62.4V105.906ZM64.2 113.306V100.806H65.3V113.206H64.2V113.306ZM71.7 104.606C73 104.606 74 105.006 74.8 105.906C75.6 106.806 76 107.806 76 109.106C76 109.206 76 109.406 76 109.606H68.5C68.6 110.506 69 111.206 69.6 111.706C70.2 112.206 71 112.506 71.9 112.506C72.5 112.506 73.1 112.406 73.6 112.106C74.1 111.806 74.4 111.506 74.7 111.006L75.7 111.606C75.3 112.206 74.8 112.706 74.2 113.006C73.6 113.406 72.8 113.506 72 113.506C70.7 113.506 69.6 113.106 68.7 112.206C67.9 111.406 67.4 110.306 67.4 109.006C67.4 107.706 67.8 106.706 68.6 105.806C69.4 104.906 70.4 104.606 71.7 104.606ZM71.7 105.706C70.8 105.706 70.1 106.006 69.5 106.506C68.9 107.006 68.6 107.706 68.4 108.506H74.8C74.7 107.606 74.3 106.906 73.8 106.406C73.1 105.906 72.5 105.706 71.7 105.706ZM82 105.906H79.5V111.106C79.5 111.606 79.6 111.906 79.8 112.106C80 112.306 80.3 112.406 80.6 112.406C81 112.406 81.4 112.406 82 112.406V113.406C80.8 113.606 79.9 113.506 79.3 113.106C78.7 112.706 78.4 112.106 78.4 111.106V105.906H76.6V104.806H78.4V102.806L79.5 102.506V104.906H82V105.906ZM88.3 101.406H89.5V113.306H88.3V101.406ZM96 104.606C97 104.606 97.8 104.906 98.4 105.606C99 106.206 99.3 107.106 99.3 108.106V113.306H98.3V108.106C98.3 107.306 98.1 106.706 97.7 106.306C97.3 105.906 96.7 105.706 96 105.706C95.2 105.706 94.5 106.006 94 106.506C93.5 107.006 93.2 107.806 93.2 108.906V113.406H92.1V104.906H93.2V106.206C93.8 105.106 94.8 104.606 96 104.606ZM111.6 113.506C109.8 113.506 108.3 112.906 107.1 111.706C105.9 110.506 105.3 109.006 105.3 107.306C105.3 105.606 105.9 104.106 107.1 102.906C108.3 101.706 109.8 101.106 111.6 101.106C112.7 101.106 113.7 101.406 114.6 101.906C115.5 102.406 116.2 103.106 116.7 104.006L115.6 104.606C115.2 103.906 114.7 103.306 113.9 102.906C113.2 102.506 112.3 102.306 111.5 102.306C110 102.306 108.8 102.806 107.9 103.706C107 104.706 106.5 105.906 106.5 107.306C106.5 108.706 107 109.906 107.9 110.906C108.8 111.906 110.1 112.406 111.5 112.406C112.4 112.406 113.2 112.206 113.9 111.806C114.6 111.406 115.2 110.806 115.6 110.106L116.7 110.706C116.2 111.606 115.5 112.306 114.6 112.806C113.7 113.206 112.7 113.506 111.6 113.506ZM122.5 104.606C123.5 104.606 124.3 104.906 124.9 105.606C125.5 106.206 125.8 107.106 125.8 108.106V113.306H124.7V108.106C124.7 107.306 124.5 106.706 124.1 106.306C123.7 105.906 123.1 105.706 122.4 105.706C121.6 105.706 120.9 106.006 120.4 106.506C119.9 107.006 119.6 107.806 119.6 108.906V113.406H118.5V101.406H119.6V106.106C120.3 105.106 121.2 104.606 122.5 104.606ZM135.4 104.806H136.5V113.306H135.4V111.606C134.6 112.806 133.5 113.506 132 113.506C130.8 113.506 129.7 113.106 128.9 112.206C128 111.306 127.6 110.306 127.6 109.006C127.6 107.706 128 106.706 128.9 105.806C129.8 104.906 130.8 104.506 132 104.506C133.5 104.506 134.7 105.106 135.4 106.406V104.806ZM129.6 111.406C130.2 112.006 131 112.406 132 112.406C132.9 112.406 133.7 112.106 134.4 111.406C135 110.706 135.4 109.906 135.4 109.006C135.4 108.106 135.1 107.306 134.4 106.606C133.8 105.906 133 105.606 132 105.606C131.1 105.606 130.3 105.906 129.6 106.606C129 107.206 128.6 108.006 128.6 109.006C128.6 110.006 129 110.806 129.6 111.406ZM142.9 104.606C143.9 104.606 144.7 104.906 145.3 105.606C145.9 106.206 146.2 107.106 146.2 108.106V113.306H145.1V108.106C145.1 107.306 144.9 106.706 144.5 106.306C144.1 105.906 143.5 105.706 142.8 105.706C142 105.706 141.3 106.006 140.8 106.506C140.3 107.006 140 107.806 140 108.906V113.406H138.9V104.906H140V106.206C140.6 105.106 141.6 104.606 142.9 104.606ZM155.7 101.406H156.8V113.306H155.7V111.606C154.9 112.806 153.8 113.506 152.3 113.506C151.1 113.506 150 113.106 149.2 112.206C148.3 111.306 147.9 110.306 147.9 109.006C147.9 107.706 148.3 106.706 149.2 105.806C150.1 104.906 151.1 104.506 152.3 104.506C153.8 104.506 155 105.106 155.7 106.406V101.406ZM150 111.406C150.6 112.006 151.4 112.406 152.4 112.406C153.3 112.406 154.1 112.106 154.8 111.406C155.4 110.706 155.8 109.906 155.8 109.006C155.8 108.106 155.5 107.306 154.8 106.606C154.2 105.906 153.4 105.606 152.4 105.606C151.5 105.606 150.7 105.906 150 106.606C149.4 107.206 149 108.006 149 109.006C149 110.006 149.3 110.806 150 111.406ZM160.4 102.706C160.2 102.906 160 102.906 159.8 102.906C159.6 102.906 159.4 102.806 159.2 102.706C159 102.506 159 102.306 159 102.106C159 101.906 159.1 101.706 159.2 101.506C159.4 101.306 159.6 101.306 159.8 101.306C160 101.306 160.2 101.406 160.4 101.506C160.6 101.706 160.6 101.906 160.6 102.106C160.6 102.306 160.5 102.606 160.4 102.706ZM159.2 113.306V104.806H160.3V113.306H159.2ZM170.1 104.806H171.2V113.306H170.1V111.606C169.3 112.806 168.2 113.506 166.7 113.506C165.5 113.506 164.4 113.106 163.6 112.206C162.7 111.306 162.3 110.306 162.3 109.006C162.3 107.706 162.7 106.706 163.6 105.806C164.5 104.906 165.5 104.506 166.7 104.506C168.2 104.506 169.4 105.106 170.1 106.406V104.806ZM164.3 111.406C164.9 112.006 165.7 112.406 166.7 112.406C167.6 112.406 168.4 112.106 169.1 111.406C169.7 110.706 170.1 109.906 170.1 109.006C170.1 108.106 169.8 107.306 169.1 106.606C168.5 105.906 167.7 105.606 166.7 105.606C165.8 105.606 165 105.906 164.3 106.606C163.7 107.206 163.3 108.006 163.3 109.006C163.3 110.006 163.7 110.806 164.3 111.406ZM180.9 104.806H182V113.006C182 114.206 181.6 115.206 180.7 115.906C179.9 116.606 178.9 117.006 177.7 117.006C175.7 117.006 174.4 116.306 173.7 114.906L174.7 114.306C175.2 115.306 176.2 115.906 177.8 115.906C178.8 115.906 179.5 115.606 180.1 115.106C180.7 114.606 181 113.906 181 113.006V111.706C180.2 112.906 179.1 113.606 177.6 113.606C176.4 113.606 175.3 113.206 174.5 112.306C173.6 111.406 173.2 110.406 173.2 109.106C173.2 107.806 173.6 106.806 174.5 105.906C175.4 105.006 176.4 104.606 177.6 104.606C179.1 104.606 180.3 105.206 181 106.506V104.806H180.9ZM175.2 111.406C175.8 112.006 176.6 112.406 177.6 112.406C178.5 112.406 179.3 112.106 180 111.406C180.6 110.706 181 109.906 181 109.006C181 108.106 180.7 107.306 180 106.606C179.4 105.906 178.6 105.606 177.6 105.606C176.7 105.606 175.9 105.906 175.2 106.606C174.6 107.206 174.2 108.006 174.2 109.006C174.2 110.006 174.5 110.806 175.2 111.406ZM185.5 106.206C186 105.206 186.9 104.606 188.2 104.606V105.706C187.4 105.706 186.8 105.906 186.3 106.406C185.8 106.906 185.5 107.606 185.5 108.506V113.206H184.4V104.706H185.5V106.206ZM193.8 104.606C194.8 104.606 195.6 104.906 196.2 105.606C196.8 106.206 197.1 107.106 197.1 108.106V113.306H196V108.106C196 107.306 195.8 106.706 195.4 106.306C195 105.906 194.4 105.706 193.7 105.706C192.9 105.706 192.2 106.006 191.7 106.506C191.2 107.006 190.9 107.806 190.9 108.906V113.406H189.8V101.406H190.9V106.106C191.5 105.106 192.5 104.606 193.8 104.606Z" fill="black"/>
<mask id="mask0_1137_3043" style="mask-type:luminance" maskUnits="userSpaceOnUse" x="55" y="149" width="122" height="123">
<path d="M176.3 149.707H55V271.007H176.3V149.707Z" fill="white"/>
</mask>
<g mask="url(#mask0_1137_3043)">
<path d="M175.798 210.305C175.798 243.505 148.898 270.505 115.598 270.505C82.3984 270.505 55.3984 243.605 55.3984 210.305C55.3984 177.105 82.2984 150.105 115.598 150.105C148.898 150.205 175.798 177.105 175.798 210.305Z" fill="white"/>
<path d="M175.798 210.305C175.798 243.505 148.898 270.505 115.598 270.505C82.3984 270.505 55.3984 243.605 55.3984 210.305C55.3984 177.105 82.2984 150.105 115.598 150.105C148.898 150.205 175.798 177.105 175.798 210.305Z" fill="url(#paint1_linear_1137_3043)"/>
<path d="M175.798 210.305C175.798 243.505 148.898 270.505 115.598 270.505C82.3984 270.505 55.3984 243.605 55.3984 210.305C55.3984 177.105 82.2984 150.105 115.598 150.105C148.898 150.205 175.798 177.105 175.798 210.305Z" stroke="#85FFBE" stroke-width="0.9474"/>
<path d="M161.398 216.205C160.998 215.505 160.498 214.805 159.898 214.305C159.298 213.805 158.498 213.305 157.698 213.105L146.198 209.305C144.998 208.805 143.698 208.805 142.398 209.105L140.898 209.905C137.498 212.405 132.098 215.105 129.898 214.005C129.098 213.605 128.598 212.405 128.598 210.505L128.698 180.805C128.698 179.405 128.098 178.105 127.198 177.105C126.198 176.105 124.898 175.605 123.498 175.605C122.098 175.605 120.798 176.205 119.798 177.105C119.298 176.605 118.698 176.205 118.098 176.005C117.498 175.705 116.798 175.605 116.098 175.605C115.398 175.605 114.698 175.705 114.098 176.005C113.498 176.305 112.898 176.705 112.398 177.105C111.698 176.405 110.798 175.905 109.798 175.705C108.798 175.505 107.798 175.605 106.798 176.005C105.798 176.405 104.998 177.005 104.398 177.905C103.798 178.705 103.498 179.705 103.398 180.705L99.8979 197.005L99.6978 197.705C99.5978 198.305 99.2979 198.905 98.8979 199.405C97.8979 200.605 96.4978 201.505 94.9978 201.805C93.4978 202.105 91.8978 201.805 90.4978 201.105L76.0978 192.105C75.3978 191.505 74.4978 191.205 73.5978 191.105C72.6978 191.005 71.7978 191.205 70.9978 191.705C70.1978 192.205 68.5978 193.705 69.2978 197.105L73.9978 221.005C77.1978 237.305 81.0978 244.705 95.8979 245.505L105.198 245.405L106.998 245.305C107.598 245.305 108.298 245.105 108.898 245.105H109.098C109.298 245.105 109.498 245.005 109.698 245.005C113.998 244.305 118.098 242.805 121.898 240.805C126.998 238.005 131.698 234.605 135.898 230.605L138.298 228.305C139.398 227.305 140.598 226.505 141.998 226.005C143.398 225.505 144.798 225.305 146.198 225.305L153.898 226.005C157.798 226.305 160.398 224.805 161.598 221.505C161.898 220.705 161.998 219.905 161.898 219.005C161.998 217.805 161.798 217.005 161.398 216.205ZM158.898 220.005C158.398 221.305 157.498 222.705 154.298 222.405L146.498 221.705C142.698 221.605 138.998 222.905 136.298 225.505L133.898 227.905C129.898 231.705 125.498 235.005 120.598 237.605C116.998 239.605 112.998 241.005 108.898 241.605L103.098 242.105H102.598C102.298 242.105 101.898 242.105 101.598 242.105H98.9978C84.6978 242.105 80.8978 237.205 77.6978 222.205L77.5978 221.805L76.8979 218.305L72.4978 196.205C72.2978 195.105 72.3978 194.305 72.7978 194.105C73.0978 194.005 73.3978 194.005 73.6978 194.005C73.9978 194.105 74.2978 194.205 74.4978 194.405L88.9978 203.605C90.9978 204.805 93.3978 205.105 95.6978 204.705C97.9978 204.305 99.9978 203.005 101.498 201.205C102.098 200.405 102.598 199.405 102.798 198.405L106.598 181.105V180.705C106.598 180.405 106.698 180.105 106.798 179.805C106.898 179.505 107.098 179.305 107.398 179.105C107.598 178.905 107.898 178.805 108.198 178.705C108.498 178.605 108.798 178.605 109.098 178.705C109.598 178.805 110.098 179.105 110.398 179.505C110.698 179.905 110.898 180.405 110.898 180.905V186.405C110.898 186.705 110.998 187.005 111.198 187.305C111.398 187.605 111.598 187.705 111.898 187.905C112.098 188.005 112.198 188.005 112.398 188.005C112.598 188.005 112.798 188.005 112.998 187.905C113.198 187.805 113.398 187.705 113.498 187.505C113.698 187.305 113.798 187.205 113.898 187.005C113.998 186.805 113.998 186.605 113.998 186.405V180.905C113.998 180.305 114.198 179.805 114.598 179.405C114.998 179.005 115.498 178.705 116.098 178.705C116.398 178.705 116.698 178.705 116.998 178.805C117.298 178.905 117.498 179.105 117.698 179.305C117.898 179.505 118.098 179.705 118.198 180.005C118.298 180.305 118.398 180.605 118.398 180.905V186.405C118.398 186.805 118.498 187.205 118.798 187.505C119.098 187.805 119.398 188.005 119.798 188.005C119.998 188.005 120.198 188.005 120.398 187.905C120.598 187.805 120.798 187.705 120.898 187.605C120.998 187.505 121.198 187.305 121.298 187.105C121.398 186.905 121.398 186.705 121.398 186.505V180.905C121.398 180.305 121.698 179.805 122.098 179.505C122.498 179.105 122.998 178.905 123.598 178.905C124.098 178.905 124.698 179.105 125.098 179.505C125.498 179.905 125.698 180.405 125.798 180.905L125.698 210.605C125.698 210.705 125.698 210.905 125.698 211.005C125.698 212.905 126.398 214.705 127.598 216.105C127.898 216.405 128.298 216.705 128.698 216.905C130.298 217.705 132.298 217.505 134.298 216.905L135.998 216.305C137.698 215.605 139.398 214.705 140.998 213.705L142.298 212.805L142.798 212.405C143.198 212.105 143.698 212.005 144.198 212.005C144.598 212.005 144.998 212.105 145.298 212.305L156.798 216.105C157.598 216.405 158.298 216.905 158.698 217.705C159.098 218.505 159.098 219.205 158.898 220.005Z" fill="white"/>
</g>
<path d="M230.498 182.4L229.198 180.7L228.398 181.3V182.4H230.498ZM251.898 149.5L250.398 151L250.498 151.1L250.698 151.2L251.898 149.5ZM251.898 149.5L253.398 148L253.298 147.9L253.237 147.87L251.898 149.5ZM230.498 133.4H228.398V134.5L229.198 135.1L230.498 133.4ZM228.398 182.4V315.816H232.598V182.4H228.398ZM250.698 164.7L229.298 180.8L231.798 184.2L253.198 168.1L250.698 164.7ZM257.498 157.9C257.498 158.4 257.298 159 256.198 160.2C254.998 161.4 253.298 162.7 250.598 164.7L253.098 168.1C255.598 166.2 257.698 164.7 259.098 163.2C260.598 161.7 261.5 160.1 261.5 158H257.498V157.9ZM250.698 151.2C253.298 153.2 255.098 154.5 256.298 155.7C257.398 156.8 257.5 157.5 257.5 158H261.5C261.5 155.9 260.698 154.2 259.298 152.8C257.898 151.4 255.798 149.8 253.298 147.9L250.698 151.2ZM229.198 135.1L250.698 151.2L252.137 149.62L253.237 147.87L231.698 131.7L229.198 135.1ZM228.398 0V133.4H232.598V0H230.498H228.398Z" fill="#65FFAE"/>
<defs>
<linearGradient id="paint0_linear_1137_3043" x1="-0.0157" y1="157.934" x2="257.532" y2="157.934" gradientUnits="userSpaceOnUse">
<stop stop-color="white"/>
<stop offset="1" stop-color="#C6FFE1"/>
</linearGradient>
<linearGradient id="paint1_linear_1137_3043" x1="115.677" y1="149.721" x2="115.677" y2="270.984" gradientUnits="userSpaceOnUse">
<stop stop-color="#006630"/>
<stop offset="1" stop-color="#138F4C"/>
</linearGradient>
</defs>
</svg>
