<svg width="244" height="316" viewBox="0 0 244 316" fill="none" xmlns="http://www.w3.org/2000/svg">
<path fill-rule="evenodd" clip-rule="evenodd" d="M211.5 0H0V315.8H211.5V182.4L232.9 166.3C238 162.4 240.6 160.5 240.6 157.9C240.6 155.3 238 153.3 232.9 149.5L211.5 133.4V0Z" fill="url(#paint0_linear_1137_3278)"/>
<path d="M90.1016 66V63.6L95.8016 57.8C97.1016 56.5 97.7016 55.4 97.7016 54.5C97.7016 53.9 97.5016 53.3 97.1016 52.9C96.7016 52.5 96.2016 52.3 95.6016 52.3C94.4016 52.3 93.4016 52.9 92.8016 54.2L90.1016 52.6C90.6016 51.5 91.4016 50.6 92.3016 50C93.2016 49.4 94.4016 49.1 95.5016 49.1C97.0016 49.1 98.3016 49.6 99.4016 50.5C100.502 51.4 101.002 52.7 101.002 54.3C101.002 56 100.102 57.8 98.3016 59.6L95.1016 62.8H101.302V66H90.1016ZM109.202 66.3C107.102 66.3 105.502 65.5 104.302 64C103.102 62.4 102.502 60.3 102.502 57.7C102.502 55.1 103.102 53 104.302 51.4C105.502 49.8 107.102 49 109.202 49C111.302 49 112.902 49.8 114.102 51.4C115.302 53 115.902 55 115.902 57.7C115.902 60.3 115.302 62.4 114.102 64C112.902 65.5 111.302 66.3 109.202 66.3ZM106.702 61.7C107.302 62.6 108.102 63.1 109.202 63.1C110.302 63.1 111.102 62.6 111.702 61.7C112.302 60.8 112.602 59.4 112.602 57.7C112.602 55.9 112.302 54.6 111.702 53.7C111.102 52.8 110.302 52.3 109.202 52.3C108.102 52.3 107.302 52.8 106.702 53.7C106.102 54.6 105.802 56 105.802 57.7C105.802 59.4 106.102 60.8 106.702 61.7ZM120.802 49.4H123.602V66H120.302V52.9L117.202 53.8L116.402 51L120.802 49.4ZM125.702 49.4H136.402V52.2L130.802 66H127.302L132.702 52.5H125.602V49.4H125.702Z" fill="black"/>
<path d="M40.3 92.3992C38.5 92.3992 37 91.7992 35.8 90.5992C34.6 89.3992 34 87.8992 34 86.1992C34 84.4992 34.6 82.9992 35.8 81.7992C37 80.5992 38.5 79.9992 40.3 79.9992C41.4 79.9992 42.4 80.2992 43.3 80.7992C44.2 81.2992 44.9 81.9992 45.4 82.8992L44.3 83.4992C43.9 82.7992 43.4 82.1992 42.6 81.7992C41.9 81.3992 41 81.1992 40.2 81.1992C38.7 81.1992 37.5 81.6992 36.6 82.5992C35.7 83.5992 35.2 84.7992 35.2 86.1992C35.2 87.5992 35.7 88.7992 36.6 89.7992C37.5 90.7992 38.8 91.1992 40.2 91.1992C41.1 91.1992 41.9 90.9992 42.6 90.5992C43.3 90.1992 43.9 89.5992 44.3 88.8992L45.4 89.4992C44.9 90.3992 44.2 91.0992 43.3 91.5992C42.5 92.0992 41.4 92.3992 40.3 92.3992ZM48.4 84.9992C48.9 83.9992 49.8 83.3992 51.1 83.3992V84.4992C50.3 84.4992 49.7 84.6992 49.2 85.1992C48.7 85.6992 48.4 86.3992 48.4 87.2992V91.9992H47.3V83.4992H48.4V84.9992ZM59.3 91.0992C58.4 91.9992 57.4 92.3992 56.1 92.3992C54.9 92.3992 53.8 91.9992 52.9 91.0992C52 90.1992 51.6 89.1992 51.6 87.8992C51.6 86.5992 52 85.5992 52.9 84.6992C53.8 83.7992 54.8 83.3992 56.1 83.3992C57.4 83.3992 58.4 83.7992 59.3 84.6992C60.2 85.5992 60.6 86.5992 60.6 87.8992C60.6 89.0992 60.2 90.1992 59.3 91.0992ZM53.7 90.2992C54.3 90.8992 55.1 91.2992 56.1 91.2992C57 91.2992 57.8 90.9992 58.5 90.2992C59.1 89.5992 59.5 88.7992 59.5 87.8992C59.5 86.9992 59.2 86.1992 58.5 85.4992C57.9 84.7992 57.1 84.4992 56.1 84.4992C55.2 84.4992 54.4 84.7992 53.7 85.4992C53.1 86.0992 52.7 86.8992 52.7 87.8992C52.8 88.7992 53.1 89.5992 53.7 90.2992ZM63.2 85.8992C63.2 86.2992 63.4 86.5992 63.7 86.7992C64 86.9992 64.5 87.1992 64.9 87.2992C65.4 87.3992 65.9 87.5992 66.4 87.6992C66.9 87.7992 67.3 88.0992 67.6 88.4992C67.9 88.8992 68.1 89.2992 68.1 89.8992C68.1 90.5992 67.8 91.1992 67.2 91.6992C66.6 92.1992 65.9 92.3992 65 92.3992C64.2 92.3992 63.5 92.1992 62.9 91.8992C62.3 91.4992 61.9 91.0992 61.7 90.4992L62.7 89.8992C62.9 90.2992 63.1 90.6992 63.6 90.9992C64 91.2992 64.5 91.3992 65.1 91.3992C65.7 91.3992 66.1 91.2992 66.5 91.0992C66.9 90.8992 67.1 90.4992 67.1 90.0992C67.1 89.6992 66.9 89.3992 66.6 89.1992C66.3 88.9992 65.8 88.7992 65.4 88.6992C64.9 88.5992 64.4 88.3992 63.9 88.2992C63.4 88.0992 63 87.8992 62.7 87.4992C62.4 87.0992 62.2 86.6992 62.2 86.0992C62.2 85.3992 62.5 84.7992 63 84.3992C63.6 83.8992 64.3 83.6992 65.1 83.6992C65.8 83.6992 66.4 83.8992 66.9 84.1992C67.4 84.4992 67.8 84.8992 68.1 85.4992L67.2 85.9992C66.9 85.1992 66.2 84.7992 65.2 84.7992C64.7 84.7992 64.3 84.8992 63.9 85.1992C63.4 85.0992 63.2 85.3992 63.2 85.8992ZM70.4 85.8992C70.4 86.2992 70.6 86.5992 70.9 86.7992C71.2 86.9992 71.7 87.1992 72.1 87.2992C72.6 87.3992 73.1 87.5992 73.6 87.6992C74.1 87.7992 74.5 88.0992 74.8 88.4992C75.1 88.8992 75.3 89.2992 75.3 89.8992C75.3 90.5992 75 91.1992 74.4 91.6992C73.8 92.1992 73.1 92.3992 72.2 92.3992C71.4 92.3992 70.7 92.1992 70.1 91.8992C69.5 91.4992 69.1 91.0992 68.9 90.4992L69.9 89.8992C70.1 90.2992 70.3 90.6992 70.8 90.9992C71.2 91.2992 71.7 91.3992 72.3 91.3992C72.9 91.3992 73.3 91.2992 73.7 91.0992C74.1 90.8992 74.3 90.4992 74.3 90.0992C74.3 89.6992 74.1 89.3992 73.8 89.1992C73.5 88.9992 73 88.7992 72.6 88.6992C72.1 88.5992 71.6 88.3992 71.1 88.2992C70.6 88.0992 70.2 87.8992 69.9 87.4992C69.6 87.0992 69.4 86.6992 69.4 86.0992C69.4 85.3992 69.7 84.7992 70.2 84.3992C70.8 83.8992 71.5 83.6992 72.3 83.6992C73 83.6992 73.6 83.8992 74.1 84.1992C74.6 84.4992 75 84.8992 75.3 85.4992L74.4 85.9992C74.1 85.1992 73.4 84.7992 72.4 84.7992C71.9 84.7992 71.5 84.8992 71.1 85.1992C70.6 85.0992 70.4 85.3992 70.4 85.8992ZM81 83.3992C82.3 83.3992 83.3 83.7992 84.1 84.6992C84.9 85.5992 85.3 86.5992 85.3 87.8992C85.3 87.9992 85.3 88.1992 85.3 88.3992H77.8C77.9 89.2992 78.3 89.9992 78.9 90.4992C79.5 90.9992 80.3 91.2992 81.2 91.2992C81.8 91.2992 82.4 91.1992 82.9 90.8992C83.4 90.5992 83.7 90.2992 84 89.7992L85 90.3992C84.6 90.9992 84.1 91.4992 83.5 91.7992C82.9 92.1992 82.1 92.2992 81.3 92.2992C80 92.2992 78.9 91.8992 78 90.9992C77.2 90.1992 76.7 89.0992 76.7 87.7992C76.7 86.4992 77.1 85.4992 77.9 84.5992C78.6 83.7992 79.7 83.3992 81 83.3992ZM81 84.4992C80.1 84.4992 79.4 84.7992 78.8 85.2992C78.2 85.7992 77.9 86.4992 77.7 87.2992H84.1C84 86.3992 83.6 85.6992 83.1 85.1992C82.4 84.7992 81.8 84.4992 81 84.4992ZM94.3 80.1992H95.4V92.0992H94.3V90.3992C93.5 91.6992 92.4 92.2992 90.9 92.2992C89.7 92.2992 88.6 91.8992 87.8 90.9992C86.9 90.0992 86.5 89.0992 86.5 87.7992C86.5 86.4992 86.9 85.4992 87.8 84.5992C88.7 83.6992 89.7 83.2992 90.9 83.2992C92.4 83.2992 93.6 83.8992 94.3 85.1992V80.1992ZM88.6 90.2992C89.2 90.8992 90 91.2992 91 91.2992C91.9 91.2992 92.7 90.9992 93.4 90.2992C94 89.5992 94.4 88.7992 94.4 87.8992C94.4 86.9992 94.1 86.1992 93.4 85.4992C92.8 84.7992 92 84.4992 91 84.4992C90.1 84.4992 89.3 84.7992 88.6 85.4992C88 86.0992 87.6 86.8992 87.6 87.8992C87.6 88.7992 87.9 89.5992 88.6 90.2992ZM104.3 80.1992H105.3V92.0992H104.2V81.4992L101.5 82.2992L101.2 81.2992L104.3 80.1992ZM115.4 90.6992C114.6 91.7992 113.5 92.3992 112.1 92.3992C110.7 92.3992 109.6 91.7992 108.8 90.6992C108 89.5992 107.6 88.0992 107.6 86.1992C107.6 84.2992 108 82.7992 108.8 81.6992C109.6 80.5992 110.7 79.9992 112.1 79.9992C113.5 79.9992 114.6 80.5992 115.4 81.6992C116.2 82.7992 116.6 84.2992 116.6 86.1992C116.6 88.0992 116.2 89.5992 115.4 90.6992ZM109.6 89.8992C110.2 90.7992 111 91.1992 112.1 91.1992C113.1 91.1992 114 90.7992 114.5 89.8992C115.1 88.9992 115.4 87.7992 115.4 86.1992C115.4 84.5992 115.1 83.3992 114.5 82.4992C113.9 81.5992 113.1 81.1992 112.1 81.1992C111.1 81.1992 110.2 81.5992 109.6 82.4992C109 83.3992 108.7 84.5992 108.7 86.1992C108.8 87.7992 109 88.9992 109.6 89.8992ZM126.2 90.6992C125.4 91.7992 124.3 92.3992 122.9 92.3992C121.5 92.3992 120.4 91.7992 119.6 90.6992C118.8 89.5992 118.4 88.0992 118.4 86.1992C118.4 84.2992 118.8 82.7992 119.6 81.6992C120.4 80.5992 121.5 79.9992 122.9 79.9992C124.3 79.9992 125.4 80.5992 126.2 81.6992C127 82.7992 127.4 84.2992 127.4 86.1992C127.3 88.0992 126.9 89.5992 126.2 90.6992ZM120.4 89.8992C121 90.7992 121.8 91.1992 122.9 91.1992C124 91.1992 124.8 90.7992 125.3 89.8992C125.9 88.9992 126.2 87.7992 126.2 86.1992C126.2 84.5992 125.9 83.3992 125.3 82.4992C124.7 81.5992 123.9 81.1992 122.9 81.1992C121.9 81.1992 121 81.5992 120.4 82.4992C119.8 83.3992 119.5 84.5992 119.5 86.1992C119.5 87.7992 119.8 88.9992 120.4 89.8992ZM143.7 90.5992C142.5 91.7992 141 92.3992 139.3 92.3992C137.6 92.3992 136.1 91.7992 134.9 90.5992C133.7 89.3992 133.1 87.8992 133.1 86.1992C133.1 84.4992 133.7 82.9992 134.9 81.7992C136.1 80.5992 137.6 79.9992 139.3 79.9992C141 79.9992 142.5 80.5992 143.7 81.7992C144.9 82.9992 145.5 84.3992 145.5 86.1992C145.5 87.8992 144.9 89.3992 143.7 90.5992ZM135.8 89.6992C136.8 90.6992 137.9 91.0992 139.3 91.0992C140.7 91.0992 141.9 90.5992 142.8 89.6992C143.8 88.6992 144.2 87.4992 144.2 86.0992C144.2 84.6992 143.7 83.4992 142.8 82.5992C141.8 81.5992 140.7 81.0992 139.3 81.0992C137.9 81.0992 136.7 81.5992 135.8 82.5992C134.8 83.5992 134.4 84.6992 134.4 86.0992C134.3 87.5992 134.8 88.7992 135.8 89.6992ZM153.4 83.5992H154.5V92.0992H153.4V90.7992C152.8 91.7992 151.8 92.2992 150.5 92.2992C149.5 92.2992 148.6 91.9992 148 91.3992C147.4 90.7992 147.1 89.8992 147.1 88.7992V83.5992H148.2V88.7992C148.2 89.5992 148.4 90.1992 148.8 90.5992C149.2 90.9992 149.8 91.1992 150.5 91.1992C151.3 91.1992 152 90.8992 152.5 90.3992C153 89.8992 153.3 89.0992 153.3 87.9992V83.5992H153.4ZM161.5 84.6992H159V89.8992C159 90.3992 159.1 90.6992 159.3 90.8992C159.5 91.0992 159.8 91.1992 160.1 91.1992C160.5 91.1992 160.9 91.1992 161.5 91.1992V92.1992C160.3 92.3992 159.4 92.2992 158.8 91.8992C158.2 91.4992 157.9 90.8992 157.9 89.8992V84.6992H156.1V83.5992H157.9V81.5992L159 81.2992V83.6992H161.5V84.6992ZM163.3 92.0992V79.6992H164.4V92.0992H163.3ZM170.8 83.3992C172.1 83.3992 173.1 83.7992 173.9 84.6992C174.7 85.5992 175.1 86.5992 175.1 87.8992C175.1 87.9992 175.1 88.1992 175.1 88.3992H167.6C167.7 89.2992 168.1 89.9992 168.7 90.4992C169.3 90.9992 170.1 91.2992 171 91.2992C171.6 91.2992 172.2 91.1992 172.7 90.8992C173.2 90.5992 173.5 90.2992 173.8 89.7992L174.8 90.3992C174.4 90.9992 173.9 91.4992 173.3 91.7992C172.7 92.1992 171.9 92.2992 171.1 92.2992C169.8 92.2992 168.7 91.8992 167.8 90.9992C166.9 90.0992 166.5 89.0992 166.5 87.7992C166.5 86.4992 166.9 85.4992 167.7 84.5992C168.4 83.7992 169.5 83.3992 170.8 83.3992ZM170.8 84.4992C169.9 84.4992 169.2 84.7992 168.6 85.2992C168 85.7992 167.7 86.4992 167.5 87.2992H173.9C173.8 86.3992 173.4 85.6992 172.9 85.1992C172.2 84.7992 171.6 84.4992 170.8 84.4992ZM181.1 84.6992H178.6V89.8992C178.6 90.3992 178.7 90.6992 178.9 90.8992C179.1 91.0992 179.4 91.1992 179.7 91.1992C180.1 91.1992 180.5 91.1992 181.1 91.1992V92.1992C179.9 92.3992 179 92.2992 178.4 91.8992C177.8 91.4992 177.5 90.8992 177.5 89.8992V84.6992H175.7V83.5992H177.5V81.5992L178.6 81.2992V83.6992H181.1V84.6992ZM183.3 85.8992C183.3 86.2992 183.5 86.5992 183.8 86.7992C184.1 86.9992 184.6 87.1992 185 87.2992C185.5 87.3992 186 87.5992 186.5 87.6992C187 87.7992 187.4 88.0992 187.7 88.4992C188 88.8992 188.2 89.2992 188.2 89.8992C188.2 90.5992 187.9 91.1992 187.3 91.6992C186.7 92.1992 186 92.3992 185.1 92.3992C184.3 92.3992 183.6 92.1992 183 91.8992C182.4 91.4992 182 91.0992 181.8 90.4992L182.8 89.8992C183 90.2992 183.2 90.6992 183.7 90.9992C184.1 91.2992 184.6 91.3992 185.2 91.3992C185.8 91.3992 186.2 91.2992 186.6 91.0992C187 90.8992 187.2 90.4992 187.2 90.0992C187.2 89.6992 187 89.3992 186.7 89.1992C186.4 88.9992 185.9 88.7992 185.5 88.6992C185 88.5992 184.5 88.3992 184 88.2992C183.5 88.0992 183.1 87.8992 182.8 87.4992C182.5 87.0992 182.3 86.6992 182.3 86.0992C182.3 85.3992 182.6 84.7992 183.1 84.3992C183.7 83.8992 184.4 83.6992 185.2 83.6992C185.9 83.6992 186.5 83.8992 187 84.1992C187.5 84.4992 187.9 84.8992 188.2 85.4992L187.2 85.6992C186.9 84.8992 186.2 84.4992 185.2 84.4992C184.7 84.4992 184.3 84.5992 183.9 84.8992C183.5 85.0992 183.3 85.3992 183.3 85.8992ZM69.4 112.099L68.3 109.199H62.6L61.5 112.099H60.2L64.8 100.199H66L70.6 112.099H69.4ZM63 108.099H67.8L65.4 101.699L63 108.099ZM72 112.099V99.6992H73.1V112.099H72ZM75.5 112.099V99.6992H76.6V112.099H75.5ZM93.3 110.599C92.1 111.799 90.6 112.399 88.9 112.399C87.2 112.399 85.7 111.799 84.5 110.599C83.3 109.399 82.7 107.899 82.7 106.199C82.7 104.499 83.3 102.999 84.5 101.799C85.7 100.599 87.2 99.9992 88.9 99.9992C90.6 99.9992 92.1 100.599 93.3 101.799C94.5 102.999 95.1 104.399 95.1 106.199C95.1 107.899 94.5 109.399 93.3 110.599ZM85.4 109.699C86.4 110.699 87.5 111.099 88.9 111.099C90.3 111.099 91.5 110.599 92.4 109.699C93.4 108.699 93.8 107.499 93.8 106.099C93.8 104.699 93.3 103.499 92.4 102.599C91.4 101.599 90.3 101.099 88.9 101.099C87.5 101.099 86.3 101.599 85.4 102.599C84.4 103.599 84 104.699 84 106.099C84 107.599 84.4 108.799 85.4 109.699ZM103.1 103.599H104.3L100.8 112.099H99.4L95.9 103.599H97.1L100.1 110.999L103.1 103.599ZM109.3 103.399C110.6 103.399 111.6 103.799 112.4 104.699C113.2 105.599 113.6 106.599 113.6 107.899C113.6 107.999 113.6 108.199 113.6 108.399H106.1C106.2 109.299 106.6 109.999 107.2 110.499C107.8 110.999 108.6 111.299 109.5 111.299C110.1 111.299 110.7 111.199 111.2 110.899C111.7 110.599 112 110.299 112.3 109.799L113.3 110.399C112.9 110.999 112.4 111.499 111.8 111.799C111.2 112.199 110.4 112.299 109.6 112.299C108.3 112.299 107.2 111.899 106.3 110.999C105.5 110.199 105 109.099 105 107.799C105 106.499 105.4 105.499 106.2 104.599C106.9 103.799 108 103.399 109.3 103.399ZM109.3 104.499C108.4 104.499 107.7 104.799 107.1 105.299C106.5 105.799 106.2 106.499 106 107.299H112.4C112.3 106.399 111.9 105.699 111.4 105.199C110.7 104.799 110 104.499 109.3 104.499ZM116.4 104.999C116.9 103.999 117.8 103.399 119.1 103.399V104.499C118.3 104.499 117.7 104.699 117.2 105.199C116.7 105.699 116.4 106.399 116.4 107.299V111.999H115.3V103.499H116.4V104.999ZM125.1 100.199H126.3V112.099H125.1V100.199ZM132.8 103.399C133.8 103.399 134.6 103.699 135.2 104.399C135.8 104.999 136.1 105.899 136.1 106.899V112.099H135V106.899C135 106.099 134.8 105.499 134.4 105.099C134 104.699 133.4 104.499 132.7 104.499C131.9 104.499 131.2 104.799 130.7 105.299C130.2 105.799 129.9 106.599 129.9 107.699V112.199H128.8V103.699H129.9V104.999C130.6 103.899 131.6 103.399 132.8 103.399ZM145.7 100.199H146.8V112.099H145.7V110.399C144.9 111.699 143.8 112.299 142.3 112.299C141.1 112.299 140 111.899 139.2 110.999C138.3 110.099 137.9 109.099 137.9 107.799C137.9 106.499 138.3 105.499 139.2 104.599C140.1 103.699 141.1 103.299 142.3 103.299C143.8 103.299 145 103.899 145.7 105.199V100.199ZM139.9 110.299C140.5 110.899 141.3 111.299 142.3 111.299C143.2 111.299 144 110.999 144.7 110.299C145.3 109.599 145.7 108.799 145.7 107.899C145.7 106.999 145.4 106.199 144.7 105.499C144.1 104.799 143.3 104.499 142.3 104.499C141.4 104.499 140.6 104.799 139.9 105.499C139.3 106.099 138.9 106.899 138.9 107.899C139 108.799 139.3 109.599 139.9 110.299ZM150.3 101.599C150.1 101.799 149.9 101.799 149.7 101.799C149.5 101.799 149.3 101.699 149.1 101.599C148.9 101.399 148.9 101.199 148.9 100.999C148.9 100.799 149 100.599 149.1 100.399C149.3 100.199 149.5 100.199 149.7 100.199C149.9 100.199 150.1 100.299 150.3 100.399C150.5 100.599 150.5 100.799 150.5 100.999C150.6 101.199 150.5 101.399 150.3 101.599ZM149.2 112.099V103.599H150.3V112.099H149.2ZM160 103.599H161.1V112.099H160V110.399C159.2 111.699 158.1 112.299 156.6 112.299C155.4 112.299 154.3 111.899 153.5 110.999C152.6 110.099 152.2 109.099 152.2 107.799C152.2 106.499 152.6 105.499 153.5 104.599C154.4 103.699 155.4 103.299 156.6 103.299C158.1 103.299 159.3 103.899 160 105.199V103.599ZM154.3 110.299C154.9 110.899 155.7 111.299 156.7 111.299C157.6 111.299 158.4 110.999 159.1 110.299C159.7 109.599 160.1 108.799 160.1 107.899C160.1 106.999 159.8 106.199 159.1 105.499C158.5 104.799 157.7 104.499 156.7 104.499C155.8 104.499 155 104.799 154.3 105.499C153.7 106.099 153.3 106.899 153.3 107.899C153.3 108.799 153.6 109.599 154.3 110.299Z" fill="black"/>
<mask id="mask0_1137_3278" style="mask-type:luminance" maskUnits="userSpaceOnUse" x="53" y="149" width="122" height="122">
<path d="M174.3 149.5H53V270.8H174.3V149.5Z" fill="white"/>
</mask>
<g mask="url(#mask0_1137_3278)">
<path d="M173.798 210.098C173.798 243.298 146.898 270.298 113.598 270.298C80.2985 270.298 53.3984 243.398 53.3984 210.098C53.3984 176.898 80.2985 149.898 113.598 149.898C146.898 149.898 173.798 176.898 173.798 210.098Z" fill="white"/>
<path d="M173.798 210.098C173.798 243.298 146.898 270.298 113.598 270.298C80.2985 270.298 53.3984 243.398 53.3984 210.098C53.3984 176.898 80.2985 149.898 113.598 149.898C146.898 149.898 173.798 176.898 173.798 210.098Z" fill="url(#paint1_linear_1137_3278)"/>
<path d="M173.798 210.098C173.798 243.298 146.898 270.298 113.598 270.298C80.2985 270.298 53.3984 243.398 53.3984 210.098C53.3984 176.898 80.2985 149.898 113.598 149.898C146.898 149.898 173.798 176.898 173.798 210.098Z" stroke="#85FFBE" stroke-width="0.9474"/>
<path d="M97.3 230.198C97.7 230.198 98 230.098 98.2 229.798C98.5 229.498 98.6 229.198 98.6 228.898V226.898C98.6 226.698 98.6 226.498 98.5 226.398C98.4 226.198 98.3 226.098 98.2 225.998C98.1 225.898 97.9 225.798 97.8 225.698C97.6 225.598 97.5 225.598 97.3 225.598C97.1 225.598 96.9 225.598 96.8 225.698C96.6 225.798 96.5 225.898 96.4 225.998C96.3 226.098 96.2 226.298 96.1 226.398C96 226.598 96 226.698 96 226.898V228.898C96 229.298 96.1 229.598 96.4 229.898C96.6 230.098 96.9 230.198 97.3 230.198Z" fill="white"/>
<path d="M147.298 240.3H145.498V210.1C146.898 209.8 148.198 209.1 149.198 208C150.098 206.9 150.698 205.5 150.698 204V199.7V199.6V199.5V199.4L145.798 189.8V189H81.3977V189.8L76.6977 199.4V199.5V199.6V199.7V204C76.6977 205.5 77.1977 206.9 78.1977 208C79.0977 209.1 80.3977 209.9 81.8977 210.1V240.3H79.9977C79.0977 240.3 78.1977 240.7 77.5977 241.3C76.9977 241.9 76.5977 242.8 76.5977 243.7V247.1C76.5977 247.6 76.7977 248 77.0977 248.3C77.3977 248.6 77.8977 248.8 78.2977 248.8H149.098C149.598 248.8 149.998 248.6 150.298 248.3C150.598 248 150.798 247.5 150.798 247.1V243.7C150.798 242.8 150.398 241.9 149.798 241.3C149.098 240.6 148.298 240.3 147.298 240.3ZM148.598 203.9C148.598 205 148.198 206 147.398 206.8C146.598 207.6 145.598 208 144.498 208C143.398 208 142.398 207.6 141.598 206.8C140.798 206 140.398 205 140.398 203.9V200.8H148.498V203.9H148.598ZM144.098 191L147.898 198.6H140.198L137.498 191H144.098ZM135.098 191L137.798 198.6H129.898L128.298 191H135.098ZM138.298 200.8V203.9C138.298 204.4 138.198 205 137.998 205.5C137.798 206 137.498 206.5 137.098 206.9C136.698 207.3 136.298 207.6 135.798 207.8C135.298 208 134.698 208.1 134.198 208.1C133.698 208.1 133.098 208 132.598 207.8C132.098 207.6 131.598 207.3 131.298 206.9C130.898 206.5 130.598 206 130.398 205.5C130.198 205 130.098 204.4 130.098 203.9V200.8H138.298ZM126.098 191L127.698 198.6H119.798L119.298 191H126.098ZM127.998 200.8V203.9C127.998 204.4 127.898 205 127.798 205.5C127.598 206 127.298 206.5 126.898 206.9C126.498 207.3 126.098 207.6 125.598 207.8C125.098 208 124.598 208.1 123.998 208.1C123.398 208.1 122.898 208 122.398 207.8C121.898 207.6 121.398 207.3 121.098 206.9C120.698 206.5 120.398 206 120.198 205.5C119.998 205 119.898 204.4 119.898 203.9V200.8H127.998ZM110.198 191H117.098L117.598 198.6H109.598L110.198 191ZM109.598 200.8H117.698V203.9C117.698 205 117.298 206 116.498 206.8C115.698 207.6 114.698 208 113.598 208C112.498 208 111.498 207.6 110.698 206.8C109.898 206 109.498 205 109.498 203.9V200.8H109.598ZM101.198 191H107.998L107.498 198.6H99.5977L101.198 191ZM99.2977 200.8H107.398V203.9C107.398 204.4 107.298 205 107.098 205.5C106.898 206 106.598 206.5 106.198 206.9C105.798 207.3 105.398 207.6 104.898 207.8C104.398 208 103.798 208.1 103.298 208.1C102.798 208.1 102.198 208 101.698 207.8C101.198 207.6 100.698 207.3 100.398 206.9C99.9977 206.5 99.6977 206 99.4977 205.5C99.2977 205 99.1977 204.4 99.1977 203.9V200.8H99.2977ZM103.298 210.1C104.298 210.1 105.298 209.9 106.198 209.4C107.098 208.9 107.898 208.2 108.398 207.4C108.998 208.2 109.698 208.9 110.598 209.4C111.498 209.9 112.498 210.1 113.498 210.1C114.498 210.1 115.498 209.9 116.398 209.4C117.298 208.9 118.098 208.2 118.598 207.4C119.198 208.2 119.898 208.9 120.798 209.4C121.698 209.9 122.698 210.1 123.698 210.1C124.698 210.1 125.698 209.9 126.598 209.4C127.498 208.9 128.298 208.2 128.798 207.4C129.398 208.2 130.098 208.9 130.998 209.4C131.898 209.9 132.898 210.1 133.898 210.1C134.898 210.1 135.898 209.9 136.798 209.4C137.698 208.9 138.498 208.2 138.998 207.4C139.498 208.1 140.098 208.7 140.798 209.1C141.498 209.5 142.298 209.9 143.098 210V240.2H102.098V216C102.098 215.7 101.998 215.5 101.898 215.2C101.798 215 101.598 214.7 101.498 214.5C101.298 214.3 101.098 214.2 100.798 214.1C100.598 214 100.298 213.9 99.9977 214H87.3977C87.0977 214 86.8977 214.1 86.5977 214.2C86.3977 214.3 86.0977 214.5 85.8977 214.6C85.6977 214.8 85.5977 215 85.4977 215.3C85.3977 215.5 85.2977 215.8 85.2977 216.1V240.3H83.3977V210.1C84.1977 210 84.9977 209.6 85.6977 209.2C86.3977 208.8 86.9977 208.2 87.4977 207.5C88.0977 208.3 88.7977 209 89.6977 209.5C90.5977 210 91.5977 210.2 92.5977 210.2C93.5977 210.2 94.5977 210 95.4977 209.5C96.3977 209 97.1977 208.3 97.6977 207.5C98.2977 208.3 98.9977 209 99.8977 209.5C101.298 209.9 102.298 210.1 103.298 210.1ZM100.198 216.2V240.3H87.8977V216.3L100.198 216.2ZM88.9977 203.9V200.8H97.0977V203.9C97.0977 204.9 96.5977 205.9 95.7977 206.6C94.9977 207.3 93.9977 207.7 92.9977 207.7C91.9977 207.7 90.9977 207.3 90.1977 206.6C89.4977 205.9 88.9977 205 88.9977 203.9ZM98.8977 191L97.2977 198.6H89.3977L92.0977 191H98.8977ZM83.1977 191H89.7977L87.0977 198.6H79.2977L83.1977 191ZM78.6977 203.9V200.8H86.7977V203.9C86.7977 204.4 86.6977 205 86.4977 205.5C86.2977 206 85.9977 206.4 85.5977 206.8C85.1977 207.2 84.7977 207.5 84.2977 207.7C83.7977 207.9 83.2977 208 82.6977 208C82.1977 208 81.5977 207.9 81.0977 207.7C80.5977 207.5 80.1977 207.2 79.7977 206.8C79.3977 206.4 79.0977 206 78.8977 205.5C78.7977 205 78.6977 204.5 78.6977 203.9ZM148.598 246.7H78.5977V243.7C78.5977 243.4 78.6977 243 78.9977 242.8C79.1977 242.6 79.5977 242.4 79.8977 242.4H147.398C147.698 242.4 148.098 242.5 148.298 242.8C148.498 243 148.698 243.4 148.698 243.7V246.7H148.598Z" fill="white"/>
<path d="M106.698 235.797H138.398C138.998 235.797 139.598 235.597 139.998 235.097C140.398 234.697 140.698 234.097 140.698 233.497V216.097C140.698 215.497 140.498 214.897 139.998 214.497C139.598 214.097 138.998 213.797 138.398 213.797H125.198C124.998 213.797 124.798 213.797 124.598 213.897C124.398 213.997 124.298 214.097 124.098 214.197C123.898 214.297 123.898 214.497 123.798 214.697C123.698 214.897 123.698 215.097 123.698 215.197C123.698 215.397 123.698 215.597 123.798 215.697C123.898 215.897 123.998 215.997 124.098 216.197C124.198 216.297 124.398 216.397 124.598 216.497C124.798 216.597 124.998 216.597 125.198 216.597H138.098V233.197H107.198V216.597H119.998C120.198 216.597 120.398 216.597 120.598 216.497C120.798 216.397 120.898 216.297 121.098 216.197C121.198 216.097 121.298 215.897 121.398 215.697C121.498 215.497 121.498 215.297 121.498 215.197C121.498 214.997 121.498 214.797 121.398 214.697C121.298 214.497 121.198 214.397 121.098 214.197C120.998 213.997 120.798 213.997 120.598 213.897C120.398 213.797 120.198 213.797 119.998 213.797H106.698C106.098 213.797 105.498 213.997 105.098 214.497C104.698 214.897 104.398 215.497 104.398 216.097V233.497C104.398 233.797 104.498 234.097 104.598 234.397C104.698 234.697 104.898 234.897 105.098 235.097C105.298 235.297 105.598 235.497 105.798 235.597C106.098 235.697 106.398 235.797 106.698 235.797Z" fill="white"/>
<path d="M100.498 171.699V188.099H97.4984V174.499H97.3984L94.3984 175.999L93.8984 173.699L97.8984 171.699H100.498Z" fill="white"/>
<path d="M113.098 171.398C109.298 171.398 107.098 174.798 107.098 179.898C107.098 181.098 107.198 182.198 107.498 183.298C107.698 184.098 107.998 184.798 108.298 185.498C108.698 186.398 109.398 187.098 110.198 187.598C110.998 188.098 111.998 188.398 112.898 188.398C113.898 188.398 114.798 188.198 115.698 187.698C116.498 187.198 117.198 186.498 117.698 185.598C118.098 184.898 118.298 184.198 118.498 183.398C118.798 182.198 118.898 180.998 118.898 179.798C118.898 174.898 117.098 171.398 113.098 171.398ZM115.398 183.298C115.298 184.098 114.798 184.898 114.198 185.498C113.898 185.798 113.398 185.898 112.998 185.898C112.598 185.898 112.098 185.698 111.798 185.498C111.198 184.898 110.698 184.198 110.598 183.298C110.298 182.198 110.198 180.998 110.198 179.898C110.198 175.798 111.298 173.798 112.998 173.798C114.898 173.798 115.798 175.998 115.798 179.798C115.898 180.998 115.698 182.198 115.398 183.298Z" fill="white"/>
<path d="M127.797 171.398C123.997 171.398 121.797 174.798 121.797 179.898C121.797 181.098 121.897 182.198 122.197 183.298C122.397 184.098 122.697 184.798 123.097 185.498C123.497 186.398 124.197 187.098 124.997 187.598C125.797 188.098 126.797 188.398 127.697 188.398C128.697 188.398 129.597 188.198 130.497 187.698C131.297 187.198 131.997 186.498 132.497 185.598C132.897 184.898 133.197 184.198 133.297 183.398C133.597 182.198 133.697 180.998 133.697 179.798C133.597 174.898 131.797 171.398 127.797 171.398ZM130.197 183.298C130.097 184.098 129.597 184.898 128.997 185.498C128.697 185.798 128.197 185.898 127.797 185.898C127.397 185.898 126.897 185.798 126.597 185.498C125.997 184.898 125.497 184.198 125.397 183.298C125.097 182.198 124.997 180.998 125.097 179.898C125.097 175.798 126.197 173.798 127.897 173.798C129.797 173.798 130.697 175.998 130.697 179.798C130.597 180.998 130.397 182.198 130.197 183.298Z" fill="white"/>
</g>
<path d="M212.498 182.4L211.198 180.7L210.398 181.3V182.4H212.498ZM233.898 149.5L232.398 151L232.498 151.1L232.698 151.2L233.898 149.5ZM233.898 149.5L235.398 148L235.298 147.9L235.237 147.87L233.898 149.5ZM212.498 133.4H210.398V134.5L211.198 135.1L212.498 133.4ZM210.398 182.4V315.816H214.598V182.4H210.398ZM232.698 164.7L211.298 180.8L213.798 184.2L235.198 168.1L232.698 164.7ZM239.498 157.9C239.498 158.4 239.298 159 238.198 160.2C236.998 161.4 235.298 162.7 232.598 164.7L235.098 168.1C237.598 166.2 239.698 164.7 241.098 163.2C242.598 161.7 243.5 160.1 243.5 158H239.498V157.9ZM232.698 151.2C235.298 153.2 237.098 154.5 238.298 155.7C239.398 156.8 239.5 157.5 239.5 158H243.5C243.5 155.9 242.698 154.2 241.298 152.8C239.898 151.4 237.798 149.8 235.298 147.9L232.698 151.2ZM211.198 135.1L232.698 151.2L234.137 149.62L235.237 147.87L213.698 131.7L211.198 135.1ZM210.398 0V133.4H214.598V0H212.498H210.398Z" fill="#65FFAE"/>
<defs>
<linearGradient id="paint0_linear_1137_3278" x1="-16.959" y1="157.926" x2="240.589" y2="157.926" gradientUnits="userSpaceOnUse">
<stop stop-color="white"/>
<stop offset="1" stop-color="#C6FFE1"/>
</linearGradient>
<linearGradient id="paint1_linear_1137_3278" x1="113.619" y1="149.514" x2="113.619" y2="270.777" gradientUnits="userSpaceOnUse">
<stop stop-color="#006630"/>
<stop offset="1" stop-color="#138F4C"/>
</linearGradient>
</defs>
</svg>
