<svg width="243" height="316" viewBox="0 0 243 316" fill="none" xmlns="http://www.w3.org/2000/svg">
<path fill-rule="evenodd" clip-rule="evenodd" d="M211.5 0H0V315.8H211.5V182.4L232.9 166.3C238 162.4 240.6 160.5 240.6 157.9C240.6 155.3 238 153.3 232.9 149.5L211.5 133.4V0Z" fill="url(#paint0_linear_1137_3109)"/>
<path d="M81 64V61.6L86.7 55.7C88 54.4 88.6 53.3 88.6 52.4C88.6 51.8 88.4 51.2 88 50.8C87.6 50.4 87.1 50.2 86.5 50.2C85.3 50.2 84.3 50.8 83.7 52.1L81 50.5C81.5 49.4 82.3 48.5 83.2 47.9C84.2 47.3 85.3 47 86.4 47C87.9 47 89.2 47.5 90.3 48.4C91.4 49.3 91.9 50.6 91.9 52.2C91.9 53.9 91 55.7 89.2 57.5L86 60.7H92.2V63.9H81V64ZM100.2 64.3C98.1 64.3 96.5 63.5 95.3 62C94.1 60.4 93.5 58.3 93.5 55.7C93.5 53.1 94.1 51 95.3 49.4C96.5 47.8 98.1 47 100.2 47C102.3 47 103.9 47.8 105.1 49.4C106.3 51 106.9 53 106.9 55.7C106.9 58.3 106.3 60.4 105.1 62C103.9 63.5 102.3 64.3 100.2 64.3ZM97.7 59.7C98.3 60.6 99.1 61.1 100.2 61.1C101.3 61.1 102.1 60.6 102.7 59.7C103.3 58.8 103.6 57.4 103.6 55.7C103.6 53.9 103.3 52.6 102.7 51.7C102.1 50.8 101.3 50.3 100.2 50.3C99.1 50.3 98.3 50.7 97.7 51.7C97.1 52.6 96.8 54 96.8 55.7C96.8 57.4 97.1 58.8 97.7 59.7ZM111.8 47.4H114.6V64H111.3V50.9L108.2 51.8L107.4 49L111.8 47.4ZM124.7 54.1C125.8 54.4 126.7 55 127.4 55.9C128.1 56.7 128.5 57.7 128.5 58.9C128.5 60.6 127.9 61.9 126.8 62.9C125.7 63.9 124.3 64.3 122.6 64.3C121.3 64.3 120.1 64 119.1 63.4C118.1 62.8 117.4 61.9 116.9 60.8L119.7 59.2C120.1 60.5 121.1 61.1 122.6 61.1C123.4 61.1 124.1 60.9 124.5 60.5C125 60.1 125.2 59.5 125.2 58.8C125.2 58.1 125 57.6 124.5 57.2C124 56.8 123.4 56.6 122.6 56.6H121.9L120.6 54.7L123.9 50.4H117.4V47.3H127.8V50L124.7 54.1Z" fill="black"/>
<path d="M40.2 89.9953H45.7V91.0953H39V79.1953H40.2V89.9953ZM54.1 82.5953H55.2V91.0953H54.1V89.3953C53.3 90.6953 52.2 91.2953 50.7 91.2953C49.5 91.2953 48.4 90.8953 47.6 89.9953C46.7 89.0953 46.3 88.0953 46.3 86.7953C46.3 85.4953 46.7 84.4953 47.6 83.5953C48.5 82.6953 49.5 82.2953 50.7 82.2953C52.2 82.2953 53.4 82.8953 54.1 84.1953V82.5953ZM48.3 89.1953C48.9 89.7953 49.7 90.1953 50.7 90.1953C51.6 90.1953 52.4 89.8953 53.1 89.1953C53.7 88.4953 54.1 87.6953 54.1 86.7953C54.1 85.8953 53.8 85.0953 53.1 84.3953C52.5 83.6953 51.7 83.3953 50.7 83.3953C49.8 83.3953 49 83.6953 48.3 84.3953C47.7 84.9953 47.3 85.7953 47.3 86.7953C47.3 87.7953 47.7 88.5953 48.3 89.1953ZM63.6 82.5953H64.7V91.0953H63.6V89.7953C63 90.7953 62 91.2953 60.7 91.2953C59.7 91.2953 58.8 90.9953 58.2 90.3953C57.6 89.7953 57.3 88.8953 57.3 87.7953V82.5953H58.4V87.7953C58.4 88.5953 58.6 89.1953 59 89.5953C59.4 89.9953 60 90.1953 60.7 90.1953C61.5 90.1953 62.2 89.8953 62.7 89.3953C63.2 88.8953 63.5 88.0953 63.5 86.9953V82.5953H63.6ZM71.1 82.3953C72.1 82.3953 72.9 82.6953 73.5 83.3953C74.1 83.9953 74.4 84.8953 74.4 85.8953V91.0953H73.3V85.8953C73.3 85.0953 73.1 84.4953 72.7 84.0953C72.3 83.6953 71.7 83.4953 71 83.4953C70.2 83.4953 69.5 83.7953 69 84.2953C68.5 84.7953 68.2 85.5953 68.2 86.6953V91.1953H67.1V82.6953H68.2V83.9953C68.8 82.8953 69.8 82.3953 71.1 82.3953ZM80.6 91.2953C79.3 91.2953 78.2 90.8953 77.4 89.9953C76.5 89.0953 76.1 88.0953 76.1 86.7953C76.1 85.4953 76.5 84.4953 77.4 83.5953C78.3 82.6953 79.3 82.2953 80.6 82.2953C81.4 82.2953 82.2 82.4953 82.9 82.8953C83.6 83.2953 84.1 83.7953 84.4 84.4953L83.5 84.9953C83.3 84.4953 82.9 84.0953 82.4 83.7953C81.9 83.4953 81.3 83.2953 80.7 83.2953C79.8 83.2953 79 83.5953 78.3 84.2953C77.7 84.8953 77.3 85.6953 77.3 86.6953C77.3 87.5953 77.6 88.3953 78.3 89.0953C78.9 89.6953 79.7 90.0953 80.7 90.0953C81.3 90.0953 81.9 89.9953 82.4 89.6953C82.9 89.3953 83.3 88.9953 83.6 88.4953L84.5 88.9953C84.1 89.6953 83.6 90.1953 82.9 90.5953C82.1 91.0953 81.4 91.2953 80.6 91.2953ZM90 82.3953C91 82.3953 91.8 82.6953 92.4 83.3953C93 83.9953 93.3 84.8953 93.3 85.8953V91.0953H92.2V85.8953C92.2 85.0953 92 84.4953 91.6 84.0953C91.2 83.6953 90.6 83.4953 89.9 83.4953C89.1 83.4953 88.4 83.7953 87.9 84.2953C87.4 84.7953 87.1 85.5953 87.1 86.6953V91.1953H86V79.1953H87.1V83.8953C87.8 82.8953 88.7 82.3953 90 82.3953ZM99.4 82.3953C100.7 82.3953 101.7 82.7953 102.5 83.6953C103.3 84.5953 103.7 85.5953 103.7 86.8953C103.7 86.9953 103.7 87.1953 103.7 87.3953H96.2C96.3 88.2953 96.7 88.9953 97.3 89.4953C97.9 89.9953 98.7 90.2953 99.6 90.2953C100.2 90.2953 100.8 90.1953 101.3 89.8953C101.8 89.5953 102.1 89.2953 102.4 88.7953L103.4 89.3953C103 89.9953 102.5 90.4953 101.9 90.7953C101.3 91.1953 100.5 91.2953 99.7 91.2953C98.4 91.2953 97.3 90.8953 96.4 89.9953C95.6 89.1953 95.1 88.0953 95.1 86.7953C95.1 85.4953 95.5 84.4953 96.3 83.5953C97.1 82.7953 98.1 82.3953 99.4 82.3953ZM99.4 83.4953C98.5 83.4953 97.8 83.7953 97.2 84.2953C96.6 84.7953 96.3 85.4953 96.1 86.2953H102.5C102.4 85.3953 102 84.6953 101.5 84.1953C100.9 83.6953 100.2 83.4953 99.4 83.4953ZM112.8 79.1953H113.9V91.0953H112.8V89.3953C112 90.6953 110.9 91.2953 109.4 91.2953C108.2 91.2953 107.1 90.8953 106.3 89.9953C105.4 89.0953 105 88.0953 105 86.7953C105 85.4953 105.4 84.4953 106.3 83.5953C107.2 82.6953 108.2 82.2953 109.4 82.2953C110.9 82.2953 112.1 82.8953 112.8 84.1953V79.1953ZM107 89.1953C107.6 89.7953 108.4 90.1953 109.4 90.1953C110.3 90.1953 111.1 89.8953 111.8 89.1953C112.4 88.4953 112.8 87.6953 112.8 86.7953C112.8 85.8953 112.5 85.0953 111.8 84.3953C111.2 83.6953 110.4 83.3953 109.4 83.3953C108.5 83.3953 107.7 83.6953 107 84.3953C106.4 84.9953 106 85.7953 106 86.7953C106.1 87.7953 106.4 88.5953 107 89.1953ZM128.2 79.1953V80.2953H124.6V91.0953H123.4V80.2953H119.7V79.1953H128.2ZM133.8 82.3953C134.8 82.3953 135.6 82.6953 136.2 83.3953C136.8 83.9953 137.1 84.8953 137.1 85.8953V91.0953H136V85.8953C136 85.0953 135.8 84.4953 135.4 84.0953C135 83.6953 134.4 83.4953 133.7 83.4953C132.9 83.4953 132.2 83.7953 131.7 84.2953C131.2 84.7953 130.9 85.5953 130.9 86.6953V91.1953H129.8V79.1953H130.9V83.8953C131.5 82.8953 132.5 82.3953 133.8 82.3953ZM143.2 82.3953C144.5 82.3953 145.5 82.7953 146.3 83.6953C147.1 84.5953 147.5 85.5953 147.5 86.8953C147.5 86.9953 147.5 87.1953 147.5 87.3953H140C140.1 88.2953 140.5 88.9953 141.1 89.4953C141.7 89.9953 142.5 90.2953 143.4 90.2953C144 90.2953 144.6 90.1953 145.1 89.8953C145.6 89.5953 145.9 89.2953 146.2 88.7953L147.2 89.3953C146.8 89.9953 146.3 90.4953 145.7 90.7953C145.1 91.1953 144.3 91.2953 143.5 91.2953C142.2 91.2953 141.1 90.8953 140.2 89.9953C139.4 89.1953 138.9 88.0953 138.9 86.7953C138.9 85.4953 139.3 84.4953 140.1 83.5953C140.8 82.7953 141.9 82.3953 143.2 82.3953ZM143.2 83.4953C142.3 83.4953 141.6 83.7953 141 84.2953C140.4 84.7953 140.1 85.4953 139.9 86.2953H146.3C146.2 85.3953 145.8 84.6953 145.3 84.1953C144.7 83.6953 144 83.4953 143.2 83.4953ZM155.7 79.1953H156.7V91.0953H155.6V80.4953L152.9 81.2953L152.6 80.2953L155.7 79.1953ZM160.2 84.7953C160.2 85.1953 160.4 85.4953 160.7 85.6953C161 85.8953 161.5 86.0953 161.9 86.1953C162.4 86.2953 162.9 86.4953 163.4 86.5953C163.9 86.6953 164.3 86.9953 164.6 87.3953C164.9 87.7953 165.1 88.1953 165.1 88.7953C165.1 89.4953 164.8 90.0953 164.2 90.5953C163.6 91.0953 162.9 91.2953 162 91.2953C161.2 91.2953 160.5 91.0953 159.9 90.7953C159.3 90.3953 158.9 89.9953 158.7 89.3953L159.7 88.7953C159.9 89.1953 160.1 89.5953 160.6 89.8953C161 90.1953 161.5 90.2953 162.1 90.2953C162.7 90.2953 163.1 90.1953 163.5 89.9953C163.9 89.7953 164.1 89.3953 164.1 88.9953C164.1 88.5953 163.9 88.2953 163.6 88.0953C163.3 87.8953 162.8 87.6953 162.4 87.5953C161.9 87.4953 161.4 87.2953 160.9 87.1953C160.4 86.9953 160 86.7953 159.7 86.3953C159.4 85.9953 159.2 85.5953 159.2 84.9953C159.2 84.2953 159.5 83.6953 160 83.2953C160.6 82.7953 161.3 82.5953 162.1 82.5953C162.8 82.5953 163.4 82.7953 163.9 83.0953C164.4 83.3953 164.8 83.7953 165.1 84.3953L164.2 84.8953C163.9 84.0953 163.2 83.6953 162.2 83.6953C161.7 83.6953 161.3 83.7953 160.9 84.0953C160.4 83.9953 160.2 84.3953 160.2 84.7953ZM171.2 83.6953H168.7V88.8953C168.7 89.3953 168.8 89.6953 169 89.8953C169.2 90.0953 169.5 90.1953 169.8 90.1953C170.2 90.1953 170.6 90.1953 171.2 90.1953V91.1953C170 91.3953 169.1 91.2953 168.5 90.8953C167.9 90.4953 167.6 89.8953 167.6 88.8953V83.6953H165.8V82.5953H167.6V80.5953L168.7 80.2953V82.6953H171.2V83.6953ZM49.1 100.295H43.6V104.695H48.9V105.795H43.6V111.095H42.4V99.1953H49.1V100.295ZM52.1 103.995C52.6 102.995 53.5 102.395 54.8 102.395V103.495C54 103.495 53.4 103.695 52.9 104.195C52.4 104.695 52.1 105.395 52.1 106.295V110.995H51V102.495H52.1V103.995ZM63.2 102.595H64.3V111.095H63.2V109.395C62.4 110.595 61.3 111.295 59.8 111.295C58.6 111.295 57.5 110.895 56.7 109.995C55.8 109.095 55.4 108.095 55.4 106.795C55.4 105.495 55.8 104.495 56.7 103.595C57.6 102.695 58.6 102.295 59.8 102.295C61.3 102.295 62.5 102.895 63.2 104.195V102.595ZM57.4 109.195C58 109.795 58.8 110.195 59.8 110.195C60.7 110.195 61.5 109.895 62.2 109.195C62.8 108.495 63.2 107.695 63.2 106.795C63.2 105.895 62.9 105.095 62.2 104.395C61.6 103.695 60.8 103.395 59.8 103.395C58.9 103.395 58.1 103.695 57.4 104.395C56.8 104.995 56.4 105.795 56.4 106.795C56.5 107.795 56.8 108.595 57.4 109.195ZM70.7 102.395C71.7 102.395 72.5 102.695 73.1 103.395C73.7 103.995 74 104.895 74 105.895V111.095H72.9V105.895C72.9 105.095 72.7 104.495 72.3 104.095C71.9 103.695 71.3 103.495 70.6 103.495C69.8 103.495 69.1 103.795 68.6 104.295C68.1 104.795 67.8 105.595 67.8 106.695V111.195H66.7V102.695H67.8V103.995C68.5 102.895 69.4 102.395 70.7 102.395ZM80.2 111.295C78.9 111.295 77.8 110.895 77 109.995C76.1 109.095 75.7 108.095 75.7 106.795C75.7 105.495 76.1 104.495 77 103.595C77.9 102.695 78.9 102.295 80.2 102.295C81 102.295 81.8 102.495 82.5 102.895C83.2 103.295 83.7 103.795 84 104.495L83.1 104.995C82.9 104.495 82.5 104.095 82 103.795C81.5 103.495 80.9 103.295 80.3 103.295C79.4 103.295 78.6 103.595 77.9 104.295C77.3 104.895 76.9 105.695 76.9 106.695C76.9 107.595 77.2 108.395 77.9 109.095C78.5 109.695 79.3 110.095 80.3 110.095C80.9 110.095 81.5 109.995 82 109.695C82.5 109.395 82.9 108.995 83.2 108.495L84.1 108.995C83.7 109.695 83.2 110.195 82.5 110.595C81.8 111.095 81 111.295 80.2 111.295ZM89.6 102.395C90.6 102.395 91.4 102.695 92 103.395C92.6 103.995 92.9 104.895 92.9 105.895V111.095H91.8V105.895C91.8 105.095 91.6 104.495 91.2 104.095C90.8 103.695 90.2 103.495 89.5 103.495C88.7 103.495 88 103.795 87.5 104.295C87 104.795 86.7 105.595 86.7 106.695V111.195H85.6V99.1953H86.7V103.895C87.4 102.895 88.3 102.395 89.6 102.395ZM96.3 100.495C96.1 100.695 95.9 100.695 95.7 100.695C95.5 100.695 95.3 100.595 95.1 100.495C94.9 100.295 94.9 100.095 94.9 99.8953C94.9 99.6953 95 99.4953 95.1 99.2953C95.3 99.0953 95.5 99.0953 95.7 99.0953C95.9 99.0953 96.1 99.1953 96.3 99.2953C96.5 99.4953 96.5 99.6953 96.5 99.8953C96.5 100.095 96.4 100.395 96.3 100.495ZM95.1 111.095V102.595H96.2V111.095H95.1ZM99.5 104.795C99.5 105.195 99.7 105.495 100 105.695C100.3 105.895 100.8 106.095 101.2 106.195C101.7 106.295 102.2 106.495 102.7 106.595C103.2 106.695 103.6 106.995 103.9 107.395C104.2 107.795 104.4 108.195 104.4 108.795C104.4 109.495 104.1 110.095 103.5 110.595C102.9 111.095 102.2 111.295 101.3 111.295C100.5 111.295 99.8 111.095 99.2 110.795C98.6 110.395 98.2 109.995 98 109.395L99 108.795C99.2 109.195 99.4 109.595 99.9 109.895C100.3 110.095 100.8 110.295 101.4 110.295C102 110.295 102.4 110.195 102.8 109.995C103.2 109.795 103.4 109.395 103.4 108.995C103.4 108.595 103.2 108.295 102.9 108.095C102.6 107.895 102.1 107.695 101.7 107.595C101.2 107.495 100.7 107.295 100.2 107.195C99.7 106.995 99.3 106.795 99 106.395C98.7 105.995 98.5 105.595 98.5 104.995C98.5 104.295 98.8 103.695 99.3 103.295C99.9 102.795 100.6 102.595 101.4 102.595C102.1 102.595 102.7 102.795 103.2 103.095C103.7 103.395 104.1 103.795 104.4 104.395L103.5 104.895C103.2 104.095 102.5 103.695 101.5 103.695C101 103.695 100.6 103.795 100.2 104.095C99.7 103.995 99.5 104.395 99.5 104.795ZM110.1 102.395C111.4 102.395 112.4 102.795 113.2 103.695C114 104.595 114.4 105.595 114.4 106.895C114.4 106.995 114.4 107.195 114.4 107.395H106.9C107 108.295 107.4 108.995 108 109.495C108.6 109.995 109.4 110.295 110.3 110.295C110.9 110.295 111.5 110.195 112 109.895C112.5 109.595 112.8 109.295 113.1 108.795L114.1 109.395C113.7 109.995 113.2 110.495 112.6 110.795C112 111.195 111.2 111.295 110.4 111.295C109.1 111.295 108 110.895 107.1 109.995C106.3 109.195 105.8 108.095 105.8 106.795C105.8 105.495 106.2 104.495 107 103.595C107.7 102.795 108.8 102.395 110.1 102.395ZM110.1 103.495C109.2 103.495 108.5 103.795 107.9 104.295C107.3 104.795 107 105.495 106.8 106.295H113.2C113.1 105.395 112.7 104.695 112.2 104.195C111.5 103.695 110.8 103.495 110.1 103.495ZM130.4 109.495C129.2 110.695 127.7 111.295 126 111.295C124.3 111.295 122.8 110.695 121.6 109.495C120.4 108.295 119.8 106.795 119.8 105.095C119.8 103.395 120.4 101.895 121.6 100.695C122.8 99.4953 124.3 98.8953 126 98.8953C127.7 98.8953 129.2 99.4953 130.4 100.695C131.6 101.895 132.2 103.295 132.2 105.095C132.2 106.895 131.6 108.295 130.4 109.495ZM122.5 108.695C123.5 109.695 124.6 110.195 126 110.195C127.4 110.195 128.6 109.695 129.5 108.695C130.5 107.695 130.9 106.495 130.9 105.095C130.9 103.695 130.4 102.495 129.5 101.595C128.5 100.595 127.4 100.095 126 100.095C124.6 100.095 123.4 100.595 122.5 101.595C121.5 102.595 121.1 103.695 121.1 105.095C121.1 106.495 121.5 107.695 122.5 108.695ZM140.1 102.595H141.2V111.095H140.1V109.795C139.5 110.795 138.5 111.295 137.2 111.295C136.2 111.295 135.3 110.995 134.7 110.395C134.1 109.795 133.8 108.895 133.8 107.795V102.595H134.9V107.795C134.9 108.595 135.1 109.195 135.5 109.595C135.9 109.995 136.5 110.195 137.2 110.195C138 110.195 138.7 109.895 139.2 109.395C139.7 108.895 140 108.095 140 106.995V102.595H140.1ZM148.2 103.695H145.7V108.895C145.7 109.395 145.8 109.695 146 109.895C146.2 110.095 146.5 110.195 146.8 110.195C147.2 110.195 147.6 110.195 148.2 110.195V111.195C147 111.395 146.1 111.295 145.5 110.895C144.9 110.495 144.6 109.895 144.6 108.895V103.695H142.8V102.595H144.6V100.595L145.7 100.295V102.695H148.2V103.695ZM150 111.095V98.5953H151.1V110.995H150V111.095ZM157.5 102.395C158.8 102.395 159.8 102.795 160.6 103.695C161.4 104.595 161.8 105.595 161.8 106.895C161.8 106.995 161.8 107.195 161.8 107.395H154.3C154.4 108.295 154.8 108.995 155.4 109.495C156 109.995 156.8 110.295 157.7 110.295C158.3 110.295 158.9 110.195 159.4 109.895C159.9 109.595 160.2 109.295 160.5 108.795L161.5 109.395C161.1 109.995 160.6 110.495 160 110.795C159.4 111.195 158.6 111.295 157.8 111.295C156.5 111.295 155.4 110.895 154.5 109.995C153.7 109.195 153.2 108.095 153.2 106.795C153.2 105.495 153.6 104.495 154.4 103.595C155.1 102.795 156.2 102.395 157.5 102.395ZM157.5 103.495C156.6 103.495 155.9 103.795 155.3 104.295C154.7 104.795 154.4 105.495 154.2 106.295H160.6C160.5 105.395 160.1 104.695 159.6 104.195C159 103.695 158.3 103.495 157.5 103.495ZM167.8 103.695H165.3V108.895C165.3 109.395 165.4 109.695 165.6 109.895C165.8 110.095 166.1 110.195 166.4 110.195C166.8 110.195 167.2 110.195 167.8 110.195V111.195C166.6 111.395 165.7 111.295 165.1 110.895C164.5 110.495 164.2 109.895 164.2 108.895V103.695H162.4V102.595H164.2V100.595L165.3 100.295V102.695H167.8V103.695Z" fill="black"/>
<mask id="mask0_1137_3109" style="mask-type:luminance" maskUnits="userSpaceOnUse" x="44" y="147" width="122" height="122">
<path d="M165.3 147.5H44V268.8H165.3V147.5Z" fill="white"/>
</mask>
<g mask="url(#mask0_1137_3109)">
<path d="M164.798 208.098C164.798 241.298 137.898 268.298 104.598 268.298C71.2985 268.298 44.3984 241.398 44.3984 208.098C44.3984 174.898 71.2985 147.898 104.598 147.898C137.898 147.898 164.798 174.898 164.798 208.098Z" fill="white"/>
<path d="M164.798 208.098C164.798 241.298 137.898 268.298 104.598 268.298C71.2985 268.298 44.3984 241.398 44.3984 208.098C44.3984 174.898 71.2985 147.898 104.598 147.898C137.898 147.898 164.798 174.898 164.798 208.098Z" fill="url(#paint1_linear_1137_3109)"/>
<path d="M164.798 208.098C164.798 241.298 137.898 268.298 104.598 268.298C71.2985 268.298 44.3984 241.398 44.3984 208.098C44.3984 174.898 71.2985 147.898 104.598 147.898C137.898 147.898 164.798 174.898 164.798 208.098Z" stroke="#85FFBE" stroke-width="0.9474"/>
<path d="M150.997 212.297L145.197 176.697C145.197 176.497 145.097 176.197 144.897 175.997C144.797 175.797 144.597 175.597 144.397 175.497C144.197 175.397 143.897 175.297 143.697 175.297C143.497 175.297 143.197 175.397 142.997 175.497L128.497 183.297C128.197 183.497 127.897 183.797 127.797 184.097C127.697 184.497 127.697 184.797 127.797 185.197L128.797 187.797C127.397 188.497 125.897 188.797 124.397 188.897C122.897 188.997 121.297 188.697 119.897 188.197C117.397 187.297 114.797 186.897 112.197 187.097C109.597 187.197 106.997 187.897 104.697 189.097C102.397 187.897 99.797 187.197 97.197 187.097C94.597 186.997 91.997 187.297 89.497 188.197C88.097 188.697 86.497 188.997 84.997 188.897C83.497 188.797 81.997 188.497 80.597 187.797L81.597 185.197C81.697 184.897 81.697 184.497 81.597 184.097C81.497 183.797 81.197 183.497 80.897 183.297L66.397 175.597C66.197 175.497 65.897 175.397 65.697 175.397C65.497 175.397 65.197 175.497 64.997 175.597C64.797 175.697 64.597 175.897 64.497 176.097C64.397 176.297 64.297 176.497 64.197 176.797L58.297 212.397C58.197 212.797 58.297 213.097 58.497 213.397C58.697 213.697 58.997 213.897 59.297 214.097L67.297 216.897C67.497 216.997 67.597 216.997 67.797 216.997C68.097 216.997 68.397 216.897 68.697 216.697C68.997 216.497 69.097 216.297 69.297 215.997L70.397 213.297L75.097 216.997C75.197 218.497 75.797 219.897 76.897 220.897C77.997 221.897 79.397 222.497 80.897 222.497H81.197C81.197 223.297 81.297 224.097 81.597 224.797C81.897 225.497 82.297 226.197 82.797 226.797C83.297 227.397 83.997 227.797 84.697 228.097C85.397 228.397 86.197 228.597 86.997 228.597H87.297C87.297 229.397 87.397 230.197 87.697 230.897C87.997 231.597 88.397 232.297 88.897 232.897C89.397 233.497 90.097 233.897 90.797 234.197C91.497 234.497 92.297 234.697 93.097 234.697C93.497 234.697 93.997 234.597 94.397 234.497C94.497 235.497 94.897 236.497 95.497 237.297C96.097 238.097 96.897 238.797 97.797 239.197C98.697 239.597 99.697 239.797 100.697 239.697C101.697 239.597 102.697 239.197 103.497 238.597L104.097 239.197C104.797 239.897 105.697 240.397 106.697 240.697C107.697 240.997 108.697 240.897 109.697 240.697C110.697 240.397 111.597 239.897 112.297 239.097C112.997 238.397 113.497 237.397 113.697 236.397C114.497 236.797 115.497 236.997 116.397 236.997C117.297 236.997 118.197 236.697 119.097 236.297C119.897 235.797 120.597 235.197 121.097 234.397C121.597 233.597 121.897 232.697 121.997 231.797C122.397 231.897 122.797 231.897 123.197 231.897C123.997 231.897 124.797 231.697 125.497 231.397C126.197 231.097 126.897 230.597 127.397 230.097C127.897 229.497 128.397 228.897 128.597 228.097C128.897 227.397 128.997 226.597 128.997 225.797H129.297C130.297 225.797 131.197 225.597 132.097 225.097C132.997 224.597 133.697 223.897 134.197 223.097C134.697 222.297 134.997 221.297 135.097 220.297C135.197 219.297 134.997 218.297 134.497 217.497L139.897 214.697L140.497 216.097C140.597 216.397 140.797 216.597 141.097 216.797C141.397 216.997 141.597 217.097 141.997 217.097C142.197 217.097 142.397 217.097 142.497 216.997L150.497 214.197C150.797 214.097 151.097 213.797 151.297 213.497C150.997 213.097 151.097 212.697 150.997 212.297ZM66.797 213.497L61.397 211.597L66.697 179.297L78.097 185.397L66.797 213.497ZM78.697 218.697C78.397 218.397 78.197 218.097 78.097 217.797C77.997 217.497 77.897 217.097 77.897 216.797C77.897 216.497 77.997 216.097 78.097 215.797C78.197 215.497 78.397 215.197 78.697 214.897L80.697 212.897C81.197 212.397 81.897 212.097 82.597 212.097C83.097 212.097 83.697 212.297 84.097 212.597C84.497 212.897 84.897 213.297 85.097 213.797C85.297 214.297 85.397 214.797 85.197 215.397C85.097 215.897 84.797 216.397 84.497 216.797L82.497 218.797C81.997 219.297 81.297 219.597 80.597 219.597C79.897 219.397 79.197 219.197 78.697 218.697ZM84.697 224.697C84.197 224.197 83.897 223.497 83.897 222.797C83.897 222.097 84.197 221.397 84.697 220.897L86.697 218.897L89.197 216.397C89.697 215.897 90.397 215.597 91.097 215.597C91.797 215.597 92.497 215.897 92.997 216.397C93.497 216.897 93.797 217.597 93.797 218.297C93.797 218.997 93.497 219.697 92.997 220.197L88.497 224.697C87.997 225.197 87.297 225.497 86.597 225.497C85.897 225.397 85.297 225.197 84.697 224.697ZM90.797 230.697C90.497 230.397 90.297 230.097 90.197 229.797C90.097 229.497 89.997 229.097 89.997 228.797C89.997 228.497 90.097 228.097 90.197 227.797C90.297 227.497 90.497 227.197 90.797 226.897L95.297 222.397C95.797 221.897 96.497 221.597 97.197 221.597C97.697 221.597 98.297 221.797 98.697 222.097C99.097 222.397 99.497 222.797 99.697 223.297C99.897 223.797 99.997 224.297 99.797 224.897C99.697 225.397 99.397 225.897 99.097 226.297L97.197 228.197L95.597 229.797L94.697 230.697C94.497 230.997 94.197 231.197 93.797 231.297C93.497 231.397 93.097 231.497 92.697 231.497C92.297 231.497 91.997 231.397 91.597 231.297C91.297 231.197 90.997 230.997 90.797 230.697ZM97.797 235.797C97.297 235.297 96.997 234.597 96.997 233.897C96.997 233.197 97.297 232.497 97.797 231.997L99.397 230.397C99.897 229.897 100.597 229.597 101.297 229.697C101.997 229.697 102.697 229.997 103.197 230.497C103.697 230.997 103.997 231.697 103.997 232.397C103.997 233.097 103.697 233.797 103.297 234.297L101.697 235.897C101.397 236.197 101.097 236.397 100.797 236.497C100.497 236.597 100.097 236.697 99.697 236.697C99.297 236.697 98.997 236.597 98.597 236.497C98.397 236.197 97.997 235.997 97.797 235.797ZM109.797 236.997C109.497 237.297 109.197 237.497 108.897 237.597C108.597 237.697 108.197 237.797 107.897 237.797C107.497 237.797 107.197 237.697 106.897 237.597C106.597 237.497 106.297 237.297 105.997 236.997L105.397 236.397L105.497 236.297C106.297 235.497 106.897 234.397 107.097 233.297C107.297 232.197 107.197 230.997 106.697 229.897L109.797 232.997C110.297 233.497 110.597 234.197 110.597 234.897C110.597 235.297 110.497 235.597 110.397 235.997C110.197 236.397 109.997 236.697 109.797 236.997ZM130.897 221.897C130.397 222.397 129.697 222.697 128.997 222.697C128.297 222.697 127.597 222.397 127.097 221.897L115.297 210.097C114.997 209.797 114.597 209.697 114.197 209.697C113.797 209.697 113.397 209.897 113.097 210.097C112.997 210.197 112.797 210.397 112.797 210.597C112.697 210.797 112.697 210.997 112.697 211.197C112.697 211.397 112.697 211.597 112.797 211.797C112.897 211.997 112.997 212.197 113.097 212.297L114.197 213.397L119.597 218.797L124.997 224.097C125.297 224.397 125.497 224.697 125.597 224.997C125.697 225.297 125.797 225.697 125.797 226.097C125.797 226.497 125.697 226.797 125.597 227.197C125.497 227.497 125.297 227.797 124.997 228.097C124.697 228.397 124.397 228.597 124.097 228.697C123.797 228.797 123.397 228.897 122.997 228.897C122.597 228.897 122.297 228.797 121.897 228.697C121.497 228.597 121.297 228.297 120.997 228.097L120.097 227.197L112.497 219.597C112.297 219.397 112.097 219.297 111.897 219.297C111.597 219.197 111.197 219.197 110.897 219.297C110.597 219.397 110.297 219.597 110.097 219.897C109.897 220.197 109.797 220.497 109.897 220.897C109.897 221.197 110.097 221.597 110.297 221.797L114.297 225.797L117.897 229.397C118.197 229.597 118.497 229.897 118.697 230.297C118.897 230.597 118.997 230.997 118.997 231.397C118.997 231.797 118.997 232.197 118.797 232.597C118.697 232.997 118.497 233.297 118.197 233.597C117.897 233.897 117.597 234.097 117.197 234.197C116.797 234.297 116.397 234.397 115.997 234.397C115.597 234.397 115.197 234.297 114.897 234.097C114.597 233.897 114.297 233.697 113.997 233.297L111.897 231.197L108.597 227.897C108.297 227.597 107.897 227.497 107.497 227.497C107.097 227.497 106.697 227.697 106.397 227.897C106.197 228.097 106.097 228.297 105.997 228.497C105.897 228.697 105.897 228.897 105.897 229.197C105.697 228.997 105.497 228.697 105.297 228.497C104.497 227.697 103.497 227.197 102.397 226.897C102.797 225.997 102.897 224.997 102.797 223.997C102.697 222.997 102.297 222.097 101.797 221.297C101.197 220.497 100.497 219.897 99.597 219.397C98.697 218.997 97.697 218.797 96.797 218.797C96.797 218.697 96.797 218.597 96.797 218.497C96.797 216.997 96.197 215.497 95.097 214.397C93.997 213.297 92.497 212.697 90.997 212.697C89.997 212.697 88.997 212.997 88.097 213.497C87.897 212.497 87.297 211.597 86.597 210.897C85.497 209.797 83.997 209.197 82.497 209.197C80.997 209.197 79.497 209.797 78.397 210.897L76.397 212.897C76.097 213.197 75.797 213.597 75.497 213.997L71.197 210.597L79.097 190.897C82.597 192.497 86.597 192.597 90.197 191.297C93.697 189.997 97.497 189.997 100.897 191.097L95.697 193.997C94.297 194.797 93.297 196.097 92.797 197.697C92.297 199.197 92.397 200.897 93.097 202.397C93.797 203.897 94.997 204.997 96.397 205.697C97.897 206.297 99.597 206.397 101.097 205.897L111.097 202.197C111.897 201.897 112.697 201.897 113.597 201.997C114.397 202.197 115.197 202.597 115.797 203.197L130.697 218.097C131.197 218.597 131.497 219.297 131.497 219.997C131.697 220.697 131.397 221.397 130.897 221.897ZM132.197 215.097L118.097 200.997C117.097 199.997 115.797 199.297 114.397 198.997C112.997 198.697 111.597 198.797 110.197 199.297L100.197 202.997C99.497 203.297 98.697 203.297 97.897 203.097C97.197 202.897 96.497 202.397 96.097 201.797C95.797 201.397 95.597 200.897 95.497 200.497C95.397 199.997 95.397 199.497 95.497 199.097C95.597 198.597 95.797 198.197 96.097 197.797C96.397 197.397 96.797 197.097 97.197 196.897L105.097 192.497C107.097 191.397 109.397 190.697 111.697 190.497C113.997 190.297 116.397 190.597 118.497 191.497C122.097 192.797 126.097 192.697 129.597 191.097L138.097 212.197L132.197 215.097ZM142.397 213.497L131.097 185.397L142.497 179.297L147.797 211.497L142.397 213.497Z" fill="white"/>
</g>
<path d="M211.498 182.4L210.198 180.7L209.398 181.3V182.4H211.498ZM232.898 149.5L231.398 151L231.498 151.1L231.698 151.2L232.898 149.5ZM232.898 149.5L234.398 148L234.298 147.9L234.237 147.87L232.898 149.5ZM211.498 133.4H209.398V134.5L210.198 135.1L211.498 133.4ZM209.398 182.4V315.816H213.598V182.4H209.398ZM231.698 164.7L210.298 180.8L212.798 184.2L234.198 168.1L231.698 164.7ZM238.498 157.9C238.498 158.4 238.298 159 237.198 160.2C235.998 161.4 234.298 162.7 231.598 164.7L234.098 168.1C236.598 166.2 238.698 164.7 240.098 163.2C241.598 161.7 242.5 160.1 242.5 158H238.498V157.9ZM231.698 151.2C234.298 153.2 236.098 154.5 237.298 155.7C238.398 156.8 238.5 157.5 238.5 158H242.5C242.5 155.9 241.698 154.2 240.298 152.8C238.898 151.4 236.798 149.8 234.298 147.9L231.698 151.2ZM210.198 135.1L231.698 151.2L233.137 149.62L234.237 147.87L212.698 131.7L210.198 135.1ZM209.398 0V133.4H213.598V0H211.498H209.398Z" fill="#65FFAE"/>
<defs>
<linearGradient id="paint0_linear_1137_3109" x1="-16.959" y1="157.926" x2="240.589" y2="157.926" gradientUnits="userSpaceOnUse">
<stop stop-color="white"/>
<stop offset="1" stop-color="#C6FFE1"/>
</linearGradient>
<linearGradient id="paint1_linear_1137_3109" x1="104.624" y1="147.514" x2="104.624" y2="268.777" gradientUnits="userSpaceOnUse">
<stop stop-color="#006630"/>
<stop offset="1" stop-color="#138F4C"/>
</linearGradient>
</defs>
</svg>
