<svg width="242" height="316" viewBox="0 0 242 316" fill="none" xmlns="http://www.w3.org/2000/svg">
<path fill-rule="evenodd" clip-rule="evenodd" d="M211.5 0H0V315.8H211.5V182.4L232.9 166.3C238 162.4 240.6 160.5 240.6 157.9C240.6 155.3 238 153.3 232.9 149.5L211.5 133.4V0Z" fill="url(#paint0_linear_1137_3276)"/>
<path d="M89.1016 66.3008V63.9008L94.8016 58.1008C96.1016 56.8008 96.7016 55.7008 96.7016 54.8008C96.7016 54.2008 96.5016 53.6008 96.1016 53.2008C95.7016 52.8008 95.2016 52.6008 94.6016 52.6008C93.4016 52.6008 92.4016 53.2008 91.8016 54.5008L89.1016 52.9008C89.6016 51.8008 90.4016 50.9008 91.3016 50.3008C92.2016 49.7008 93.4016 49.4008 94.5016 49.4008C96.0016 49.4008 97.3016 49.9008 98.4016 50.8008C99.5016 51.7008 100.002 53.0008 100.002 54.6008C100.002 56.3008 99.1016 58.1008 97.3016 59.9008L94.1016 63.1008H100.302V66.3008H89.1016ZM108.202 66.6008C106.102 66.6008 104.502 65.8008 103.302 64.3008C102.102 62.7008 101.502 60.6008 101.502 58.0008C101.502 55.4008 102.102 53.3008 103.302 51.7008C104.502 50.1008 106.102 49.3008 108.202 49.3008C110.302 49.3008 111.902 50.1008 113.102 51.7008C114.302 53.3008 114.902 55.3008 114.902 58.0008C114.902 60.6008 114.302 62.7008 113.102 64.3008C111.902 65.8008 110.302 66.6008 108.202 66.6008ZM105.702 62.0008C106.302 62.9008 107.102 63.4008 108.202 63.4008C109.302 63.4008 110.102 62.9008 110.702 62.0008C111.302 61.1008 111.602 59.7008 111.602 58.0008C111.602 56.2008 111.302 54.9008 110.702 54.0008C110.102 53.1008 109.302 52.6008 108.202 52.6008C107.102 52.6008 106.302 53.1008 105.702 54.0008C105.102 54.9008 104.802 56.3008 104.802 58.0008C104.802 59.7008 105.202 61.1008 105.702 62.0008ZM115.902 66.3008V63.9008L121.602 58.1008C122.902 56.8008 123.502 55.7008 123.502 54.8008C123.502 54.2008 123.302 53.6008 122.902 53.2008C122.502 52.8008 122.002 52.6008 121.402 52.6008C120.202 52.6008 119.202 53.2008 118.602 54.5008L115.902 52.9008C116.402 51.8008 117.202 50.9008 118.102 50.3008C119.002 49.7008 120.202 49.4008 121.302 49.4008C122.802 49.4008 124.102 49.9008 125.202 50.8008C126.302 51.7008 126.802 53.0008 126.802 54.6008C126.802 56.3008 125.902 58.1008 124.102 59.9008L120.902 63.1008H127.102V66.3008H115.902ZM132.102 49.7008H134.902V66.3008H131.602V53.2008L128.502 54.1008L127.702 51.3008L132.102 49.7008Z" fill="black"/>
<path d="M33.5031 93.5984C31.7031 93.5984 30.2031 92.9984 29.0031 91.7984C27.8031 90.5984 27.2031 89.0984 27.2031 87.3984C27.2031 85.6984 27.8031 84.1984 29.0031 82.9984C30.2031 81.7984 31.7031 81.1984 33.5031 81.1984C34.6031 81.1984 35.6031 81.4984 36.5031 81.9984C37.4031 82.4984 38.1031 83.1984 38.6031 84.0984L37.5031 84.6984C37.1031 83.9984 36.6031 83.3984 35.8031 82.9984C35.1031 82.5984 34.2031 82.3984 33.4031 82.3984C31.9031 82.3984 30.7031 82.8984 29.8031 83.7984C28.9031 84.7984 28.4031 85.9984 28.4031 87.3984C28.4031 88.7984 28.9031 89.9984 29.8031 90.9984C30.7031 91.9984 32.0031 92.3984 33.4031 92.3984C34.3031 92.3984 35.1031 92.1984 35.8031 91.7984C36.5031 91.3984 37.1031 90.7984 37.5031 90.0984L38.6031 90.6984C38.1031 91.5984 37.4031 92.2984 36.5031 92.7984C35.6031 93.2984 34.6031 93.5984 33.5031 93.5984ZM41.6031 86.2984C42.1031 85.2984 43.0031 84.6984 44.3031 84.6984V85.7984C43.5031 85.7984 42.9031 85.9984 42.4031 86.4984C41.9031 86.9984 41.6031 87.6984 41.6031 88.5984V93.2984H40.5031V84.7984H41.6031V86.2984ZM52.4031 92.2984C51.5031 93.1984 50.5031 93.5984 49.2031 93.5984C48.0031 93.5984 46.9031 93.1984 46.0031 92.2984C45.1031 91.3984 44.7031 90.3984 44.7031 89.0984C44.7031 87.7984 45.1031 86.7984 46.0031 85.8984C46.9031 84.9984 47.9031 84.5984 49.2031 84.5984C50.5031 84.5984 51.5031 84.9984 52.4031 85.8984C53.3031 86.7984 53.7031 87.7984 53.7031 89.0984C53.7031 90.3984 53.3031 91.4984 52.4031 92.2984ZM46.9031 91.4984C47.5031 92.0984 48.3031 92.4984 49.3031 92.4984C50.2031 92.4984 51.0031 92.1984 51.7031 91.4984C52.3031 90.7984 52.7031 89.9984 52.7031 89.0984C52.7031 88.1984 52.4031 87.3984 51.7031 86.6984C51.1031 85.9984 50.3031 85.6984 49.3031 85.6984C48.4031 85.6984 47.6031 85.9984 46.9031 86.6984C46.3031 87.2984 45.9031 88.0984 45.9031 89.0984C45.9031 90.0984 46.2031 90.8984 46.9031 91.4984ZM56.3031 87.0984C56.3031 87.4984 56.5031 87.7984 56.8031 87.9984C57.1031 88.1984 57.6031 88.3984 58.0031 88.4984C58.5031 88.5984 59.0031 88.7984 59.5031 88.8984C60.0031 88.9984 60.4031 89.2984 60.7031 89.6984C61.0031 90.0984 61.2031 90.4984 61.2031 91.0984C61.2031 91.7984 60.9031 92.3984 60.3031 92.8984C59.7031 93.3984 59.0031 93.5984 58.1031 93.5984C57.3031 93.5984 56.6031 93.3984 56.0031 93.0984C55.4031 92.6984 55.0031 92.2984 54.8031 91.6984L55.8031 91.0984C56.0031 91.4984 56.2031 91.8984 56.7031 92.1984C57.1031 92.4984 57.6031 92.5984 58.2031 92.5984C58.8031 92.5984 59.2031 92.4984 59.6031 92.2984C60.0031 92.0984 60.2031 91.6984 60.2031 91.2984C60.2031 90.8984 60.0031 90.5984 59.7031 90.3984C59.4031 90.1984 58.9031 89.9984 58.5031 89.8984C58.0031 89.7984 57.5031 89.5984 57.0031 89.4984C56.5031 89.2984 56.1031 89.0984 55.8031 88.6984C55.5031 88.2984 55.3031 87.8984 55.3031 87.2984C55.3031 86.5984 55.6031 85.9984 56.1031 85.5984C56.7031 85.0984 57.4031 84.8984 58.2031 84.8984C58.9031 84.8984 59.5031 85.0984 60.0031 85.3984C60.5031 85.6984 60.9031 86.0984 61.2031 86.6984L60.3031 87.1984C60.0031 86.3984 59.3031 85.9984 58.3031 85.9984C57.8031 85.9984 57.4031 86.0984 57.0031 86.3984C56.5031 86.2984 56.3031 86.6984 56.3031 87.0984ZM63.6031 87.0984C63.6031 87.4984 63.8031 87.7984 64.1031 87.9984C64.4031 88.1984 64.9031 88.3984 65.3031 88.4984C65.8031 88.5984 66.3031 88.7984 66.8031 88.8984C67.3031 88.9984 67.7031 89.2984 68.0031 89.6984C68.3031 90.0984 68.5031 90.4984 68.5031 91.0984C68.5031 91.7984 68.2031 92.3984 67.6031 92.8984C67.0031 93.3984 66.3031 93.5984 65.4031 93.5984C64.6031 93.5984 63.9031 93.3984 63.3031 93.0984C62.7031 92.6984 62.3031 92.2984 62.1031 91.6984L63.1031 91.0984C63.3031 91.4984 63.5031 91.8984 64.0031 92.1984C64.4031 92.4984 64.9031 92.5984 65.5031 92.5984C66.1031 92.5984 66.5031 92.4984 66.9031 92.2984C67.3031 92.0984 67.5031 91.6984 67.5031 91.2984C67.5031 90.8984 67.3031 90.5984 67.0031 90.3984C66.7031 90.1984 66.2031 89.9984 65.8031 89.8984C65.3031 89.7984 64.8031 89.5984 64.3031 89.4984C63.8031 89.2984 63.4031 89.0984 63.1031 88.6984C62.8031 88.2984 62.6031 87.8984 62.6031 87.2984C62.6031 86.5984 62.9031 85.9984 63.4031 85.5984C64.0031 85.0984 64.7031 84.8984 65.5031 84.8984C66.2031 84.8984 66.8031 85.0984 67.3031 85.3984C67.8031 85.6984 68.2031 86.0984 68.5031 86.6984L67.6031 87.1984C67.3031 86.3984 66.6031 85.9984 65.6031 85.9984C65.1031 85.9984 64.7031 86.0984 64.3031 86.3984C63.7031 86.2984 63.6031 86.6984 63.6031 87.0984ZM74.1031 84.6984C75.4031 84.6984 76.4031 85.0984 77.2031 85.9984C78.0031 86.8984 78.4031 87.8984 78.4031 89.1984C78.4031 89.2984 78.4031 89.4984 78.4031 89.6984H70.9031C71.0031 90.5984 71.4031 91.2984 72.0031 91.7984C72.6031 92.2984 73.4031 92.5984 74.3031 92.5984C74.9031 92.5984 75.5031 92.4984 76.0031 92.1984C76.5031 91.8984 76.8031 91.5984 77.1031 91.0984L78.1031 91.6984C77.7031 92.2984 77.2031 92.7984 76.6031 93.0984C76.0031 93.3984 75.2031 93.5984 74.4031 93.5984C73.1031 93.5984 72.0031 93.1984 71.1031 92.2984C70.3031 91.4984 69.8031 90.3984 69.8031 89.0984C69.8031 87.7984 70.2031 86.7984 71.0031 85.8984C71.7031 85.0984 72.8031 84.6984 74.1031 84.6984ZM74.1031 85.7984C73.2031 85.7984 72.5031 86.0984 71.9031 86.5984C71.3031 87.0984 71.0031 87.7984 70.8031 88.5984H77.2031C77.1031 87.6984 76.7031 86.9984 76.2031 86.4984C75.6031 85.9984 74.9031 85.7984 74.1031 85.7984ZM87.5031 81.4984H88.6031V93.3984H87.5031V91.6984C86.7031 92.9984 85.6031 93.5984 84.1031 93.5984C82.9031 93.5984 81.8031 93.1984 81.0031 92.2984C80.1031 91.3984 79.7031 90.3984 79.7031 89.0984C79.7031 87.7984 80.1031 86.7984 81.0031 85.8984C81.9031 84.9984 82.9031 84.5984 84.1031 84.5984C85.6031 84.5984 86.8031 85.1984 87.5031 86.4984V81.4984ZM81.7031 91.4984C82.3031 92.0984 83.1031 92.4984 84.1031 92.4984C85.0031 92.4984 85.8031 92.1984 86.5031 91.4984C87.1031 90.7984 87.5031 89.9984 87.5031 89.0984C87.5031 88.1984 87.2031 87.3984 86.5031 86.6984C85.9031 85.9984 85.1031 85.6984 84.1031 85.6984C83.2031 85.6984 82.4031 85.9984 81.7031 86.6984C81.1031 87.2984 80.7031 88.0984 80.7031 89.0984C80.7031 90.0984 81.1031 90.8984 81.7031 91.4984ZM99.1031 86.3984C100.103 86.4984 100.803 86.8984 101.503 87.4984C102.103 88.0984 102.403 88.8984 102.403 89.8984C102.403 90.9984 102.003 91.8984 101.203 92.5984C100.403 93.1984 99.5031 93.5984 98.4031 93.5984C97.5031 93.5984 96.7031 93.3984 96.0031 92.9984C95.3031 92.5984 94.8031 91.9984 94.5031 91.1984L95.5031 90.5984C95.7031 91.1984 96.0031 91.5984 96.5031 91.8984C97.0031 92.1984 97.6031 92.2984 98.3031 92.2984C99.1031 92.2984 99.8031 92.0984 100.303 91.6984C100.803 91.2984 101.103 90.5984 101.103 89.7984C101.103 88.9984 100.803 88.3984 100.303 87.9984C99.8031 87.5984 99.1031 87.2984 98.3031 87.2984H98.0031L97.5031 86.4984L100.503 82.3984H94.9031V81.2984H101.903V82.3984L99.1031 86.3984ZM111.803 91.8984C111.003 92.9984 109.903 93.5984 108.503 93.5984C107.103 93.5984 106.003 92.9984 105.203 91.8984C104.403 90.7984 104.003 89.2984 104.003 87.3984C104.003 85.4984 104.403 83.9984 105.203 82.8984C106.003 81.7984 107.103 81.1984 108.503 81.1984C109.903 81.1984 111.003 81.7984 111.803 82.8984C112.603 83.9984 113.003 85.4984 113.003 87.3984C113.003 89.2984 112.603 90.7984 111.803 91.8984ZM106.003 91.0984C106.603 91.9984 107.403 92.3984 108.503 92.3984C109.503 92.3984 110.403 91.9984 110.903 91.0984C111.503 90.1984 111.803 88.9984 111.803 87.3984C111.803 85.7984 111.503 84.5984 110.903 83.6984C110.303 82.7984 109.503 82.3984 108.503 82.3984C107.503 82.3984 106.603 82.7984 106.003 83.6984C105.403 84.5984 105.103 85.7984 105.103 87.3984C105.103 88.9984 105.403 90.2984 106.003 91.0984ZM122.503 91.8984C121.703 92.9984 120.603 93.5984 119.203 93.5984C117.803 93.5984 116.703 92.9984 115.903 91.8984C115.103 90.7984 114.703 89.2984 114.703 87.3984C114.703 85.4984 115.103 83.9984 115.903 82.8984C116.703 81.7984 117.803 81.1984 119.203 81.1984C120.603 81.1984 121.703 81.7984 122.503 82.8984C123.303 83.9984 123.703 85.4984 123.703 87.3984C123.703 89.2984 123.303 90.7984 122.503 91.8984ZM116.703 91.0984C117.303 91.9984 118.103 92.3984 119.203 92.3984C120.203 92.3984 121.103 91.9984 121.603 91.0984C122.203 90.1984 122.503 88.9984 122.503 87.3984C122.503 85.7984 122.203 84.5984 121.603 83.6984C121.003 82.7984 120.203 82.3984 119.203 82.3984C118.203 82.3984 117.303 82.7984 116.703 83.6984C116.103 84.5984 115.803 85.7984 115.803 87.3984C115.803 88.9984 116.203 90.2984 116.703 91.0984ZM140.103 91.7984C138.903 92.9984 137.403 93.5984 135.703 93.5984C134.003 93.5984 132.503 92.9984 131.303 91.7984C130.103 90.5984 129.503 89.0984 129.503 87.3984C129.503 85.6984 130.103 84.1984 131.303 82.9984C132.503 81.7984 134.003 81.1984 135.703 81.1984C137.403 81.1984 138.903 81.7984 140.103 82.9984C141.303 84.1984 141.903 85.5984 141.903 87.3984C141.903 89.1984 141.303 90.5984 140.103 91.7984ZM132.103 90.9984C133.103 91.9984 134.203 92.3984 135.603 92.3984C137.003 92.3984 138.203 91.8984 139.103 90.9984C140.103 89.9984 140.503 88.7984 140.503 87.3984C140.503 85.9984 140.003 84.7984 139.103 83.8984C138.103 82.8984 137.003 82.3984 135.603 82.3984C134.203 82.3984 133.003 82.8984 132.103 83.8984C131.103 84.8984 130.703 85.9984 130.703 87.3984C130.703 88.7984 131.203 89.9984 132.103 90.9984ZM149.803 84.8984H150.903V93.3984H149.803V92.0984C149.203 93.0984 148.203 93.5984 146.903 93.5984C145.903 93.5984 145.003 93.2984 144.403 92.6984C143.803 92.0984 143.503 91.1984 143.503 90.0984V84.8984H144.603V90.0984C144.603 90.8984 144.803 91.4984 145.203 91.8984C145.603 92.2984 146.203 92.4984 146.903 92.4984C147.703 92.4984 148.403 92.1984 148.903 91.6984C149.403 91.1984 149.703 90.3984 149.703 89.2984V84.8984H149.803ZM157.803 85.9984H155.303V91.1984C155.303 91.6984 155.403 91.9984 155.603 92.1984C155.803 92.3984 156.103 92.4984 156.403 92.4984C156.803 92.4984 157.203 92.4984 157.803 92.4984V93.4984C156.603 93.6984 155.703 93.5984 155.103 93.1984C154.503 92.7984 154.203 92.1984 154.203 91.1984V85.9984H152.403V84.8984H154.203V82.8984L155.303 82.5984V84.9984H157.803V85.9984ZM159.703 93.3984V80.8984H160.803V93.2984H159.703V93.3984ZM167.203 84.6984C168.503 84.6984 169.503 85.0984 170.303 85.9984C171.103 86.8984 171.503 87.8984 171.503 89.1984C171.503 89.2984 171.503 89.4984 171.503 89.6984H164.003C164.103 90.5984 164.503 91.2984 165.103 91.7984C165.703 92.2984 166.503 92.5984 167.403 92.5984C168.003 92.5984 168.603 92.4984 169.103 92.1984C169.603 91.8984 169.903 91.5984 170.203 91.0984L171.203 91.6984C170.803 92.2984 170.303 92.7984 169.703 93.0984C169.103 93.3984 168.303 93.5984 167.503 93.5984C166.203 93.5984 165.103 93.1984 164.203 92.2984C163.403 91.4984 162.903 90.3984 162.903 89.0984C162.903 87.7984 163.303 86.7984 164.103 85.8984C164.903 84.9984 165.903 84.6984 167.203 84.6984ZM167.203 85.7984C166.303 85.7984 165.603 86.0984 165.003 86.5984C164.403 87.0984 164.103 87.7984 163.903 88.5984H170.303C170.203 87.6984 169.803 86.9984 169.303 86.4984C168.603 85.9984 167.903 85.7984 167.203 85.7984ZM177.503 85.9984H175.003V91.1984C175.003 91.6984 175.103 91.9984 175.303 92.1984C175.503 92.3984 175.803 92.4984 176.103 92.4984C176.503 92.4984 176.903 92.4984 177.503 92.4984V93.4984C176.303 93.6984 175.403 93.5984 174.803 93.1984C174.203 92.7984 173.903 92.1984 173.903 91.1984V85.9984H172.103V84.8984H173.903V82.8984L175.003 82.5984V84.9984H177.503V85.9984ZM179.703 87.0984C179.703 87.4984 179.903 87.7984 180.203 87.9984C180.503 88.1984 181.003 88.3984 181.403 88.4984C181.903 88.5984 182.403 88.7984 182.903 88.8984C183.403 88.9984 183.803 89.2984 184.103 89.6984C184.403 90.0984 184.603 90.4984 184.603 91.0984C184.603 91.7984 184.303 92.3984 183.703 92.8984C183.103 93.3984 182.403 93.5984 181.503 93.5984C180.703 93.5984 180.003 93.3984 179.403 93.0984C178.803 92.6984 178.403 92.2984 178.203 91.6984L179.203 91.0984C179.403 91.4984 179.603 91.8984 180.103 92.1984C180.503 92.4984 181.003 92.5984 181.603 92.5984C182.203 92.5984 182.603 92.4984 183.003 92.2984C183.403 92.0984 183.603 91.6984 183.603 91.2984C183.603 90.8984 183.403 90.5984 183.103 90.3984C182.803 90.1984 182.303 89.9984 181.903 89.8984C181.403 89.7984 180.903 89.5984 180.403 89.4984C179.903 89.2984 179.503 89.0984 179.203 88.6984C178.903 88.2984 178.703 87.8984 178.703 87.2984C178.703 86.5984 179.003 85.9984 179.503 85.5984C180.103 85.0984 180.803 84.8984 181.603 84.8984C182.303 84.8984 182.903 85.0984 183.403 85.3984C183.903 85.6984 184.303 86.0984 184.603 86.6984L183.703 87.1984C183.403 86.3984 182.703 85.9984 181.703 85.9984C181.203 85.9984 180.803 86.0984 180.403 86.3984C179.903 86.2984 179.703 86.6984 179.703 87.0984ZM64.1031 113.398L63.0031 110.498H57.3031L56.2031 113.398H55.0031L59.6031 101.498H60.8031L65.4031 113.398H64.1031ZM57.8031 109.298H62.6031L60.2031 102.898L57.8031 109.298ZM66.7031 113.398V100.898H67.8031V113.298H66.7031V113.398ZM70.2031 113.398V100.898H71.3031V113.298H70.2031V113.398ZM88.1031 111.798C86.9031 112.998 85.4031 113.598 83.7031 113.598C82.0031 113.598 80.5031 112.998 79.3031 111.798C78.1031 110.598 77.5031 109.098 77.5031 107.398C77.5031 105.698 78.1031 104.198 79.3031 102.998C80.5031 101.798 82.0031 101.198 83.7031 101.198C85.4031 101.198 86.9031 101.798 88.1031 102.998C89.3031 104.198 89.9031 105.598 89.9031 107.398C89.9031 109.198 89.3031 110.598 88.1031 111.798ZM80.1031 110.998C81.1031 111.998 82.2031 112.498 83.6031 112.498C85.0031 112.498 86.2031 111.998 87.1031 110.998C88.1031 109.998 88.5031 108.798 88.5031 107.398C88.5031 105.998 88.0031 104.798 87.1031 103.898C86.1031 102.898 85.0031 102.398 83.6031 102.398C82.2031 102.398 81.0031 102.898 80.1031 103.898C79.1031 104.898 78.7031 105.998 78.7031 107.398C78.7031 108.798 79.2031 109.998 80.1031 110.998ZM97.9031 104.898H99.1031L95.6031 113.398H94.2031L90.7031 104.898H91.9031L94.9031 112.198L97.9031 104.898ZM104.003 104.698C105.303 104.698 106.303 105.098 107.103 105.998C107.903 106.898 108.303 107.898 108.303 109.198C108.303 109.298 108.303 109.498 108.303 109.698H100.803C100.903 110.598 101.303 111.298 101.903 111.798C102.503 112.298 103.303 112.598 104.203 112.598C104.803 112.598 105.403 112.498 105.903 112.198C106.403 111.898 106.703 111.598 107.003 111.098L108.003 111.698C107.603 112.298 107.103 112.798 106.503 113.098C105.903 113.498 105.103 113.598 104.303 113.598C103.003 113.598 101.903 113.198 101.003 112.298C100.203 111.498 99.7031 110.398 99.7031 109.098C99.7031 107.798 100.103 106.798 100.903 105.898C101.703 104.998 102.703 104.698 104.003 104.698ZM104.003 105.798C103.103 105.798 102.403 106.098 101.803 106.598C101.203 107.098 100.903 107.798 100.703 108.598H107.103C107.003 107.698 106.603 106.998 106.103 106.498C105.503 105.998 104.803 105.798 104.003 105.798ZM111.203 106.298C111.703 105.298 112.603 104.698 113.903 104.698V105.798C113.103 105.798 112.503 105.998 112.003 106.498C111.503 106.998 111.203 107.698 111.203 108.598V113.298H110.003V104.798H111.103V106.298H111.203ZM119.803 101.498H121.003V113.398H119.803V101.498ZM127.603 104.698C128.603 104.698 129.403 104.998 130.003 105.698C130.603 106.298 130.903 107.198 130.903 108.198V113.398H129.803V108.198C129.803 107.398 129.603 106.798 129.203 106.398C128.803 105.998 128.203 105.798 127.503 105.798C126.703 105.798 126.003 106.098 125.503 106.598C125.003 107.098 124.703 107.898 124.703 108.998V113.498H123.603V104.998H124.703V106.298C125.403 105.198 126.303 104.698 127.603 104.698ZM140.403 101.498H141.503V113.398H140.403V111.698C139.603 112.898 138.503 113.598 137.003 113.598C135.803 113.598 134.703 113.198 133.903 112.298C133.003 111.398 132.603 110.398 132.603 109.098C132.603 107.798 133.003 106.798 133.903 105.898C134.803 104.998 135.803 104.598 137.003 104.598C138.503 104.598 139.703 105.198 140.403 106.498V101.498ZM134.703 111.498C135.303 112.098 136.103 112.498 137.103 112.498C138.003 112.498 138.803 112.198 139.503 111.498C140.103 110.798 140.503 109.998 140.503 109.098C140.503 108.198 140.203 107.398 139.503 106.698C138.903 105.998 138.103 105.698 137.103 105.698C136.203 105.698 135.403 105.998 134.703 106.698C134.103 107.298 133.703 108.098 133.703 109.098C133.703 110.098 134.003 110.898 134.703 111.498ZM145.103 102.798C144.903 102.998 144.703 102.998 144.503 102.998C144.303 102.998 144.103 102.898 143.903 102.798C143.703 102.598 143.703 102.398 143.703 102.198C143.703 101.998 143.803 101.798 143.903 101.598C144.103 101.398 144.303 101.398 144.503 101.398C144.703 101.398 144.903 101.498 145.103 101.598C145.303 101.798 145.303 101.998 145.303 102.198C145.303 102.398 145.203 102.698 145.103 102.798ZM143.903 113.398V104.898H145.003V113.398H143.903ZM154.803 104.898H155.903V113.398H154.803V111.698C154.003 112.898 152.903 113.598 151.403 113.598C150.203 113.598 149.103 113.198 148.303 112.298C147.403 111.398 147.003 110.398 147.003 109.098C147.003 107.798 147.403 106.798 148.303 105.898C149.203 104.998 150.203 104.598 151.403 104.598C152.903 104.598 154.103 105.198 154.803 106.498V104.898ZM149.003 111.498C149.603 112.098 150.403 112.498 151.403 112.498C152.303 112.498 153.103 112.198 153.803 111.498C154.403 110.798 154.803 109.998 154.803 109.098C154.803 108.198 154.503 107.398 153.803 106.698C153.203 105.998 152.403 105.698 151.403 105.698C150.503 105.698 149.703 105.998 149.003 106.698C148.403 107.298 148.003 108.098 148.003 109.098C148.103 110.098 148.403 110.898 149.003 111.498Z" fill="black"/>
<mask id="mask0_1137_3276" style="mask-type:luminance" maskUnits="userSpaceOnUse" x="51" y="149" width="123" height="123">
<path d="M173.101 149.801H51.8008V271.101H173.101V149.801Z" fill="white"/>
</mask>
<g mask="url(#mask0_1137_3276)">
<path d="M172.599 210.399C172.599 243.599 145.699 270.599 112.399 270.599C79.0992 270.599 52.1992 243.699 52.1992 210.399C52.1992 177.199 79.0992 150.199 112.399 150.199C145.699 150.199 172.599 177.199 172.599 210.399Z" fill="white"/>
<path d="M172.599 210.399C172.599 243.599 145.699 270.599 112.399 270.599C79.0992 270.599 52.1992 243.699 52.1992 210.399C52.1992 177.199 79.0992 150.199 112.399 150.199C145.699 150.199 172.599 177.199 172.599 210.399Z" fill="url(#paint1_linear_1137_3276)"/>
<path d="M172.599 210.399C172.599 243.599 145.699 270.599 112.399 270.599C79.0992 270.599 52.1992 243.699 52.1992 210.399C52.1992 177.199 79.0992 150.199 112.399 150.199C145.699 150.199 172.599 177.199 172.599 210.399Z" stroke="#85FFBE" stroke-width="0.9474"/>
<path d="M95.7984 229.898C96.1984 229.898 96.4984 229.798 96.7984 229.498C97.0984 229.198 97.1984 228.898 97.1984 228.498V226.498C97.1984 226.098 97.0984 225.798 96.7984 225.498C96.4984 225.198 96.1984 225.098 95.7984 225.098C95.3984 225.098 95.0984 225.198 94.7984 225.498C94.4984 225.798 94.3984 226.098 94.3984 226.498V228.498C94.3984 228.898 94.4984 229.198 94.7984 229.498C95.0984 229.798 95.3984 229.898 95.7984 229.898Z" fill="white"/>
<path d="M146.701 240.198H145.001V209.498C146.501 209.198 147.801 208.498 148.801 207.298C149.801 206.098 150.301 204.698 150.301 203.198V198.798V198.698V198.598V198.498L145.301 188.698V187.898H79.8008V188.698L74.9008 198.398V198.498V198.598V198.698V203.098C74.9008 204.598 75.4008 205.998 76.4008 207.198C77.4008 208.298 78.7008 209.098 80.2008 209.398V240.198H78.3008C77.4008 240.198 76.5008 240.598 75.8008 241.198C75.1008 241.898 74.8008 242.698 74.8008 243.698V247.198C74.8008 247.398 74.8008 247.698 74.9008 247.898C75.0008 248.098 75.1008 248.298 75.3008 248.498C75.5008 248.698 75.7008 248.798 75.9008 248.898C76.1008 248.998 76.4008 248.998 76.6008 248.998H148.601C149.101 248.998 149.501 248.798 149.901 248.498C150.201 248.198 150.401 247.698 150.401 247.198V243.698C150.401 242.798 150.001 241.898 149.401 241.198C148.501 240.498 147.701 240.198 146.701 240.198ZM148.001 203.198C148.001 203.798 147.901 204.298 147.701 204.798C147.501 205.298 147.201 205.798 146.801 206.198C146.401 206.598 146.001 206.898 145.401 207.098C144.901 207.298 144.301 207.398 143.801 207.398C143.301 207.398 142.701 207.298 142.201 207.098C141.701 206.898 141.201 206.598 140.801 206.198C140.401 205.798 140.101 205.298 139.901 204.798C139.701 204.298 139.601 203.698 139.601 203.198V199.998H147.901V203.198H148.001ZM143.401 189.998L147.301 197.798H139.401L136.601 189.998H143.401ZM134.201 189.998L137.001 197.798H129.001L127.301 189.998H134.201ZM137.501 199.998V203.198C137.501 204.298 137.101 205.298 136.301 206.098C135.501 206.898 134.501 207.298 133.401 207.298C132.301 207.298 131.301 206.898 130.501 206.098C129.701 205.298 129.301 204.298 129.301 203.198V199.998H137.501ZM125.101 189.998L126.801 197.798H118.701L118.101 189.998H125.101ZM127.001 199.998V203.198C127.001 203.798 126.901 204.298 126.701 204.798C126.501 205.298 126.201 205.798 125.801 206.198C125.401 206.598 125.001 206.898 124.401 207.098C123.901 207.298 123.301 207.398 122.801 207.398C122.201 207.398 121.701 207.298 121.201 207.098C120.701 206.898 120.201 206.598 119.801 206.198C119.401 205.798 119.101 205.298 118.901 204.798C118.701 204.298 118.601 203.698 118.601 203.198V199.998H127.001ZM108.901 189.998H115.901L116.501 197.798H108.401L108.901 189.998ZM108.301 199.998H116.601V203.198C116.601 204.298 116.201 205.298 115.401 206.098C114.601 206.898 113.601 207.298 112.501 207.298C111.401 207.298 110.401 206.898 109.601 206.098C108.801 205.298 108.401 204.298 108.401 203.198V199.998H108.301ZM99.8008 190.098H106.801L106.301 197.898H98.2008L99.8008 190.098ZM97.8008 199.998H106.101V203.198C106.101 203.798 106.001 204.298 105.801 204.798C105.601 205.298 105.301 205.798 104.901 206.198C104.501 206.598 104.101 206.898 103.501 207.098C103.001 207.298 102.401 207.398 101.901 207.398C101.401 207.398 100.801 207.298 100.301 207.098C99.8008 206.898 99.3008 206.598 98.9008 206.198C98.5008 205.798 98.2008 205.298 98.0008 204.798C97.8008 204.298 97.7008 203.698 97.7008 203.198V199.998H97.8008ZM101.901 209.498C102.901 209.498 103.901 209.198 104.901 208.798C105.801 208.298 106.601 207.598 107.201 206.798C107.801 207.698 108.601 208.298 109.501 208.798C110.401 209.298 111.401 209.498 112.501 209.498C113.501 209.498 114.501 209.198 115.501 208.798C116.401 208.298 117.201 207.598 117.801 206.798C118.401 207.598 119.201 208.298 120.101 208.798C121.001 209.298 122.001 209.498 123.001 209.498C124.001 209.498 125.001 209.298 125.901 208.798C126.801 208.298 127.601 207.598 128.201 206.798C128.801 207.698 129.601 208.298 130.501 208.798C131.401 209.298 132.401 209.498 133.501 209.498C134.601 209.498 135.501 209.198 136.501 208.798C137.401 208.298 138.201 207.598 138.801 206.798C139.301 207.498 139.901 208.098 140.601 208.598C141.301 209.098 142.101 209.398 143.001 209.498V240.198H101.301V215.598C101.301 215.298 101.201 215.098 101.101 214.798C101.001 214.498 100.801 214.298 100.701 214.098C100.501 213.898 100.301 213.798 100.001 213.698C99.8008 213.598 99.5008 213.498 99.2008 213.498H86.3008C85.8008 213.498 85.2008 213.698 84.8008 214.098C84.4008 214.498 84.2008 214.998 84.2008 215.598V240.198H82.2008V209.498C83.0008 209.398 83.8008 208.998 84.5008 208.598C85.2008 208.098 85.8008 207.498 86.3008 206.798C86.9008 207.698 87.7008 208.298 88.6008 208.798C89.5008 209.298 90.5008 209.498 91.6008 209.498C92.6008 209.498 93.6008 209.198 94.6008 208.798C95.5008 208.298 96.3008 207.598 96.9008 206.798C97.5008 207.698 98.3008 208.298 99.2008 208.798C99.9008 209.198 100.901 209.498 101.901 209.498ZM98.8008 215.698V240.198H86.3008V215.698H98.8008ZM87.3008 203.198V199.998H95.6008V203.198C95.6008 204.298 95.2008 205.298 94.4008 206.098C93.6008 206.898 92.6008 207.298 91.5008 207.298C90.4008 207.298 89.4008 206.898 88.6008 206.098C87.8008 205.298 87.3008 204.298 87.3008 203.198ZM97.5008 189.998L95.8008 197.798H87.8008L90.6008 189.998H97.5008ZM81.5008 189.998H88.3008L85.5008 197.798H77.6008L81.5008 189.998ZM76.9008 203.198V199.998H85.2008V203.198C85.2008 203.798 85.1008 204.298 84.9008 204.798C84.7008 205.298 84.4008 205.798 84.0008 206.198C83.6008 206.598 83.2008 206.898 82.6008 207.098C82.1008 207.298 81.5008 207.398 81.0008 207.398C80.4008 207.398 79.9008 207.298 79.4008 207.098C78.9008 206.898 78.4008 206.598 78.0008 206.198C77.6008 205.798 77.3008 205.298 77.1008 204.798C76.9008 204.298 76.8008 203.698 76.9008 203.198ZM148.001 246.698H76.8008V243.598C76.8008 243.298 76.9008 242.898 77.2008 242.698C77.4008 242.498 77.8008 242.298 78.1008 242.298H146.701C147.001 242.298 147.401 242.398 147.601 242.698C147.801 242.898 148.001 243.298 148.001 243.598V246.698Z" fill="white"/>
<path d="M105.399 235.599H137.699C138.299 235.599 138.899 235.399 139.299 234.899C139.699 234.399 139.999 233.899 139.999 233.299V215.499C139.999 214.899 139.799 214.299 139.299 213.899C138.799 213.499 138.299 213.199 137.699 213.199H124.199C123.799 213.199 123.499 213.299 123.199 213.599C122.899 213.899 122.799 214.199 122.799 214.599C122.799 214.999 122.899 215.299 123.199 215.599C123.499 215.899 123.799 215.999 124.199 215.999H137.299V232.899H105.899V215.999H118.999C119.399 215.999 119.699 215.899 119.999 215.599C120.299 215.299 120.399 214.999 120.399 214.599C120.399 214.199 120.299 213.899 119.999 213.599C119.699 213.299 119.399 213.199 118.999 213.199H105.499C104.899 213.199 104.299 213.399 103.899 213.899C103.499 214.399 103.199 214.899 103.199 215.499V233.299C103.199 233.899 103.399 234.499 103.899 234.899C104.199 235.399 104.799 235.599 105.399 235.599Z" fill="white"/>
<path d="M111.799 170.098C107.899 170.098 105.699 173.598 105.699 178.798C105.699 179.998 105.799 181.098 106.099 182.298C106.299 183.098 106.599 183.798 106.999 184.498C107.399 185.398 108.099 186.098 108.899 186.598C109.699 187.098 110.699 187.398 111.599 187.298C112.599 187.298 113.599 187.098 114.399 186.598C115.299 186.098 115.899 185.398 116.399 184.498C116.799 183.798 117.099 183.098 117.199 182.298C117.499 181.098 117.599 179.898 117.599 178.698C117.699 173.598 115.799 170.098 111.799 170.098ZM114.199 182.198C113.999 182.998 113.599 183.798 112.999 184.398C112.699 184.698 112.199 184.798 111.799 184.798C111.399 184.798 110.899 184.598 110.599 184.398C109.999 183.798 109.499 182.998 109.399 182.198C109.099 181.098 108.999 179.898 108.999 178.698C108.999 174.498 110.099 172.398 111.799 172.398C113.699 172.398 114.599 174.698 114.599 178.498C114.599 179.798 114.399 180.998 114.199 182.198Z" fill="white"/>
<path d="M126.799 170.098C122.899 170.098 120.699 173.598 120.699 178.798C120.699 179.998 120.799 181.098 121.099 182.298C121.299 183.098 121.599 183.798 121.999 184.498C122.399 185.398 123.099 186.098 123.899 186.598C124.699 187.098 125.699 187.398 126.599 187.298C127.599 187.298 128.599 187.098 129.399 186.598C130.299 186.098 130.899 185.398 131.399 184.498C131.799 183.798 132.099 183.098 132.299 182.298C132.599 181.098 132.699 179.898 132.699 178.698C132.699 173.598 130.799 170.098 126.799 170.098ZM129.099 182.198C128.999 183.098 128.499 183.798 127.899 184.398C127.599 184.698 127.099 184.798 126.699 184.798C126.299 184.798 125.799 184.598 125.499 184.398C124.899 183.798 124.399 182.998 124.299 182.198C123.999 181.098 123.899 179.898 123.899 178.698C123.899 174.498 124.999 172.398 126.699 172.398C128.599 172.398 129.499 174.698 129.499 178.498C129.599 179.798 129.399 180.998 129.099 182.198Z" fill="white"/>
<path d="M92.8992 183.598C93.9992 184.198 95.2992 184.498 96.5992 184.498C98.8992 184.498 99.8992 183.198 99.7992 181.898C99.7992 179.998 97.9992 179.198 96.1992 179.198H94.7992V176.998H96.1992C97.5992 176.998 99.3992 176.398 99.3992 174.698C99.3992 173.598 98.5992 172.698 96.7992 172.698C95.5992 172.698 94.4992 173.098 93.4992 173.698L92.7992 171.498C94.1992 170.698 95.7992 170.198 97.3992 170.298C100.699 170.298 102.399 172.098 102.399 174.198C102.399 175.098 102.099 175.898 101.599 176.598C101.099 177.298 100.299 177.798 99.4992 177.998C100.499 178.098 101.399 178.598 101.999 179.298C102.599 179.998 102.999 180.998 102.999 181.898C102.999 184.598 100.699 186.798 96.6992 186.798C95.0992 186.798 93.5992 186.498 92.1992 185.698L92.8992 183.598Z" fill="white"/>
</g>
<path d="M210.498 182.4L209.198 180.7L208.398 181.3V182.4H210.498ZM231.898 149.5L230.398 151L230.498 151.1L230.698 151.2L231.898 149.5ZM231.898 149.5L233.398 148L233.298 147.9L233.237 147.87L231.898 149.5ZM210.498 133.4H208.398V134.5L209.198 135.1L210.498 133.4ZM208.398 182.4V315.816H212.598V182.4H208.398ZM230.698 164.7L209.298 180.8L211.798 184.2L233.198 168.1L230.698 164.7ZM237.498 157.9C237.498 158.4 237.298 159 236.198 160.2C234.998 161.4 233.298 162.7 230.598 164.7L233.098 168.1C235.598 166.2 237.698 164.7 239.098 163.2C240.598 161.7 241.5 160.1 241.5 158H237.498V157.9ZM230.698 151.2C233.298 153.2 235.098 154.5 236.298 155.7C237.398 156.8 237.5 157.5 237.5 158H241.5C241.5 155.9 240.698 154.2 239.298 152.8C237.898 151.4 235.798 149.8 233.298 147.9L230.698 151.2ZM209.198 135.1L230.698 151.2L232.137 149.62L233.237 147.87L211.698 131.7L209.198 135.1ZM208.398 0V133.4H212.598V0H210.498H208.398Z" fill="#65FFAE"/>
<defs>
<linearGradient id="paint0_linear_1137_3276" x1="-16.959" y1="157.926" x2="240.589" y2="157.926" gradientUnits="userSpaceOnUse">
<stop stop-color="white"/>
<stop offset="1" stop-color="#C6FFE1"/>
</linearGradient>
<linearGradient id="paint1_linear_1137_3276" x1="112.42" y1="149.815" x2="112.42" y2="271.078" gradientUnits="userSpaceOnUse">
<stop stop-color="#006630"/>
<stop offset="1" stop-color="#138F4C"/>
</linearGradient>
</defs>
</svg>
