<svg width="243" height="316" viewBox="0 0 243 316" fill="none" xmlns="http://www.w3.org/2000/svg">
<g clip-path="url(#clip0_578_114)">
<path fill-rule="evenodd" clip-rule="evenodd" d="M212 0H0.5V315.8H212V182.4L233.4 166.3C238.5 162.4 241.1 160.5 241.1 157.9C241.1 155.3 238.5 153.3 233.4 149.5L212 133.4V0Z" fill="url(#paint0_linear_578_114)"/>
<path d="M88.987 66.065V63.7475L94.3645 58.2125C95.5645 56.9525 96.1645 55.9025 96.1645 55.0625C96.1645 54.4475 95.9695 53.9525 95.5795 53.5775C95.2045 53.2025 94.717 53.015 94.117 53.015C92.932 53.015 92.0545 53.63 91.4845 54.86L88.8745 53.33C89.3695 52.25 90.082 51.425 91.012 50.855C91.942 50.285 92.962 50 94.072 50C95.497 50 96.7195 50.45 97.7395 51.35C98.7595 52.235 99.2695 53.435 99.2695 54.95C99.2695 56.585 98.407 58.265 96.682 59.99L93.5995 63.0725H99.517V66.065H88.987Z" fill="black"/>
<path d="M107.2 66.38C105.235 66.38 103.69 65.6375 102.565 64.1525C101.455 62.6525 100.9 60.665 100.9 58.19C100.9 55.715 101.455 53.735 102.565 52.25C103.69 50.75 105.235 50 107.2 50C109.18 50 110.725 50.75 111.835 52.25C112.945 53.735 113.5 55.715 113.5 58.19C113.5 60.665 112.945 62.6525 111.835 64.1525C110.725 65.6375 109.18 66.38 107.2 66.38ZM104.815 62.0375C105.355 62.9075 106.15 63.3425 107.2 63.3425C108.25 63.3425 109.045 62.9 109.585 62.015C110.14 61.13 110.418 59.855 110.418 58.19C110.418 56.51 110.14 55.2275 109.585 54.3425C109.045 53.4575 108.25 53.015 107.2 53.015C106.15 53.015 105.355 53.4575 104.815 54.3425C104.275 55.2275 104.005 56.51 104.005 58.19C104.005 59.87 104.275 61.1525 104.815 62.0375Z" fill="black"/>
<path d="M114.497 66.065V63.7475L119.875 58.2125C121.075 56.9525 121.675 55.9025 121.675 55.0625C121.675 54.4475 121.48 53.9525 121.09 53.5775C120.715 53.2025 120.227 53.015 119.627 53.015C118.442 53.015 117.565 53.63 116.995 54.86L114.385 53.33C114.88 52.25 115.592 51.425 116.522 50.855C117.452 50.285 118.472 50 119.582 50C121.007 50 122.23 50.45 123.25 51.35C124.27 52.235 124.78 53.435 124.78 54.95C124.78 56.585 123.917 58.265 122.192 59.99L119.11 63.0725H125.027V66.065H114.497Z" fill="black"/>
<path d="M126.45 66.065V63.7475L131.828 58.2125C133.028 56.9525 133.628 55.9025 133.628 55.0625C133.628 54.4475 133.433 53.9525 133.043 53.5775C132.668 53.2025 132.18 53.015 131.58 53.015C130.395 53.015 129.518 53.63 128.948 54.86L126.338 53.33C126.833 52.25 127.545 51.425 128.475 50.855C129.405 50.285 130.425 50 131.535 50C132.96 50 134.183 50.45 135.203 51.35C136.223 52.235 136.733 53.435 136.733 54.95C136.733 56.585 135.87 58.265 134.145 59.99L131.063 63.0725H136.98V66.065H126.45Z" fill="black"/>
<path d="M63.134 91.3958H68.318V92.465H62V81.125H63.134V91.3958Z" fill="black"/>
<path d="M76.3345 84.365H77.4037V92.465H76.3345V90.8774C75.5893 92.0654 74.4985 92.6594 73.0621 92.6594C71.9065 92.6594 70.9183 92.249 70.0975 91.4282C69.2875 90.6074 68.8825 89.603 68.8825 88.415C68.8825 87.227 69.2875 86.2226 70.0975 85.4018C70.9183 84.581 71.9065 84.1706 73.0621 84.1706C74.4985 84.1706 75.5893 84.7646 76.3345 85.9526V84.365ZM70.8751 90.6992C71.4907 91.3148 72.2467 91.6226 73.1431 91.6226C74.0395 91.6226 74.7955 91.3148 75.4111 90.6992C76.0267 90.0728 76.3345 89.3114 76.3345 88.415C76.3345 87.5186 76.0267 86.7626 75.4111 86.147C74.7955 85.5206 74.0395 85.2074 73.1431 85.2074C72.2467 85.2074 71.4907 85.5206 70.8751 86.147C70.2595 86.7626 69.9517 87.5186 69.9517 88.415C69.9517 89.3114 70.2595 90.0728 70.8751 90.6992Z" fill="black"/>
<path d="M87.9295 81.125C88.9447 81.125 89.7925 81.4652 90.4729 82.1456C91.1533 82.826 91.4935 83.6738 91.4935 84.689C91.4935 85.7042 91.1533 86.552 90.4729 87.2324C89.7925 87.9128 88.9447 88.253 87.9295 88.253H85.0135V92.465H83.8795V81.125H87.9295ZM87.9295 87.1838C88.6315 87.1838 89.2093 86.9516 89.6629 86.4872C90.1273 86.012 90.3595 85.4126 90.3595 84.689C90.3595 83.9654 90.1273 83.3714 89.6629 82.907C89.2093 82.4318 88.6315 82.1942 87.9295 82.1942H85.0135V87.1838H87.9295Z" fill="black"/>
<path d="M94.3584 82.421C94.2072 82.5722 94.0236 82.6478 93.8076 82.6478C93.5916 82.6478 93.408 82.5722 93.2568 82.421C93.1056 82.2698 93.03 82.0862 93.03 81.8702C93.03 81.6542 93.1056 81.4706 93.2568 81.3194C93.408 81.1682 93.5916 81.0926 93.8076 81.0926C94.0236 81.0926 94.2072 81.1682 94.3584 81.3194C94.5096 81.4706 94.5852 81.6542 94.5852 81.8702C94.5852 82.0862 94.5096 82.2698 94.3584 82.421ZM93.273 92.465V84.365H94.3422V92.465H93.273Z" fill="black"/>
<path d="M100.402 84.1706C101.385 84.1706 102.157 84.473 102.718 85.0778C103.291 85.6718 103.577 86.4764 103.577 87.4916V92.465H102.508V87.4916C102.508 86.768 102.313 86.2064 101.925 85.8068C101.547 85.4072 101.007 85.2074 100.305 85.2074C99.527 85.2074 98.8952 85.4558 98.4092 85.9526C97.9232 86.4386 97.6802 87.1946 97.6802 88.2206V92.465H96.611V84.365H97.6802V85.6286C98.285 84.6566 99.1922 84.1706 100.402 84.1706Z" fill="black"/>
<path d="M112.432 91.4444C111.611 92.2544 110.607 92.6594 109.419 92.6594C108.231 92.6594 107.221 92.2544 106.39 91.4444C105.569 90.6236 105.158 89.6138 105.158 88.415C105.158 87.2162 105.569 86.2118 106.39 85.4018C107.221 84.581 108.231 84.1706 109.419 84.1706C110.607 84.1706 111.611 84.581 112.432 85.4018C113.264 86.2118 113.68 87.2162 113.68 88.415C113.68 89.6138 113.264 90.6236 112.432 91.4444ZM107.151 90.6992C107.767 91.3148 108.523 91.6226 109.419 91.6226C110.315 91.6226 111.071 91.3148 111.687 90.6992C112.303 90.0728 112.61 89.3114 112.61 88.415C112.61 87.5186 112.303 86.7626 111.687 86.147C111.071 85.5206 110.315 85.2074 109.419 85.2074C108.523 85.2074 107.767 85.5206 107.151 86.147C106.535 86.7626 106.228 87.5186 106.228 88.415C106.228 89.3114 106.535 90.0728 107.151 90.6992Z" fill="black"/>
<path d="M116.112 81.125L115.14 84.77H114.168L114.816 81.125H116.112Z" fill="black"/>
<path d="M119.388 91.4282H124.054V92.465H117.898V91.7522L122.401 85.4018H118.06V84.365H123.892V85.0778L119.388 91.4282Z" fill="black"/>
<path d="M140.881 87.0704V87.6536C140.881 89.0576 140.379 90.2456 139.374 91.2176C138.37 92.1788 137.025 92.6594 135.341 92.6594C133.623 92.6594 132.203 92.0924 131.08 90.9584C129.957 89.8244 129.395 88.4366 129.395 86.795C129.395 85.1534 129.957 83.7656 131.08 82.6316C132.203 81.4976 133.623 80.9306 135.341 80.9306C136.388 80.9306 137.349 81.1844 138.224 81.692C139.099 82.1996 139.774 82.8746 140.249 83.717L139.245 84.3002C138.888 83.609 138.359 83.0582 137.657 82.6478C136.955 82.2374 136.183 82.0322 135.341 82.0322C133.926 82.0322 132.77 82.4912 131.874 83.4092C130.977 84.3272 130.529 85.4558 130.529 86.795C130.529 88.1342 130.977 89.2628 131.874 90.1808C132.77 91.0988 133.926 91.5578 135.341 91.5578C136.615 91.5578 137.636 91.2392 138.402 90.602C139.169 89.954 139.607 89.1332 139.715 88.1396H135.211V87.0704H140.881Z" fill="black"/>
<path d="M149.452 91.4444C148.631 92.2544 147.627 92.6594 146.439 92.6594C145.251 92.6594 144.241 92.2544 143.409 91.4444C142.588 90.6236 142.178 89.6138 142.178 88.415C142.178 87.2162 142.588 86.2118 143.409 85.4018C144.241 84.581 145.251 84.1706 146.439 84.1706C147.627 84.1706 148.631 84.581 149.452 85.4018C150.283 86.2118 150.699 87.2162 150.699 88.415C150.699 89.6138 150.283 90.6236 149.452 91.4444ZM144.171 90.6992C144.786 91.3148 145.542 91.6226 146.439 91.6226C147.335 91.6226 148.091 91.3148 148.707 90.6992C149.322 90.0728 149.63 89.3114 149.63 88.415C149.63 87.5186 149.322 86.7626 148.707 86.147C148.091 85.5206 147.335 85.2074 146.439 85.2074C145.542 85.2074 144.786 85.5206 144.171 86.147C143.555 86.7626 143.247 87.5186 143.247 88.415C143.247 89.3114 143.555 90.0728 144.171 90.6992Z" fill="black"/>
<path d="M156.231 84.1706C157.429 84.1706 158.396 84.5972 159.13 85.4504C159.876 86.2928 160.248 87.2918 160.248 88.4474C160.248 88.5662 160.237 88.7336 160.216 88.9496H153.104C153.212 89.7704 153.558 90.4238 154.141 90.9098C154.735 91.385 155.464 91.6226 156.328 91.6226C156.943 91.6226 157.473 91.4984 157.915 91.25C158.369 90.9908 158.709 90.656 158.936 90.2456L159.876 90.7964C159.519 91.3688 159.033 91.8224 158.418 92.1572C157.802 92.492 157.1 92.6594 156.312 92.6594C155.037 92.6594 154 92.2598 153.201 91.4606C152.402 90.6614 152.002 89.6462 152.002 88.415C152.002 87.2054 152.397 86.1956 153.185 85.3856C153.973 84.5756 154.989 84.1706 156.231 84.1706ZM156.231 85.2074C155.388 85.2074 154.681 85.4612 154.108 85.9688C153.547 86.4656 153.212 87.1136 153.104 87.9128H159.147C159.039 87.0596 158.709 86.3954 158.158 85.9202C157.608 85.445 156.965 85.2074 156.231 85.2074Z" fill="black"/>
<path d="M162.475 86.4872C162.475 86.8544 162.637 87.146 162.961 87.362C163.285 87.578 163.679 87.7454 164.144 87.8642C164.608 87.983 165.072 88.118 165.537 88.2692C166.001 88.4096 166.395 88.6526 166.719 88.9982C167.043 89.333 167.205 89.7758 167.205 90.3266C167.205 91.0178 166.93 91.5794 166.379 92.0114C165.839 92.4434 165.137 92.6594 164.273 92.6594C163.496 92.6594 162.831 92.4866 162.281 92.141C161.741 91.7954 161.363 91.3472 161.147 90.7964L162.054 90.2618C162.205 90.683 162.475 91.0178 162.864 91.2662C163.263 91.5038 163.733 91.6226 164.273 91.6226C164.802 91.6226 165.245 91.52 165.602 91.3148C165.958 91.0988 166.136 90.7694 166.136 90.3266C166.136 89.9594 165.974 89.6678 165.65 89.4518C165.326 89.2358 164.932 89.0684 164.468 88.9496C164.003 88.8308 163.539 88.7012 163.074 88.5608C162.61 88.4096 162.216 88.1666 161.892 87.8318C161.568 87.4862 161.406 87.038 161.406 86.4872C161.406 85.8284 161.665 85.2776 162.183 84.8348C162.713 84.392 163.377 84.1706 164.176 84.1706C164.835 84.1706 165.413 84.3218 165.909 84.6242C166.406 84.9158 166.773 85.3154 167.011 85.823L166.12 86.3414C165.807 85.5854 165.159 85.2074 164.176 85.2074C163.712 85.2074 163.312 85.3208 162.977 85.5476C162.642 85.7636 162.475 86.0768 162.475 86.4872Z" fill="black"/>
<path d="M68.5021 100.125H69.6361V111.465H68.5021V100.125Z" fill="black"/>
<path d="M75.8645 103.171C76.8473 103.171 77.6195 103.473 78.1811 104.078C78.7535 104.672 79.0397 105.476 79.0397 106.492V111.465H77.9705V106.492C77.9705 105.768 77.7761 105.206 77.3873 104.807C77.0093 104.407 76.4693 104.207 75.7673 104.207C74.9897 104.207 74.3579 104.456 73.8719 104.953C73.3859 105.439 73.1429 106.195 73.1429 107.221V111.465H72.0737V103.365H73.1429V104.629C73.7477 103.657 74.6549 103.171 75.8645 103.171Z" fill="black"/>
<path d="M85.4001 104.402H83.0673V109.31C83.0673 109.753 83.1537 110.072 83.3265 110.266C83.4993 110.45 83.7585 110.547 84.1041 110.558C84.4497 110.558 84.8817 110.547 85.4001 110.525V111.465C84.2661 111.638 83.4129 111.557 82.8405 111.222C82.2789 110.887 81.9981 110.25 81.9981 109.31V104.402H80.2971V103.365H81.9981V101.421L83.0673 101.097V103.365H85.4001V104.402Z" fill="black"/>
<path d="M90.4339 103.171C91.6327 103.171 92.5993 103.597 93.3337 104.45C94.0789 105.293 94.4515 106.292 94.4515 107.447C94.4515 107.566 94.4407 107.734 94.4191 107.95H87.3073C87.4153 108.77 87.7609 109.424 88.3441 109.91C88.9381 110.385 89.6671 110.623 90.5311 110.623C91.1467 110.623 91.6759 110.498 92.1187 110.25C92.5723 109.991 92.9125 109.656 93.1393 109.246L94.0789 109.796C93.7225 110.369 93.2365 110.822 92.6209 111.157C92.0053 111.492 91.3033 111.659 90.5149 111.659C89.2405 111.659 88.2037 111.26 87.4045 110.461C86.6053 109.661 86.2057 108.646 86.2057 107.415C86.2057 106.205 86.5999 105.196 87.3883 104.386C88.1767 103.576 89.1919 103.171 90.4339 103.171ZM90.4339 104.207C89.5915 104.207 88.8841 104.461 88.3117 104.969C87.7501 105.466 87.4153 106.114 87.3073 106.913H93.3499C93.2419 106.06 92.9125 105.395 92.3617 104.92C91.8109 104.445 91.1683 104.207 90.4339 104.207Z" fill="black"/>
<path d="M97.2215 104.71C97.7183 103.727 98.5715 103.235 99.7811 103.235V104.272C99.0467 104.272 98.4365 104.488 97.9505 104.92C97.4645 105.352 97.2215 106.033 97.2215 106.961V111.465H96.1523V103.365H97.2215V104.71Z" fill="black"/>
<path d="M105.037 103.171C106.02 103.171 106.792 103.473 107.354 104.078C107.926 104.672 108.212 105.476 108.212 106.492V111.465H107.143V106.492C107.143 105.768 106.949 105.206 106.56 104.807C106.182 104.407 105.642 104.207 104.94 104.207C104.162 104.207 103.531 104.456 103.045 104.953C102.559 105.439 102.316 106.195 102.316 107.221V111.465H101.246V103.365H102.316V104.629C102.92 103.657 103.828 103.171 105.037 103.171Z" fill="black"/>
<path d="M117.246 103.365H118.315V111.465H117.246V109.877C116.501 111.065 115.41 111.659 113.973 111.659C112.818 111.659 111.83 111.249 111.009 110.428C110.199 109.607 109.794 108.603 109.794 107.415C109.794 106.227 110.199 105.223 111.009 104.402C111.83 103.581 112.818 103.171 113.973 103.171C115.41 103.171 116.501 103.765 117.246 104.953V103.365ZM111.786 109.699C112.402 110.315 113.158 110.623 114.054 110.623C114.951 110.623 115.707 110.315 116.322 109.699C116.938 109.073 117.246 108.311 117.246 107.415C117.246 106.519 116.938 105.763 116.322 105.147C115.707 104.521 114.951 104.207 114.054 104.207C113.158 104.207 112.402 104.521 111.786 105.147C111.171 105.763 110.863 106.519 110.863 107.415C110.863 108.311 111.171 109.073 111.786 109.699Z" fill="black"/>
<path d="M124.872 104.402H122.539V109.31C122.539 109.753 122.625 110.072 122.798 110.266C122.971 110.45 123.23 110.547 123.576 110.558C123.921 110.558 124.353 110.547 124.872 110.525V111.465C123.738 111.638 122.885 111.557 122.312 111.222C121.751 110.887 121.47 110.25 121.47 109.31V104.402H119.769V103.365H121.47V101.421L122.539 101.097V103.365H124.872V104.402Z" fill="black"/>
<path d="M127.739 101.421C127.588 101.572 127.404 101.648 127.188 101.648C126.972 101.648 126.789 101.572 126.638 101.421C126.486 101.27 126.411 101.086 126.411 100.87C126.411 100.654 126.486 100.471 126.638 100.319C126.789 100.168 126.972 100.093 127.188 100.093C127.404 100.093 127.588 100.168 127.739 100.319C127.89 100.471 127.966 100.654 127.966 100.87C127.966 101.086 127.89 101.27 127.739 101.421ZM126.654 111.465V103.365H127.723V111.465H126.654Z" fill="black"/>
<path d="M136.78 110.444C135.959 111.254 134.955 111.659 133.767 111.659C132.579 111.659 131.569 111.254 130.737 110.444C129.916 109.624 129.506 108.614 129.506 107.415C129.506 106.216 129.916 105.212 130.737 104.402C131.569 103.581 132.579 103.171 133.767 103.171C134.955 103.171 135.959 103.581 136.78 104.402C137.611 105.212 138.027 106.216 138.027 107.415C138.027 108.614 137.611 109.624 136.78 110.444ZM131.498 109.699C132.114 110.315 132.87 110.623 133.767 110.623C134.663 110.623 135.419 110.315 136.035 109.699C136.65 109.073 136.958 108.311 136.958 107.415C136.958 106.519 136.65 105.763 136.035 105.147C135.419 104.521 134.663 104.207 133.767 104.207C132.87 104.207 132.114 104.521 131.498 105.147C130.883 105.763 130.575 106.519 130.575 107.415C130.575 108.311 130.883 109.073 131.498 109.699Z" fill="black"/>
<path d="M143.607 103.171C144.59 103.171 145.362 103.473 145.924 104.078C146.496 104.672 146.782 105.476 146.782 106.492V111.465H145.713V106.492C145.713 105.768 145.519 105.206 145.13 104.807C144.752 104.407 144.212 104.207 143.51 104.207C142.732 104.207 142.101 104.456 141.615 104.953C141.129 105.439 140.886 106.195 140.886 107.221V111.465H139.816V103.365H140.886V104.629C141.49 103.657 142.398 103.171 143.607 103.171Z" fill="black"/>
<path d="M155.816 103.365H156.885V111.465H155.816V109.877C155.071 111.065 153.98 111.659 152.543 111.659C151.388 111.659 150.4 111.249 149.579 110.428C148.769 109.607 148.364 108.603 148.364 107.415C148.364 106.227 148.769 105.223 149.579 104.402C150.4 103.581 151.388 103.171 152.543 103.171C153.98 103.171 155.071 103.765 155.816 104.953V103.365ZM150.356 109.699C150.972 110.315 151.728 110.623 152.624 110.623C153.521 110.623 154.277 110.315 154.892 109.699C155.508 109.073 155.816 108.311 155.816 107.415C155.816 106.519 155.508 105.763 154.892 105.147C154.277 104.521 153.521 104.207 152.624 104.207C151.728 104.207 150.972 104.521 150.356 105.147C149.741 105.763 149.433 106.519 149.433 107.415C149.433 108.311 149.741 109.073 150.356 109.699Z" fill="black"/>
<path d="M159.149 111.465V99.639H160.218V111.465H159.149Z" fill="black"/>
<g clip-path="url(#clip1_578_114)">
<path d="M112.601 150.424C145.835 150.424 172.776 177.366 172.776 210.6C172.776 243.834 145.835 270.776 112.601 270.776C79.3663 270.776 52.424 243.835 52.4238 210.6C52.4238 177.366 79.3662 150.424 112.601 150.424Z" fill="white"/>
<path d="M112.601 150.424C145.835 150.424 172.776 177.366 172.776 210.6C172.776 243.834 145.835 270.776 112.601 270.776C79.3663 270.776 52.424 243.835 52.4238 210.6C52.4238 177.366 79.3662 150.424 112.601 150.424Z" fill="url(#paint1_linear_578_114)"/>
<path d="M112.601 150.424C145.835 150.424 172.776 177.366 172.776 210.6C172.776 243.834 145.835 270.776 112.601 270.776C79.3663 270.776 52.424 243.835 52.4238 210.6C52.4238 177.366 79.3662 150.424 112.601 150.424Z" stroke="#85FFBE" stroke-width="0.947656"/>
<path d="M150.573 178.38C149.218 176.636 146.289 175.262 140.035 178.541C136.292 180.54 127.839 187.382 127.478 187.667C127.329 187.745 127.164 187.787 126.995 187.79L95.1634 181.156C94.6896 181.077 94.204 181.103 93.7419 181.235C93.2797 181.366 92.8524 181.598 92.491 181.914L89.9513 184.322C89.7253 184.526 89.5502 184.781 89.4399 185.065C89.3295 185.349 89.2868 185.655 89.3154 185.959C89.3439 186.262 89.4427 186.555 89.6041 186.814C89.7655 187.072 89.985 187.29 90.2451 187.449L111.093 200.906L101.825 208.487C101.669 208.576 101.494 208.628 101.314 208.638L88.4256 206.241C87.9382 206.172 87.4414 206.223 86.9778 206.388C86.5141 206.553 86.0972 206.827 85.7626 207.188L84.815 208.259C84.6242 208.484 84.4826 208.745 84.3993 209.028C84.3161 209.31 84.293 209.607 84.3317 209.899C84.3705 210.188 84.47 210.466 84.6235 210.714C84.777 210.962 84.9811 211.175 85.2225 211.339C91.1074 215.49 97.6462 220.209 98.4518 221.024C99.0488 221.972 102.375 229.326 105.227 235.855C105.382 236.232 105.644 236.556 105.981 236.785C106.318 237.014 106.715 237.139 107.123 237.144C107.481 237.146 107.834 237.054 108.146 236.879L109.369 236.215C109.798 235.962 110.158 235.607 110.419 235.183C110.68 234.759 110.834 234.277 110.866 233.78L111.122 220.693C111.162 220.512 111.243 220.344 111.359 220.2L120.636 212.619L129.658 235.722C129.758 236.012 129.925 236.274 130.144 236.487C130.363 236.701 130.63 236.86 130.922 236.952C131.214 237.044 131.523 237.066 131.825 237.017C132.128 236.969 132.414 236.85 132.662 236.67L135.505 234.661C135.887 234.371 136.2 233.999 136.419 233.573C136.639 233.147 136.761 232.677 136.775 232.197L136.642 199.683C136.67 199.515 136.742 199.358 136.851 199.228C137.201 198.934 145.598 192.017 148.223 188.747C152.781 183.241 152.013 180.095 150.573 178.38ZM146.299 187.041C143.797 190.15 135.344 197.134 135.249 197.2C134.9 197.512 134.618 197.891 134.419 198.314C134.221 198.737 134.11 199.197 134.093 199.664L134.235 232.169C134.204 232.295 134.142 232.413 134.055 232.51L131.809 234.083L122.759 210.809C122.658 210.515 122.485 210.25 122.258 210.039C122.03 209.827 121.753 209.675 121.453 209.595C121.152 209.516 120.837 209.511 120.534 209.582C120.231 209.653 119.951 209.798 119.717 210.003L109.757 218.181C109.052 218.803 108.623 219.679 108.563 220.617L108.307 233.685C108.283 233.776 108.234 233.858 108.165 233.922L107.417 234.339C105.398 229.733 101.228 220.209 100.47 219.337C99.7121 218.466 91.2875 212.438 87.2031 209.548L87.7432 208.904C87.8092 208.856 87.883 208.821 87.9612 208.799L100.878 211.169C101.336 211.23 101.803 211.201 102.25 211.082C102.697 210.964 103.116 210.758 103.484 210.477L113.453 202.346C113.696 202.154 113.89 201.907 114.018 201.625C114.147 201.343 114.206 201.035 114.192 200.725C114.171 200.414 114.074 200.113 113.909 199.849C113.743 199.584 113.515 199.364 113.245 199.209L92.292 185.677L94.2726 183.781C94.3858 183.717 94.5121 183.678 94.6422 183.668L126.464 190.301C126.926 190.378 127.398 190.361 127.852 190.25C128.307 190.139 128.734 189.937 129.108 189.657C129.194 189.591 137.732 182.682 141.238 180.853C143.361 179.735 147.133 178.152 148.535 180L148.592 180.067C150.127 181.848 147.815 185.222 146.299 187.079V187.041Z" fill="white"/>
<path d="M74.7981 226.492C75.0989 226.494 75.3909 226.39 75.6226 226.198L81.6497 221.28C81.8961 221.057 82.0474 220.747 82.0723 220.415C82.0972 220.084 81.9938 219.755 81.7835 219.497C81.5732 219.24 81.272 219.072 80.942 219.03C80.6121 218.988 80.2785 219.074 80.0102 219.271L73.9831 224.189C73.7765 224.359 73.627 224.587 73.5552 224.845C73.4833 225.102 73.4926 225.375 73.5817 225.627C73.6708 225.879 73.8355 226.097 74.0532 226.252C74.2709 226.407 74.531 226.491 74.7981 226.492Z" fill="white"/>
<path d="M94.8031 237.39L88.776 242.309C88.5114 242.528 88.3442 242.844 88.3105 243.186C88.2768 243.528 88.3793 243.87 88.5959 244.138C88.7174 244.286 88.8707 244.406 89.0445 244.488C89.2183 244.57 89.4082 244.612 89.6004 244.611C89.8981 244.612 90.1866 244.508 90.4154 244.318L96.4899 239.399C96.632 239.295 96.7514 239.163 96.8409 239.011C96.9303 238.86 96.988 238.691 97.0103 238.516C97.0326 238.342 97.0191 238.164 96.9706 237.995C96.9222 237.825 96.8397 237.668 96.7283 237.531C96.6169 237.395 96.4789 237.282 96.3227 237.201C96.1665 237.119 95.9954 237.071 95.8197 237.057C95.644 237.044 95.4675 237.067 95.3008 237.124C95.1342 237.181 94.981 237.272 94.8504 237.39H94.8031Z" fill="white"/>
<path d="M89.2307 228.511C89.0108 228.246 88.6955 228.079 88.3532 228.045C88.0108 228.012 87.669 228.114 87.4017 228.331L74.2672 239.03C74.1251 239.134 74.0057 239.266 73.9162 239.418C73.8267 239.569 73.7691 239.738 73.7468 239.912C73.7245 240.087 73.738 240.265 73.7864 240.434C73.8349 240.603 73.9174 240.761 74.0287 240.898C74.1401 241.034 74.2781 241.147 74.4343 241.228C74.5906 241.31 74.7617 241.358 74.9374 241.372C75.1131 241.385 75.2896 241.362 75.4563 241.305C75.6229 241.248 75.7761 241.157 75.9066 241.039L89.0506 230.34C89.3152 230.12 89.4824 229.804 89.5161 229.462C89.5498 229.12 89.4473 228.778 89.2307 228.511Z" fill="white"/>
</g>
<path d="M210.998 182.4L209.698 180.7L208.898 181.3V182.4H210.998ZM232.398 149.5L230.898 151L230.998 151.1L231.198 151.2L232.398 149.5ZM232.398 149.5L233.898 148L233.798 147.9L233.737 147.87L232.398 149.5ZM210.998 133.4H208.898V134.5L209.698 135.1L210.998 133.4ZM208.898 182.4V315.816H213.098V182.4H208.898ZM231.198 164.7L209.798 180.8L212.298 184.2L233.698 168.1L231.198 164.7ZM237.998 157.9C237.998 158.4 237.798 159 236.698 160.2C235.498 161.4 233.798 162.7 231.098 164.7L233.598 168.1C236.098 166.2 238.198 164.7 239.598 163.2C241.098 161.7 242 160.1 242 158H237.998V157.9ZM231.198 151.2C233.798 153.2 235.598 154.5 236.798 155.7C237.898 156.8 238 157.5 238 158H242C242 155.9 241.198 154.2 239.798 152.8C238.398 151.4 236.298 149.8 233.798 147.9L231.198 151.2ZM209.698 135.1L231.198 151.2L232.637 149.62L233.737 147.87L212.198 131.7L209.698 135.1ZM208.898 0V133.4H213.098V0H210.998H208.898Z" fill="#65FFAE"/>
</g>
<defs>
<linearGradient id="paint0_linear_578_114" x1="-16.459" y1="157.926" x2="241.089" y2="157.926" gradientUnits="userSpaceOnUse">
<stop stop-color="white"/>
<stop offset="1" stop-color="#C6FFE1"/>
</linearGradient>
<linearGradient id="paint1_linear_578_114" x1="112.6" y1="149.95" x2="112.6" y2="271.25" gradientUnits="userSpaceOnUse">
<stop stop-color="#006630"/>
<stop offset="1" stop-color="#138F4C"/>
</linearGradient>
<clipPath id="clip0_578_114">
<rect width="242" height="316" fill="white" transform="translate(0.5)"/>
</clipPath>
<clipPath id="clip1_578_114">
<rect width="121.3" height="121.3" fill="white" transform="translate(51.9502 149.95)"/>
</clipPath>
</defs>
</svg>
